%TF.GenerationSoftware,KiCad,Pcbnew,9.0.1-9.0.1-0~ubuntu24.04.1*%
%TF.CreationDate,2025-05-03T17:14:02+02:00*%
%TF.ProjectId,CNC-version,434e432d-7665-4727-9369-6f6e2e6b6963,rev?*%
%TF.SameCoordinates,Original*%
%TF.FileFunction,Legend,Top*%
%TF.FilePolarity,Positive*%
%FSLAX46Y46*%
G04 Gerber Fmt 4.6, Leading zero omitted, Abs format (unit mm)*
G04 Created by KiCad (PCBNEW 9.0.1-9.0.1-0~ubuntu24.04.1) date 2025-05-03 17:14:02*
%MOMM*%
%LPD*%
G01*
G04 APERTURE LIST*
%ADD10C,0.150000*%
%ADD11C,0.254000*%
%ADD12C,0.120000*%
%ADD13C,0.100000*%
%ADD14C,0.200000*%
G04 APERTURE END LIST*
D10*
X43634819Y-47622857D02*
X43158628Y-47956190D01*
X43634819Y-48194285D02*
X42634819Y-48194285D01*
X42634819Y-48194285D02*
X42634819Y-47813333D01*
X42634819Y-47813333D02*
X42682438Y-47718095D01*
X42682438Y-47718095D02*
X42730057Y-47670476D01*
X42730057Y-47670476D02*
X42825295Y-47622857D01*
X42825295Y-47622857D02*
X42968152Y-47622857D01*
X42968152Y-47622857D02*
X43063390Y-47670476D01*
X43063390Y-47670476D02*
X43111009Y-47718095D01*
X43111009Y-47718095D02*
X43158628Y-47813333D01*
X43158628Y-47813333D02*
X43158628Y-48194285D01*
X43634819Y-46670476D02*
X43634819Y-47241904D01*
X43634819Y-46956190D02*
X42634819Y-46956190D01*
X42634819Y-46956190D02*
X42777676Y-47051428D01*
X42777676Y-47051428D02*
X42872914Y-47146666D01*
X42872914Y-47146666D02*
X42920533Y-47241904D01*
X42730057Y-46289523D02*
X42682438Y-46241904D01*
X42682438Y-46241904D02*
X42634819Y-46146666D01*
X42634819Y-46146666D02*
X42634819Y-45908571D01*
X42634819Y-45908571D02*
X42682438Y-45813333D01*
X42682438Y-45813333D02*
X42730057Y-45765714D01*
X42730057Y-45765714D02*
X42825295Y-45718095D01*
X42825295Y-45718095D02*
X42920533Y-45718095D01*
X42920533Y-45718095D02*
X43063390Y-45765714D01*
X43063390Y-45765714D02*
X43634819Y-46337142D01*
X43634819Y-46337142D02*
X43634819Y-45718095D01*
D11*
X23706667Y-82519318D02*
X23706667Y-83426461D01*
X23706667Y-83426461D02*
X23646190Y-83607889D01*
X23646190Y-83607889D02*
X23525238Y-83728842D01*
X23525238Y-83728842D02*
X23343809Y-83789318D01*
X23343809Y-83789318D02*
X23222857Y-83789318D01*
X24916190Y-82519318D02*
X24311428Y-82519318D01*
X24311428Y-82519318D02*
X24250952Y-83124080D01*
X24250952Y-83124080D02*
X24311428Y-83063603D01*
X24311428Y-83063603D02*
X24432381Y-83003127D01*
X24432381Y-83003127D02*
X24734762Y-83003127D01*
X24734762Y-83003127D02*
X24855714Y-83063603D01*
X24855714Y-83063603D02*
X24916190Y-83124080D01*
X24916190Y-83124080D02*
X24976667Y-83245032D01*
X24976667Y-83245032D02*
X24976667Y-83547413D01*
X24976667Y-83547413D02*
X24916190Y-83668365D01*
X24916190Y-83668365D02*
X24855714Y-83728842D01*
X24855714Y-83728842D02*
X24734762Y-83789318D01*
X24734762Y-83789318D02*
X24432381Y-83789318D01*
X24432381Y-83789318D02*
X24311428Y-83728842D01*
X24311428Y-83728842D02*
X24250952Y-83668365D01*
D10*
X72421905Y-19773866D02*
X73183810Y-19773866D01*
X72802857Y-20154819D02*
X72802857Y-19392914D01*
X74136190Y-19154819D02*
X73660000Y-19154819D01*
X73660000Y-19154819D02*
X73612381Y-19631009D01*
X73612381Y-19631009D02*
X73660000Y-19583390D01*
X73660000Y-19583390D02*
X73755238Y-19535771D01*
X73755238Y-19535771D02*
X73993333Y-19535771D01*
X73993333Y-19535771D02*
X74088571Y-19583390D01*
X74088571Y-19583390D02*
X74136190Y-19631009D01*
X74136190Y-19631009D02*
X74183809Y-19726247D01*
X74183809Y-19726247D02*
X74183809Y-19964342D01*
X74183809Y-19964342D02*
X74136190Y-20059580D01*
X74136190Y-20059580D02*
X74088571Y-20107200D01*
X74088571Y-20107200D02*
X73993333Y-20154819D01*
X73993333Y-20154819D02*
X73755238Y-20154819D01*
X73755238Y-20154819D02*
X73660000Y-20107200D01*
X73660000Y-20107200D02*
X73612381Y-20059580D01*
X74517143Y-19488152D02*
X74755238Y-20154819D01*
X74755238Y-20154819D02*
X74993333Y-19488152D01*
D11*
X101176667Y-82509318D02*
X101176667Y-83416461D01*
X101176667Y-83416461D02*
X101116190Y-83597889D01*
X101116190Y-83597889D02*
X100995238Y-83718842D01*
X100995238Y-83718842D02*
X100813809Y-83779318D01*
X100813809Y-83779318D02*
X100692857Y-83779318D01*
X101660476Y-82509318D02*
X102446667Y-82509318D01*
X102446667Y-82509318D02*
X102023333Y-82993127D01*
X102023333Y-82993127D02*
X102204762Y-82993127D01*
X102204762Y-82993127D02*
X102325714Y-83053603D01*
X102325714Y-83053603D02*
X102386190Y-83114080D01*
X102386190Y-83114080D02*
X102446667Y-83235032D01*
X102446667Y-83235032D02*
X102446667Y-83537413D01*
X102446667Y-83537413D02*
X102386190Y-83658365D01*
X102386190Y-83658365D02*
X102325714Y-83718842D01*
X102325714Y-83718842D02*
X102204762Y-83779318D01*
X102204762Y-83779318D02*
X101841905Y-83779318D01*
X101841905Y-83779318D02*
X101720952Y-83718842D01*
X101720952Y-83718842D02*
X101660476Y-83658365D01*
D10*
X91894819Y-47146666D02*
X91418628Y-47479999D01*
X91894819Y-47718094D02*
X90894819Y-47718094D01*
X90894819Y-47718094D02*
X90894819Y-47337142D01*
X90894819Y-47337142D02*
X90942438Y-47241904D01*
X90942438Y-47241904D02*
X90990057Y-47194285D01*
X90990057Y-47194285D02*
X91085295Y-47146666D01*
X91085295Y-47146666D02*
X91228152Y-47146666D01*
X91228152Y-47146666D02*
X91323390Y-47194285D01*
X91323390Y-47194285D02*
X91371009Y-47241904D01*
X91371009Y-47241904D02*
X91418628Y-47337142D01*
X91418628Y-47337142D02*
X91418628Y-47718094D01*
X90894819Y-46813332D02*
X90894819Y-46194285D01*
X90894819Y-46194285D02*
X91275771Y-46527618D01*
X91275771Y-46527618D02*
X91275771Y-46384761D01*
X91275771Y-46384761D02*
X91323390Y-46289523D01*
X91323390Y-46289523D02*
X91371009Y-46241904D01*
X91371009Y-46241904D02*
X91466247Y-46194285D01*
X91466247Y-46194285D02*
X91704342Y-46194285D01*
X91704342Y-46194285D02*
X91799580Y-46241904D01*
X91799580Y-46241904D02*
X91847200Y-46289523D01*
X91847200Y-46289523D02*
X91894819Y-46384761D01*
X91894819Y-46384761D02*
X91894819Y-46670475D01*
X91894819Y-46670475D02*
X91847200Y-46765713D01*
X91847200Y-46765713D02*
X91799580Y-46813332D01*
X31305714Y-19783866D02*
X32067619Y-19783866D01*
X31686666Y-20164819D02*
X31686666Y-19402914D01*
X33067618Y-20164819D02*
X32496190Y-20164819D01*
X32781904Y-20164819D02*
X32781904Y-19164819D01*
X32781904Y-19164819D02*
X32686666Y-19307676D01*
X32686666Y-19307676D02*
X32591428Y-19402914D01*
X32591428Y-19402914D02*
X32496190Y-19450533D01*
X33448571Y-19260057D02*
X33496190Y-19212438D01*
X33496190Y-19212438D02*
X33591428Y-19164819D01*
X33591428Y-19164819D02*
X33829523Y-19164819D01*
X33829523Y-19164819D02*
X33924761Y-19212438D01*
X33924761Y-19212438D02*
X33972380Y-19260057D01*
X33972380Y-19260057D02*
X34019999Y-19355295D01*
X34019999Y-19355295D02*
X34019999Y-19450533D01*
X34019999Y-19450533D02*
X33972380Y-19593390D01*
X33972380Y-19593390D02*
X33400952Y-20164819D01*
X33400952Y-20164819D02*
X34019999Y-20164819D01*
X34353333Y-19498152D02*
X34591428Y-20164819D01*
X34591428Y-20164819D02*
X34829523Y-19498152D01*
X52578095Y-12964819D02*
X52578095Y-13774342D01*
X52578095Y-13774342D02*
X52625714Y-13869580D01*
X52625714Y-13869580D02*
X52673333Y-13917200D01*
X52673333Y-13917200D02*
X52768571Y-13964819D01*
X52768571Y-13964819D02*
X52959047Y-13964819D01*
X52959047Y-13964819D02*
X53054285Y-13917200D01*
X53054285Y-13917200D02*
X53101904Y-13869580D01*
X53101904Y-13869580D02*
X53149523Y-13774342D01*
X53149523Y-13774342D02*
X53149523Y-12964819D01*
X53578095Y-13060057D02*
X53625714Y-13012438D01*
X53625714Y-13012438D02*
X53720952Y-12964819D01*
X53720952Y-12964819D02*
X53959047Y-12964819D01*
X53959047Y-12964819D02*
X54054285Y-13012438D01*
X54054285Y-13012438D02*
X54101904Y-13060057D01*
X54101904Y-13060057D02*
X54149523Y-13155295D01*
X54149523Y-13155295D02*
X54149523Y-13250533D01*
X54149523Y-13250533D02*
X54101904Y-13393390D01*
X54101904Y-13393390D02*
X53530476Y-13964819D01*
X53530476Y-13964819D02*
X54149523Y-13964819D01*
X71420057Y-58505238D02*
X71372438Y-58600476D01*
X71372438Y-58600476D02*
X71277200Y-58695714D01*
X71277200Y-58695714D02*
X71134342Y-58838571D01*
X71134342Y-58838571D02*
X71086723Y-58933809D01*
X71086723Y-58933809D02*
X71086723Y-59029047D01*
X71324819Y-58981428D02*
X71277200Y-59076666D01*
X71277200Y-59076666D02*
X71181961Y-59171904D01*
X71181961Y-59171904D02*
X70991485Y-59219523D01*
X70991485Y-59219523D02*
X70658152Y-59219523D01*
X70658152Y-59219523D02*
X70467676Y-59171904D01*
X70467676Y-59171904D02*
X70372438Y-59076666D01*
X70372438Y-59076666D02*
X70324819Y-58981428D01*
X70324819Y-58981428D02*
X70324819Y-58790952D01*
X70324819Y-58790952D02*
X70372438Y-58695714D01*
X70372438Y-58695714D02*
X70467676Y-58600476D01*
X70467676Y-58600476D02*
X70658152Y-58552857D01*
X70658152Y-58552857D02*
X70991485Y-58552857D01*
X70991485Y-58552857D02*
X71181961Y-58600476D01*
X71181961Y-58600476D02*
X71277200Y-58695714D01*
X71277200Y-58695714D02*
X71324819Y-58790952D01*
X71324819Y-58790952D02*
X71324819Y-58981428D01*
X70324819Y-58219523D02*
X70324819Y-57600476D01*
X70324819Y-57600476D02*
X70705771Y-57933809D01*
X70705771Y-57933809D02*
X70705771Y-57790952D01*
X70705771Y-57790952D02*
X70753390Y-57695714D01*
X70753390Y-57695714D02*
X70801009Y-57648095D01*
X70801009Y-57648095D02*
X70896247Y-57600476D01*
X70896247Y-57600476D02*
X71134342Y-57600476D01*
X71134342Y-57600476D02*
X71229580Y-57648095D01*
X71229580Y-57648095D02*
X71277200Y-57695714D01*
X71277200Y-57695714D02*
X71324819Y-57790952D01*
X71324819Y-57790952D02*
X71324819Y-58076666D01*
X71324819Y-58076666D02*
X71277200Y-58171904D01*
X71277200Y-58171904D02*
X71229580Y-58219523D01*
X68771128Y-58345714D02*
X68813985Y-58217142D01*
X68813985Y-58217142D02*
X68856842Y-58174285D01*
X68856842Y-58174285D02*
X68942557Y-58131428D01*
X68942557Y-58131428D02*
X69071128Y-58131428D01*
X69071128Y-58131428D02*
X69156842Y-58174285D01*
X69156842Y-58174285D02*
X69199700Y-58217142D01*
X69199700Y-58217142D02*
X69242557Y-58302857D01*
X69242557Y-58302857D02*
X69242557Y-58645714D01*
X69242557Y-58645714D02*
X68342557Y-58645714D01*
X68342557Y-58645714D02*
X68342557Y-58345714D01*
X68342557Y-58345714D02*
X68385414Y-58260000D01*
X68385414Y-58260000D02*
X68428271Y-58217142D01*
X68428271Y-58217142D02*
X68513985Y-58174285D01*
X68513985Y-58174285D02*
X68599700Y-58174285D01*
X68599700Y-58174285D02*
X68685414Y-58217142D01*
X68685414Y-58217142D02*
X68728271Y-58260000D01*
X68728271Y-58260000D02*
X68771128Y-58345714D01*
X68771128Y-58345714D02*
X68771128Y-58645714D01*
X68771128Y-61523857D02*
X68771128Y-61223857D01*
X69242557Y-61095285D02*
X69242557Y-61523857D01*
X69242557Y-61523857D02*
X68342557Y-61523857D01*
X68342557Y-61523857D02*
X68342557Y-61095285D01*
X69156842Y-55210428D02*
X69199700Y-55253285D01*
X69199700Y-55253285D02*
X69242557Y-55381857D01*
X69242557Y-55381857D02*
X69242557Y-55467571D01*
X69242557Y-55467571D02*
X69199700Y-55596142D01*
X69199700Y-55596142D02*
X69113985Y-55681857D01*
X69113985Y-55681857D02*
X69028271Y-55724714D01*
X69028271Y-55724714D02*
X68856842Y-55767571D01*
X68856842Y-55767571D02*
X68728271Y-55767571D01*
X68728271Y-55767571D02*
X68556842Y-55724714D01*
X68556842Y-55724714D02*
X68471128Y-55681857D01*
X68471128Y-55681857D02*
X68385414Y-55596142D01*
X68385414Y-55596142D02*
X68342557Y-55467571D01*
X68342557Y-55467571D02*
X68342557Y-55381857D01*
X68342557Y-55381857D02*
X68385414Y-55253285D01*
X68385414Y-55253285D02*
X68428271Y-55210428D01*
X80464819Y-47622857D02*
X79988628Y-47956190D01*
X80464819Y-48194285D02*
X79464819Y-48194285D01*
X79464819Y-48194285D02*
X79464819Y-47813333D01*
X79464819Y-47813333D02*
X79512438Y-47718095D01*
X79512438Y-47718095D02*
X79560057Y-47670476D01*
X79560057Y-47670476D02*
X79655295Y-47622857D01*
X79655295Y-47622857D02*
X79798152Y-47622857D01*
X79798152Y-47622857D02*
X79893390Y-47670476D01*
X79893390Y-47670476D02*
X79941009Y-47718095D01*
X79941009Y-47718095D02*
X79988628Y-47813333D01*
X79988628Y-47813333D02*
X79988628Y-48194285D01*
X80464819Y-46670476D02*
X80464819Y-47241904D01*
X80464819Y-46956190D02*
X79464819Y-46956190D01*
X79464819Y-46956190D02*
X79607676Y-47051428D01*
X79607676Y-47051428D02*
X79702914Y-47146666D01*
X79702914Y-47146666D02*
X79750533Y-47241904D01*
X80464819Y-46194285D02*
X80464819Y-46003809D01*
X80464819Y-46003809D02*
X80417200Y-45908571D01*
X80417200Y-45908571D02*
X80369580Y-45860952D01*
X80369580Y-45860952D02*
X80226723Y-45765714D01*
X80226723Y-45765714D02*
X80036247Y-45718095D01*
X80036247Y-45718095D02*
X79655295Y-45718095D01*
X79655295Y-45718095D02*
X79560057Y-45765714D01*
X79560057Y-45765714D02*
X79512438Y-45813333D01*
X79512438Y-45813333D02*
X79464819Y-45908571D01*
X79464819Y-45908571D02*
X79464819Y-46099047D01*
X79464819Y-46099047D02*
X79512438Y-46194285D01*
X79512438Y-46194285D02*
X79560057Y-46241904D01*
X79560057Y-46241904D02*
X79655295Y-46289523D01*
X79655295Y-46289523D02*
X79893390Y-46289523D01*
X79893390Y-46289523D02*
X79988628Y-46241904D01*
X79988628Y-46241904D02*
X80036247Y-46194285D01*
X80036247Y-46194285D02*
X80083866Y-46099047D01*
X80083866Y-46099047D02*
X80083866Y-45908571D01*
X80083866Y-45908571D02*
X80036247Y-45813333D01*
X80036247Y-45813333D02*
X79988628Y-45765714D01*
X79988628Y-45765714D02*
X79893390Y-45718095D01*
X72493333Y-33319580D02*
X72445714Y-33367200D01*
X72445714Y-33367200D02*
X72302857Y-33414819D01*
X72302857Y-33414819D02*
X72207619Y-33414819D01*
X72207619Y-33414819D02*
X72064762Y-33367200D01*
X72064762Y-33367200D02*
X71969524Y-33271961D01*
X71969524Y-33271961D02*
X71921905Y-33176723D01*
X71921905Y-33176723D02*
X71874286Y-32986247D01*
X71874286Y-32986247D02*
X71874286Y-32843390D01*
X71874286Y-32843390D02*
X71921905Y-32652914D01*
X71921905Y-32652914D02*
X71969524Y-32557676D01*
X71969524Y-32557676D02*
X72064762Y-32462438D01*
X72064762Y-32462438D02*
X72207619Y-32414819D01*
X72207619Y-32414819D02*
X72302857Y-32414819D01*
X72302857Y-32414819D02*
X72445714Y-32462438D01*
X72445714Y-32462438D02*
X72493333Y-32510057D01*
X73445714Y-33414819D02*
X72874286Y-33414819D01*
X73160000Y-33414819D02*
X73160000Y-32414819D01*
X73160000Y-32414819D02*
X73064762Y-32557676D01*
X73064762Y-32557676D02*
X72969524Y-32652914D01*
X72969524Y-32652914D02*
X72874286Y-32700533D01*
X94434819Y-28096666D02*
X93958628Y-28429999D01*
X94434819Y-28668094D02*
X93434819Y-28668094D01*
X93434819Y-28668094D02*
X93434819Y-28287142D01*
X93434819Y-28287142D02*
X93482438Y-28191904D01*
X93482438Y-28191904D02*
X93530057Y-28144285D01*
X93530057Y-28144285D02*
X93625295Y-28096666D01*
X93625295Y-28096666D02*
X93768152Y-28096666D01*
X93768152Y-28096666D02*
X93863390Y-28144285D01*
X93863390Y-28144285D02*
X93911009Y-28191904D01*
X93911009Y-28191904D02*
X93958628Y-28287142D01*
X93958628Y-28287142D02*
X93958628Y-28668094D01*
X94434819Y-27144285D02*
X94434819Y-27715713D01*
X94434819Y-27429999D02*
X93434819Y-27429999D01*
X93434819Y-27429999D02*
X93577676Y-27525237D01*
X93577676Y-27525237D02*
X93672914Y-27620475D01*
X93672914Y-27620475D02*
X93720533Y-27715713D01*
X52524819Y-47622857D02*
X52048628Y-47956190D01*
X52524819Y-48194285D02*
X51524819Y-48194285D01*
X51524819Y-48194285D02*
X51524819Y-47813333D01*
X51524819Y-47813333D02*
X51572438Y-47718095D01*
X51572438Y-47718095D02*
X51620057Y-47670476D01*
X51620057Y-47670476D02*
X51715295Y-47622857D01*
X51715295Y-47622857D02*
X51858152Y-47622857D01*
X51858152Y-47622857D02*
X51953390Y-47670476D01*
X51953390Y-47670476D02*
X52001009Y-47718095D01*
X52001009Y-47718095D02*
X52048628Y-47813333D01*
X52048628Y-47813333D02*
X52048628Y-48194285D01*
X52524819Y-46670476D02*
X52524819Y-47241904D01*
X52524819Y-46956190D02*
X51524819Y-46956190D01*
X51524819Y-46956190D02*
X51667676Y-47051428D01*
X51667676Y-47051428D02*
X51762914Y-47146666D01*
X51762914Y-47146666D02*
X51810533Y-47241904D01*
X52524819Y-45718095D02*
X52524819Y-46289523D01*
X52524819Y-46003809D02*
X51524819Y-46003809D01*
X51524819Y-46003809D02*
X51667676Y-46099047D01*
X51667676Y-46099047D02*
X51762914Y-46194285D01*
X51762914Y-46194285D02*
X51810533Y-46289523D01*
X95704819Y-47146666D02*
X95228628Y-47479999D01*
X95704819Y-47718094D02*
X94704819Y-47718094D01*
X94704819Y-47718094D02*
X94704819Y-47337142D01*
X94704819Y-47337142D02*
X94752438Y-47241904D01*
X94752438Y-47241904D02*
X94800057Y-47194285D01*
X94800057Y-47194285D02*
X94895295Y-47146666D01*
X94895295Y-47146666D02*
X95038152Y-47146666D01*
X95038152Y-47146666D02*
X95133390Y-47194285D01*
X95133390Y-47194285D02*
X95181009Y-47241904D01*
X95181009Y-47241904D02*
X95228628Y-47337142D01*
X95228628Y-47337142D02*
X95228628Y-47718094D01*
X95038152Y-46289523D02*
X95704819Y-46289523D01*
X94657200Y-46527618D02*
X95371485Y-46765713D01*
X95371485Y-46765713D02*
X95371485Y-46146666D01*
X107134819Y-47146666D02*
X106658628Y-47479999D01*
X107134819Y-47718094D02*
X106134819Y-47718094D01*
X106134819Y-47718094D02*
X106134819Y-47337142D01*
X106134819Y-47337142D02*
X106182438Y-47241904D01*
X106182438Y-47241904D02*
X106230057Y-47194285D01*
X106230057Y-47194285D02*
X106325295Y-47146666D01*
X106325295Y-47146666D02*
X106468152Y-47146666D01*
X106468152Y-47146666D02*
X106563390Y-47194285D01*
X106563390Y-47194285D02*
X106611009Y-47241904D01*
X106611009Y-47241904D02*
X106658628Y-47337142D01*
X106658628Y-47337142D02*
X106658628Y-47718094D01*
X106134819Y-46813332D02*
X106134819Y-46146666D01*
X106134819Y-46146666D02*
X107134819Y-46575237D01*
X43539580Y-26836666D02*
X43587200Y-26884285D01*
X43587200Y-26884285D02*
X43634819Y-27027142D01*
X43634819Y-27027142D02*
X43634819Y-27122380D01*
X43634819Y-27122380D02*
X43587200Y-27265237D01*
X43587200Y-27265237D02*
X43491961Y-27360475D01*
X43491961Y-27360475D02*
X43396723Y-27408094D01*
X43396723Y-27408094D02*
X43206247Y-27455713D01*
X43206247Y-27455713D02*
X43063390Y-27455713D01*
X43063390Y-27455713D02*
X42872914Y-27408094D01*
X42872914Y-27408094D02*
X42777676Y-27360475D01*
X42777676Y-27360475D02*
X42682438Y-27265237D01*
X42682438Y-27265237D02*
X42634819Y-27122380D01*
X42634819Y-27122380D02*
X42634819Y-27027142D01*
X42634819Y-27027142D02*
X42682438Y-26884285D01*
X42682438Y-26884285D02*
X42730057Y-26836666D01*
X42634819Y-26503332D02*
X42634819Y-25884285D01*
X42634819Y-25884285D02*
X43015771Y-26217618D01*
X43015771Y-26217618D02*
X43015771Y-26074761D01*
X43015771Y-26074761D02*
X43063390Y-25979523D01*
X43063390Y-25979523D02*
X43111009Y-25931904D01*
X43111009Y-25931904D02*
X43206247Y-25884285D01*
X43206247Y-25884285D02*
X43444342Y-25884285D01*
X43444342Y-25884285D02*
X43539580Y-25931904D01*
X43539580Y-25931904D02*
X43587200Y-25979523D01*
X43587200Y-25979523D02*
X43634819Y-26074761D01*
X43634819Y-26074761D02*
X43634819Y-26360475D01*
X43634819Y-26360475D02*
X43587200Y-26455713D01*
X43587200Y-26455713D02*
X43539580Y-26503332D01*
X110944819Y-47146666D02*
X110468628Y-47479999D01*
X110944819Y-47718094D02*
X109944819Y-47718094D01*
X109944819Y-47718094D02*
X109944819Y-47337142D01*
X109944819Y-47337142D02*
X109992438Y-47241904D01*
X109992438Y-47241904D02*
X110040057Y-47194285D01*
X110040057Y-47194285D02*
X110135295Y-47146666D01*
X110135295Y-47146666D02*
X110278152Y-47146666D01*
X110278152Y-47146666D02*
X110373390Y-47194285D01*
X110373390Y-47194285D02*
X110421009Y-47241904D01*
X110421009Y-47241904D02*
X110468628Y-47337142D01*
X110468628Y-47337142D02*
X110468628Y-47718094D01*
X110373390Y-46575237D02*
X110325771Y-46670475D01*
X110325771Y-46670475D02*
X110278152Y-46718094D01*
X110278152Y-46718094D02*
X110182914Y-46765713D01*
X110182914Y-46765713D02*
X110135295Y-46765713D01*
X110135295Y-46765713D02*
X110040057Y-46718094D01*
X110040057Y-46718094D02*
X109992438Y-46670475D01*
X109992438Y-46670475D02*
X109944819Y-46575237D01*
X109944819Y-46575237D02*
X109944819Y-46384761D01*
X109944819Y-46384761D02*
X109992438Y-46289523D01*
X109992438Y-46289523D02*
X110040057Y-46241904D01*
X110040057Y-46241904D02*
X110135295Y-46194285D01*
X110135295Y-46194285D02*
X110182914Y-46194285D01*
X110182914Y-46194285D02*
X110278152Y-46241904D01*
X110278152Y-46241904D02*
X110325771Y-46289523D01*
X110325771Y-46289523D02*
X110373390Y-46384761D01*
X110373390Y-46384761D02*
X110373390Y-46575237D01*
X110373390Y-46575237D02*
X110421009Y-46670475D01*
X110421009Y-46670475D02*
X110468628Y-46718094D01*
X110468628Y-46718094D02*
X110563866Y-46765713D01*
X110563866Y-46765713D02*
X110754342Y-46765713D01*
X110754342Y-46765713D02*
X110849580Y-46718094D01*
X110849580Y-46718094D02*
X110897200Y-46670475D01*
X110897200Y-46670475D02*
X110944819Y-46575237D01*
X110944819Y-46575237D02*
X110944819Y-46384761D01*
X110944819Y-46384761D02*
X110897200Y-46289523D01*
X110897200Y-46289523D02*
X110849580Y-46241904D01*
X110849580Y-46241904D02*
X110754342Y-46194285D01*
X110754342Y-46194285D02*
X110563866Y-46194285D01*
X110563866Y-46194285D02*
X110468628Y-46241904D01*
X110468628Y-46241904D02*
X110421009Y-46289523D01*
X110421009Y-46289523D02*
X110373390Y-46384761D01*
X58779580Y-26836666D02*
X58827200Y-26884285D01*
X58827200Y-26884285D02*
X58874819Y-27027142D01*
X58874819Y-27027142D02*
X58874819Y-27122380D01*
X58874819Y-27122380D02*
X58827200Y-27265237D01*
X58827200Y-27265237D02*
X58731961Y-27360475D01*
X58731961Y-27360475D02*
X58636723Y-27408094D01*
X58636723Y-27408094D02*
X58446247Y-27455713D01*
X58446247Y-27455713D02*
X58303390Y-27455713D01*
X58303390Y-27455713D02*
X58112914Y-27408094D01*
X58112914Y-27408094D02*
X58017676Y-27360475D01*
X58017676Y-27360475D02*
X57922438Y-27265237D01*
X57922438Y-27265237D02*
X57874819Y-27122380D01*
X57874819Y-27122380D02*
X57874819Y-27027142D01*
X57874819Y-27027142D02*
X57922438Y-26884285D01*
X57922438Y-26884285D02*
X57970057Y-26836666D01*
X58208152Y-25979523D02*
X58874819Y-25979523D01*
X57827200Y-26217618D02*
X58541485Y-26455713D01*
X58541485Y-26455713D02*
X58541485Y-25836666D01*
X102054819Y-28668094D02*
X101054819Y-28668094D01*
X101054819Y-28668094D02*
X101054819Y-28429999D01*
X101054819Y-28429999D02*
X101102438Y-28287142D01*
X101102438Y-28287142D02*
X101197676Y-28191904D01*
X101197676Y-28191904D02*
X101292914Y-28144285D01*
X101292914Y-28144285D02*
X101483390Y-28096666D01*
X101483390Y-28096666D02*
X101626247Y-28096666D01*
X101626247Y-28096666D02*
X101816723Y-28144285D01*
X101816723Y-28144285D02*
X101911961Y-28191904D01*
X101911961Y-28191904D02*
X102007200Y-28287142D01*
X102007200Y-28287142D02*
X102054819Y-28429999D01*
X102054819Y-28429999D02*
X102054819Y-28668094D01*
X102054819Y-27144285D02*
X102054819Y-27715713D01*
X102054819Y-27429999D02*
X101054819Y-27429999D01*
X101054819Y-27429999D02*
X101197676Y-27525237D01*
X101197676Y-27525237D02*
X101292914Y-27620475D01*
X101292914Y-27620475D02*
X101340533Y-27715713D01*
X103854819Y-23111904D02*
X102854819Y-23111904D01*
X103854819Y-22540476D02*
X103283390Y-22969047D01*
X102854819Y-22540476D02*
X103426247Y-23111904D01*
X109520057Y-30565238D02*
X109472438Y-30660476D01*
X109472438Y-30660476D02*
X109377200Y-30755714D01*
X109377200Y-30755714D02*
X109234342Y-30898571D01*
X109234342Y-30898571D02*
X109186723Y-30993809D01*
X109186723Y-30993809D02*
X109186723Y-31089047D01*
X109424819Y-31041428D02*
X109377200Y-31136666D01*
X109377200Y-31136666D02*
X109281961Y-31231904D01*
X109281961Y-31231904D02*
X109091485Y-31279523D01*
X109091485Y-31279523D02*
X108758152Y-31279523D01*
X108758152Y-31279523D02*
X108567676Y-31231904D01*
X108567676Y-31231904D02*
X108472438Y-31136666D01*
X108472438Y-31136666D02*
X108424819Y-31041428D01*
X108424819Y-31041428D02*
X108424819Y-30850952D01*
X108424819Y-30850952D02*
X108472438Y-30755714D01*
X108472438Y-30755714D02*
X108567676Y-30660476D01*
X108567676Y-30660476D02*
X108758152Y-30612857D01*
X108758152Y-30612857D02*
X109091485Y-30612857D01*
X109091485Y-30612857D02*
X109281961Y-30660476D01*
X109281961Y-30660476D02*
X109377200Y-30755714D01*
X109377200Y-30755714D02*
X109424819Y-30850952D01*
X109424819Y-30850952D02*
X109424819Y-31041428D01*
X109424819Y-29660476D02*
X109424819Y-30231904D01*
X109424819Y-29946190D02*
X108424819Y-29946190D01*
X108424819Y-29946190D02*
X108567676Y-30041428D01*
X108567676Y-30041428D02*
X108662914Y-30136666D01*
X108662914Y-30136666D02*
X108710533Y-30231904D01*
X106871128Y-30405714D02*
X106913985Y-30277142D01*
X106913985Y-30277142D02*
X106956842Y-30234285D01*
X106956842Y-30234285D02*
X107042557Y-30191428D01*
X107042557Y-30191428D02*
X107171128Y-30191428D01*
X107171128Y-30191428D02*
X107256842Y-30234285D01*
X107256842Y-30234285D02*
X107299700Y-30277142D01*
X107299700Y-30277142D02*
X107342557Y-30362857D01*
X107342557Y-30362857D02*
X107342557Y-30705714D01*
X107342557Y-30705714D02*
X106442557Y-30705714D01*
X106442557Y-30705714D02*
X106442557Y-30405714D01*
X106442557Y-30405714D02*
X106485414Y-30320000D01*
X106485414Y-30320000D02*
X106528271Y-30277142D01*
X106528271Y-30277142D02*
X106613985Y-30234285D01*
X106613985Y-30234285D02*
X106699700Y-30234285D01*
X106699700Y-30234285D02*
X106785414Y-30277142D01*
X106785414Y-30277142D02*
X106828271Y-30320000D01*
X106828271Y-30320000D02*
X106871128Y-30405714D01*
X106871128Y-30405714D02*
X106871128Y-30705714D01*
X107256842Y-27270428D02*
X107299700Y-27313285D01*
X107299700Y-27313285D02*
X107342557Y-27441857D01*
X107342557Y-27441857D02*
X107342557Y-27527571D01*
X107342557Y-27527571D02*
X107299700Y-27656142D01*
X107299700Y-27656142D02*
X107213985Y-27741857D01*
X107213985Y-27741857D02*
X107128271Y-27784714D01*
X107128271Y-27784714D02*
X106956842Y-27827571D01*
X106956842Y-27827571D02*
X106828271Y-27827571D01*
X106828271Y-27827571D02*
X106656842Y-27784714D01*
X106656842Y-27784714D02*
X106571128Y-27741857D01*
X106571128Y-27741857D02*
X106485414Y-27656142D01*
X106485414Y-27656142D02*
X106442557Y-27527571D01*
X106442557Y-27527571D02*
X106442557Y-27441857D01*
X106442557Y-27441857D02*
X106485414Y-27313285D01*
X106485414Y-27313285D02*
X106528271Y-27270428D01*
X106871128Y-33583857D02*
X106871128Y-33283857D01*
X107342557Y-33155285D02*
X107342557Y-33583857D01*
X107342557Y-33583857D02*
X106442557Y-33583857D01*
X106442557Y-33583857D02*
X106442557Y-33155285D01*
X85098095Y-19154819D02*
X85669523Y-19154819D01*
X85383809Y-20154819D02*
X85383809Y-19154819D01*
X85907619Y-19154819D02*
X86574285Y-20154819D01*
X86574285Y-19154819D02*
X85907619Y-20154819D01*
X86955238Y-20154819D02*
X86955238Y-19154819D01*
X86955238Y-19154819D02*
X87193333Y-19154819D01*
X87193333Y-19154819D02*
X87336190Y-19202438D01*
X87336190Y-19202438D02*
X87431428Y-19297676D01*
X87431428Y-19297676D02*
X87479047Y-19392914D01*
X87479047Y-19392914D02*
X87526666Y-19583390D01*
X87526666Y-19583390D02*
X87526666Y-19726247D01*
X87526666Y-19726247D02*
X87479047Y-19916723D01*
X87479047Y-19916723D02*
X87431428Y-20011961D01*
X87431428Y-20011961D02*
X87336190Y-20107200D01*
X87336190Y-20107200D02*
X87193333Y-20154819D01*
X87193333Y-20154819D02*
X86955238Y-20154819D01*
X22044819Y-42542857D02*
X21568628Y-42876190D01*
X22044819Y-43114285D02*
X21044819Y-43114285D01*
X21044819Y-43114285D02*
X21044819Y-42733333D01*
X21044819Y-42733333D02*
X21092438Y-42638095D01*
X21092438Y-42638095D02*
X21140057Y-42590476D01*
X21140057Y-42590476D02*
X21235295Y-42542857D01*
X21235295Y-42542857D02*
X21378152Y-42542857D01*
X21378152Y-42542857D02*
X21473390Y-42590476D01*
X21473390Y-42590476D02*
X21521009Y-42638095D01*
X21521009Y-42638095D02*
X21568628Y-42733333D01*
X21568628Y-42733333D02*
X21568628Y-43114285D01*
X22044819Y-41590476D02*
X22044819Y-42161904D01*
X22044819Y-41876190D02*
X21044819Y-41876190D01*
X21044819Y-41876190D02*
X21187676Y-41971428D01*
X21187676Y-41971428D02*
X21282914Y-42066666D01*
X21282914Y-42066666D02*
X21330533Y-42161904D01*
X21378152Y-40733333D02*
X22044819Y-40733333D01*
X20997200Y-40971428D02*
X21711485Y-41209523D01*
X21711485Y-41209523D02*
X21711485Y-40590476D01*
X79248095Y-19202438D02*
X79152857Y-19154819D01*
X79152857Y-19154819D02*
X79010000Y-19154819D01*
X79010000Y-19154819D02*
X78867143Y-19202438D01*
X78867143Y-19202438D02*
X78771905Y-19297676D01*
X78771905Y-19297676D02*
X78724286Y-19392914D01*
X78724286Y-19392914D02*
X78676667Y-19583390D01*
X78676667Y-19583390D02*
X78676667Y-19726247D01*
X78676667Y-19726247D02*
X78724286Y-19916723D01*
X78724286Y-19916723D02*
X78771905Y-20011961D01*
X78771905Y-20011961D02*
X78867143Y-20107200D01*
X78867143Y-20107200D02*
X79010000Y-20154819D01*
X79010000Y-20154819D02*
X79105238Y-20154819D01*
X79105238Y-20154819D02*
X79248095Y-20107200D01*
X79248095Y-20107200D02*
X79295714Y-20059580D01*
X79295714Y-20059580D02*
X79295714Y-19726247D01*
X79295714Y-19726247D02*
X79105238Y-19726247D01*
X79724286Y-20154819D02*
X79724286Y-19154819D01*
X79724286Y-19154819D02*
X80295714Y-20154819D01*
X80295714Y-20154819D02*
X80295714Y-19154819D01*
X80771905Y-20154819D02*
X80771905Y-19154819D01*
X80771905Y-19154819D02*
X81010000Y-19154819D01*
X81010000Y-19154819D02*
X81152857Y-19202438D01*
X81152857Y-19202438D02*
X81248095Y-19297676D01*
X81248095Y-19297676D02*
X81295714Y-19392914D01*
X81295714Y-19392914D02*
X81343333Y-19583390D01*
X81343333Y-19583390D02*
X81343333Y-19726247D01*
X81343333Y-19726247D02*
X81295714Y-19916723D01*
X81295714Y-19916723D02*
X81248095Y-20011961D01*
X81248095Y-20011961D02*
X81152857Y-20107200D01*
X81152857Y-20107200D02*
X81010000Y-20154819D01*
X81010000Y-20154819D02*
X80771905Y-20154819D01*
X71574819Y-47622857D02*
X71098628Y-47956190D01*
X71574819Y-48194285D02*
X70574819Y-48194285D01*
X70574819Y-48194285D02*
X70574819Y-47813333D01*
X70574819Y-47813333D02*
X70622438Y-47718095D01*
X70622438Y-47718095D02*
X70670057Y-47670476D01*
X70670057Y-47670476D02*
X70765295Y-47622857D01*
X70765295Y-47622857D02*
X70908152Y-47622857D01*
X70908152Y-47622857D02*
X71003390Y-47670476D01*
X71003390Y-47670476D02*
X71051009Y-47718095D01*
X71051009Y-47718095D02*
X71098628Y-47813333D01*
X71098628Y-47813333D02*
X71098628Y-48194285D01*
X71574819Y-46670476D02*
X71574819Y-47241904D01*
X71574819Y-46956190D02*
X70574819Y-46956190D01*
X70574819Y-46956190D02*
X70717676Y-47051428D01*
X70717676Y-47051428D02*
X70812914Y-47146666D01*
X70812914Y-47146666D02*
X70860533Y-47241904D01*
X70574819Y-46337142D02*
X70574819Y-45670476D01*
X70574819Y-45670476D02*
X71574819Y-46099047D01*
X75384819Y-47622857D02*
X74908628Y-47956190D01*
X75384819Y-48194285D02*
X74384819Y-48194285D01*
X74384819Y-48194285D02*
X74384819Y-47813333D01*
X74384819Y-47813333D02*
X74432438Y-47718095D01*
X74432438Y-47718095D02*
X74480057Y-47670476D01*
X74480057Y-47670476D02*
X74575295Y-47622857D01*
X74575295Y-47622857D02*
X74718152Y-47622857D01*
X74718152Y-47622857D02*
X74813390Y-47670476D01*
X74813390Y-47670476D02*
X74861009Y-47718095D01*
X74861009Y-47718095D02*
X74908628Y-47813333D01*
X74908628Y-47813333D02*
X74908628Y-48194285D01*
X75384819Y-46670476D02*
X75384819Y-47241904D01*
X75384819Y-46956190D02*
X74384819Y-46956190D01*
X74384819Y-46956190D02*
X74527676Y-47051428D01*
X74527676Y-47051428D02*
X74622914Y-47146666D01*
X74622914Y-47146666D02*
X74670533Y-47241904D01*
X74813390Y-46099047D02*
X74765771Y-46194285D01*
X74765771Y-46194285D02*
X74718152Y-46241904D01*
X74718152Y-46241904D02*
X74622914Y-46289523D01*
X74622914Y-46289523D02*
X74575295Y-46289523D01*
X74575295Y-46289523D02*
X74480057Y-46241904D01*
X74480057Y-46241904D02*
X74432438Y-46194285D01*
X74432438Y-46194285D02*
X74384819Y-46099047D01*
X74384819Y-46099047D02*
X74384819Y-45908571D01*
X74384819Y-45908571D02*
X74432438Y-45813333D01*
X74432438Y-45813333D02*
X74480057Y-45765714D01*
X74480057Y-45765714D02*
X74575295Y-45718095D01*
X74575295Y-45718095D02*
X74622914Y-45718095D01*
X74622914Y-45718095D02*
X74718152Y-45765714D01*
X74718152Y-45765714D02*
X74765771Y-45813333D01*
X74765771Y-45813333D02*
X74813390Y-45908571D01*
X74813390Y-45908571D02*
X74813390Y-46099047D01*
X74813390Y-46099047D02*
X74861009Y-46194285D01*
X74861009Y-46194285D02*
X74908628Y-46241904D01*
X74908628Y-46241904D02*
X75003866Y-46289523D01*
X75003866Y-46289523D02*
X75194342Y-46289523D01*
X75194342Y-46289523D02*
X75289580Y-46241904D01*
X75289580Y-46241904D02*
X75337200Y-46194285D01*
X75337200Y-46194285D02*
X75384819Y-46099047D01*
X75384819Y-46099047D02*
X75384819Y-45908571D01*
X75384819Y-45908571D02*
X75337200Y-45813333D01*
X75337200Y-45813333D02*
X75289580Y-45765714D01*
X75289580Y-45765714D02*
X75194342Y-45718095D01*
X75194342Y-45718095D02*
X75003866Y-45718095D01*
X75003866Y-45718095D02*
X74908628Y-45765714D01*
X74908628Y-45765714D02*
X74861009Y-45813333D01*
X74861009Y-45813333D02*
X74813390Y-45908571D01*
X98244819Y-28096666D02*
X97768628Y-28429999D01*
X98244819Y-28668094D02*
X97244819Y-28668094D01*
X97244819Y-28668094D02*
X97244819Y-28287142D01*
X97244819Y-28287142D02*
X97292438Y-28191904D01*
X97292438Y-28191904D02*
X97340057Y-28144285D01*
X97340057Y-28144285D02*
X97435295Y-28096666D01*
X97435295Y-28096666D02*
X97578152Y-28096666D01*
X97578152Y-28096666D02*
X97673390Y-28144285D01*
X97673390Y-28144285D02*
X97721009Y-28191904D01*
X97721009Y-28191904D02*
X97768628Y-28287142D01*
X97768628Y-28287142D02*
X97768628Y-28668094D01*
X97340057Y-27715713D02*
X97292438Y-27668094D01*
X97292438Y-27668094D02*
X97244819Y-27572856D01*
X97244819Y-27572856D02*
X97244819Y-27334761D01*
X97244819Y-27334761D02*
X97292438Y-27239523D01*
X97292438Y-27239523D02*
X97340057Y-27191904D01*
X97340057Y-27191904D02*
X97435295Y-27144285D01*
X97435295Y-27144285D02*
X97530533Y-27144285D01*
X97530533Y-27144285D02*
X97673390Y-27191904D01*
X97673390Y-27191904D02*
X98244819Y-27763332D01*
X98244819Y-27763332D02*
X98244819Y-27144285D01*
X99514819Y-47146666D02*
X99038628Y-47479999D01*
X99514819Y-47718094D02*
X98514819Y-47718094D01*
X98514819Y-47718094D02*
X98514819Y-47337142D01*
X98514819Y-47337142D02*
X98562438Y-47241904D01*
X98562438Y-47241904D02*
X98610057Y-47194285D01*
X98610057Y-47194285D02*
X98705295Y-47146666D01*
X98705295Y-47146666D02*
X98848152Y-47146666D01*
X98848152Y-47146666D02*
X98943390Y-47194285D01*
X98943390Y-47194285D02*
X98991009Y-47241904D01*
X98991009Y-47241904D02*
X99038628Y-47337142D01*
X99038628Y-47337142D02*
X99038628Y-47718094D01*
X98514819Y-46241904D02*
X98514819Y-46718094D01*
X98514819Y-46718094D02*
X98991009Y-46765713D01*
X98991009Y-46765713D02*
X98943390Y-46718094D01*
X98943390Y-46718094D02*
X98895771Y-46622856D01*
X98895771Y-46622856D02*
X98895771Y-46384761D01*
X98895771Y-46384761D02*
X98943390Y-46289523D01*
X98943390Y-46289523D02*
X98991009Y-46241904D01*
X98991009Y-46241904D02*
X99086247Y-46194285D01*
X99086247Y-46194285D02*
X99324342Y-46194285D01*
X99324342Y-46194285D02*
X99419580Y-46241904D01*
X99419580Y-46241904D02*
X99467200Y-46289523D01*
X99467200Y-46289523D02*
X99514819Y-46384761D01*
X99514819Y-46384761D02*
X99514819Y-46622856D01*
X99514819Y-46622856D02*
X99467200Y-46718094D01*
X99467200Y-46718094D02*
X99419580Y-46765713D01*
X58874819Y-47146666D02*
X58398628Y-47479999D01*
X58874819Y-47718094D02*
X57874819Y-47718094D01*
X57874819Y-47718094D02*
X57874819Y-47337142D01*
X57874819Y-47337142D02*
X57922438Y-47241904D01*
X57922438Y-47241904D02*
X57970057Y-47194285D01*
X57970057Y-47194285D02*
X58065295Y-47146666D01*
X58065295Y-47146666D02*
X58208152Y-47146666D01*
X58208152Y-47146666D02*
X58303390Y-47194285D01*
X58303390Y-47194285D02*
X58351009Y-47241904D01*
X58351009Y-47241904D02*
X58398628Y-47337142D01*
X58398628Y-47337142D02*
X58398628Y-47718094D01*
X58874819Y-46670475D02*
X58874819Y-46479999D01*
X58874819Y-46479999D02*
X58827200Y-46384761D01*
X58827200Y-46384761D02*
X58779580Y-46337142D01*
X58779580Y-46337142D02*
X58636723Y-46241904D01*
X58636723Y-46241904D02*
X58446247Y-46194285D01*
X58446247Y-46194285D02*
X58065295Y-46194285D01*
X58065295Y-46194285D02*
X57970057Y-46241904D01*
X57970057Y-46241904D02*
X57922438Y-46289523D01*
X57922438Y-46289523D02*
X57874819Y-46384761D01*
X57874819Y-46384761D02*
X57874819Y-46575237D01*
X57874819Y-46575237D02*
X57922438Y-46670475D01*
X57922438Y-46670475D02*
X57970057Y-46718094D01*
X57970057Y-46718094D02*
X58065295Y-46765713D01*
X58065295Y-46765713D02*
X58303390Y-46765713D01*
X58303390Y-46765713D02*
X58398628Y-46718094D01*
X58398628Y-46718094D02*
X58446247Y-46670475D01*
X58446247Y-46670475D02*
X58493866Y-46575237D01*
X58493866Y-46575237D02*
X58493866Y-46384761D01*
X58493866Y-46384761D02*
X58446247Y-46289523D01*
X58446247Y-46289523D02*
X58398628Y-46241904D01*
X58398628Y-46241904D02*
X58303390Y-46194285D01*
X103324819Y-47146666D02*
X102848628Y-47479999D01*
X103324819Y-47718094D02*
X102324819Y-47718094D01*
X102324819Y-47718094D02*
X102324819Y-47337142D01*
X102324819Y-47337142D02*
X102372438Y-47241904D01*
X102372438Y-47241904D02*
X102420057Y-47194285D01*
X102420057Y-47194285D02*
X102515295Y-47146666D01*
X102515295Y-47146666D02*
X102658152Y-47146666D01*
X102658152Y-47146666D02*
X102753390Y-47194285D01*
X102753390Y-47194285D02*
X102801009Y-47241904D01*
X102801009Y-47241904D02*
X102848628Y-47337142D01*
X102848628Y-47337142D02*
X102848628Y-47718094D01*
X102324819Y-46289523D02*
X102324819Y-46479999D01*
X102324819Y-46479999D02*
X102372438Y-46575237D01*
X102372438Y-46575237D02*
X102420057Y-46622856D01*
X102420057Y-46622856D02*
X102562914Y-46718094D01*
X102562914Y-46718094D02*
X102753390Y-46765713D01*
X102753390Y-46765713D02*
X103134342Y-46765713D01*
X103134342Y-46765713D02*
X103229580Y-46718094D01*
X103229580Y-46718094D02*
X103277200Y-46670475D01*
X103277200Y-46670475D02*
X103324819Y-46575237D01*
X103324819Y-46575237D02*
X103324819Y-46384761D01*
X103324819Y-46384761D02*
X103277200Y-46289523D01*
X103277200Y-46289523D02*
X103229580Y-46241904D01*
X103229580Y-46241904D02*
X103134342Y-46194285D01*
X103134342Y-46194285D02*
X102896247Y-46194285D01*
X102896247Y-46194285D02*
X102801009Y-46241904D01*
X102801009Y-46241904D02*
X102753390Y-46289523D01*
X102753390Y-46289523D02*
X102705771Y-46384761D01*
X102705771Y-46384761D02*
X102705771Y-46575237D01*
X102705771Y-46575237D02*
X102753390Y-46670475D01*
X102753390Y-46670475D02*
X102801009Y-46718094D01*
X102801009Y-46718094D02*
X102896247Y-46765713D01*
X66643333Y-20154819D02*
X66310000Y-19678628D01*
X66071905Y-20154819D02*
X66071905Y-19154819D01*
X66071905Y-19154819D02*
X66452857Y-19154819D01*
X66452857Y-19154819D02*
X66548095Y-19202438D01*
X66548095Y-19202438D02*
X66595714Y-19250057D01*
X66595714Y-19250057D02*
X66643333Y-19345295D01*
X66643333Y-19345295D02*
X66643333Y-19488152D01*
X66643333Y-19488152D02*
X66595714Y-19583390D01*
X66595714Y-19583390D02*
X66548095Y-19631009D01*
X66548095Y-19631009D02*
X66452857Y-19678628D01*
X66452857Y-19678628D02*
X66071905Y-19678628D01*
X66976667Y-19154819D02*
X67643333Y-20154819D01*
X67643333Y-19154819D02*
X66976667Y-20154819D01*
X68024286Y-20154819D02*
X68024286Y-19154819D01*
X68024286Y-19154819D02*
X68262381Y-19154819D01*
X68262381Y-19154819D02*
X68405238Y-19202438D01*
X68405238Y-19202438D02*
X68500476Y-19297676D01*
X68500476Y-19297676D02*
X68548095Y-19392914D01*
X68548095Y-19392914D02*
X68595714Y-19583390D01*
X68595714Y-19583390D02*
X68595714Y-19726247D01*
X68595714Y-19726247D02*
X68548095Y-19916723D01*
X68548095Y-19916723D02*
X68500476Y-20011961D01*
X68500476Y-20011961D02*
X68405238Y-20107200D01*
X68405238Y-20107200D02*
X68262381Y-20154819D01*
X68262381Y-20154819D02*
X68024286Y-20154819D01*
D11*
X21499318Y-62643332D02*
X22406461Y-62643332D01*
X22406461Y-62643332D02*
X22587889Y-62703809D01*
X22587889Y-62703809D02*
X22708842Y-62824761D01*
X22708842Y-62824761D02*
X22769318Y-63006190D01*
X22769318Y-63006190D02*
X22769318Y-63127142D01*
X21922651Y-61494285D02*
X22769318Y-61494285D01*
X21438842Y-61796666D02*
X22345984Y-62099047D01*
X22345984Y-62099047D02*
X22345984Y-61312856D01*
D10*
X67764819Y-47622857D02*
X67288628Y-47956190D01*
X67764819Y-48194285D02*
X66764819Y-48194285D01*
X66764819Y-48194285D02*
X66764819Y-47813333D01*
X66764819Y-47813333D02*
X66812438Y-47718095D01*
X66812438Y-47718095D02*
X66860057Y-47670476D01*
X66860057Y-47670476D02*
X66955295Y-47622857D01*
X66955295Y-47622857D02*
X67098152Y-47622857D01*
X67098152Y-47622857D02*
X67193390Y-47670476D01*
X67193390Y-47670476D02*
X67241009Y-47718095D01*
X67241009Y-47718095D02*
X67288628Y-47813333D01*
X67288628Y-47813333D02*
X67288628Y-48194285D01*
X67764819Y-46670476D02*
X67764819Y-47241904D01*
X67764819Y-46956190D02*
X66764819Y-46956190D01*
X66764819Y-46956190D02*
X66907676Y-47051428D01*
X66907676Y-47051428D02*
X67002914Y-47146666D01*
X67002914Y-47146666D02*
X67050533Y-47241904D01*
X66764819Y-45813333D02*
X66764819Y-46003809D01*
X66764819Y-46003809D02*
X66812438Y-46099047D01*
X66812438Y-46099047D02*
X66860057Y-46146666D01*
X66860057Y-46146666D02*
X67002914Y-46241904D01*
X67002914Y-46241904D02*
X67193390Y-46289523D01*
X67193390Y-46289523D02*
X67574342Y-46289523D01*
X67574342Y-46289523D02*
X67669580Y-46241904D01*
X67669580Y-46241904D02*
X67717200Y-46194285D01*
X67717200Y-46194285D02*
X67764819Y-46099047D01*
X67764819Y-46099047D02*
X67764819Y-45908571D01*
X67764819Y-45908571D02*
X67717200Y-45813333D01*
X67717200Y-45813333D02*
X67669580Y-45765714D01*
X67669580Y-45765714D02*
X67574342Y-45718095D01*
X67574342Y-45718095D02*
X67336247Y-45718095D01*
X67336247Y-45718095D02*
X67241009Y-45765714D01*
X67241009Y-45765714D02*
X67193390Y-45813333D01*
X67193390Y-45813333D02*
X67145771Y-45908571D01*
X67145771Y-45908571D02*
X67145771Y-46099047D01*
X67145771Y-46099047D02*
X67193390Y-46194285D01*
X67193390Y-46194285D02*
X67241009Y-46241904D01*
X67241009Y-46241904D02*
X67336247Y-46289523D01*
X81580057Y-58505238D02*
X81532438Y-58600476D01*
X81532438Y-58600476D02*
X81437200Y-58695714D01*
X81437200Y-58695714D02*
X81294342Y-58838571D01*
X81294342Y-58838571D02*
X81246723Y-58933809D01*
X81246723Y-58933809D02*
X81246723Y-59029047D01*
X81484819Y-58981428D02*
X81437200Y-59076666D01*
X81437200Y-59076666D02*
X81341961Y-59171904D01*
X81341961Y-59171904D02*
X81151485Y-59219523D01*
X81151485Y-59219523D02*
X80818152Y-59219523D01*
X80818152Y-59219523D02*
X80627676Y-59171904D01*
X80627676Y-59171904D02*
X80532438Y-59076666D01*
X80532438Y-59076666D02*
X80484819Y-58981428D01*
X80484819Y-58981428D02*
X80484819Y-58790952D01*
X80484819Y-58790952D02*
X80532438Y-58695714D01*
X80532438Y-58695714D02*
X80627676Y-58600476D01*
X80627676Y-58600476D02*
X80818152Y-58552857D01*
X80818152Y-58552857D02*
X81151485Y-58552857D01*
X81151485Y-58552857D02*
X81341961Y-58600476D01*
X81341961Y-58600476D02*
X81437200Y-58695714D01*
X81437200Y-58695714D02*
X81484819Y-58790952D01*
X81484819Y-58790952D02*
X81484819Y-58981428D01*
X80818152Y-57695714D02*
X81484819Y-57695714D01*
X80437200Y-57933809D02*
X81151485Y-58171904D01*
X81151485Y-58171904D02*
X81151485Y-57552857D01*
X79316842Y-55210428D02*
X79359700Y-55253285D01*
X79359700Y-55253285D02*
X79402557Y-55381857D01*
X79402557Y-55381857D02*
X79402557Y-55467571D01*
X79402557Y-55467571D02*
X79359700Y-55596142D01*
X79359700Y-55596142D02*
X79273985Y-55681857D01*
X79273985Y-55681857D02*
X79188271Y-55724714D01*
X79188271Y-55724714D02*
X79016842Y-55767571D01*
X79016842Y-55767571D02*
X78888271Y-55767571D01*
X78888271Y-55767571D02*
X78716842Y-55724714D01*
X78716842Y-55724714D02*
X78631128Y-55681857D01*
X78631128Y-55681857D02*
X78545414Y-55596142D01*
X78545414Y-55596142D02*
X78502557Y-55467571D01*
X78502557Y-55467571D02*
X78502557Y-55381857D01*
X78502557Y-55381857D02*
X78545414Y-55253285D01*
X78545414Y-55253285D02*
X78588271Y-55210428D01*
X78931128Y-61523857D02*
X78931128Y-61223857D01*
X79402557Y-61095285D02*
X79402557Y-61523857D01*
X79402557Y-61523857D02*
X78502557Y-61523857D01*
X78502557Y-61523857D02*
X78502557Y-61095285D01*
X78931128Y-58345714D02*
X78973985Y-58217142D01*
X78973985Y-58217142D02*
X79016842Y-58174285D01*
X79016842Y-58174285D02*
X79102557Y-58131428D01*
X79102557Y-58131428D02*
X79231128Y-58131428D01*
X79231128Y-58131428D02*
X79316842Y-58174285D01*
X79316842Y-58174285D02*
X79359700Y-58217142D01*
X79359700Y-58217142D02*
X79402557Y-58302857D01*
X79402557Y-58302857D02*
X79402557Y-58645714D01*
X79402557Y-58645714D02*
X78502557Y-58645714D01*
X78502557Y-58645714D02*
X78502557Y-58345714D01*
X78502557Y-58345714D02*
X78545414Y-58260000D01*
X78545414Y-58260000D02*
X78588271Y-58217142D01*
X78588271Y-58217142D02*
X78673985Y-58174285D01*
X78673985Y-58174285D02*
X78759700Y-58174285D01*
X78759700Y-58174285D02*
X78845414Y-58217142D01*
X78845414Y-58217142D02*
X78888271Y-58260000D01*
X78888271Y-58260000D02*
X78931128Y-58345714D01*
X78931128Y-58345714D02*
X78931128Y-58645714D01*
D11*
X55456667Y-82509318D02*
X55456667Y-83416461D01*
X55456667Y-83416461D02*
X55396190Y-83597889D01*
X55396190Y-83597889D02*
X55275238Y-83718842D01*
X55275238Y-83718842D02*
X55093809Y-83779318D01*
X55093809Y-83779318D02*
X54972857Y-83779318D01*
X56726667Y-83779318D02*
X56000952Y-83779318D01*
X56363809Y-83779318D02*
X56363809Y-82509318D01*
X56363809Y-82509318D02*
X56242857Y-82690746D01*
X56242857Y-82690746D02*
X56121905Y-82811699D01*
X56121905Y-82811699D02*
X56000952Y-82872175D01*
D10*
X84274819Y-47622857D02*
X83798628Y-47956190D01*
X84274819Y-48194285D02*
X83274819Y-48194285D01*
X83274819Y-48194285D02*
X83274819Y-47813333D01*
X83274819Y-47813333D02*
X83322438Y-47718095D01*
X83322438Y-47718095D02*
X83370057Y-47670476D01*
X83370057Y-47670476D02*
X83465295Y-47622857D01*
X83465295Y-47622857D02*
X83608152Y-47622857D01*
X83608152Y-47622857D02*
X83703390Y-47670476D01*
X83703390Y-47670476D02*
X83751009Y-47718095D01*
X83751009Y-47718095D02*
X83798628Y-47813333D01*
X83798628Y-47813333D02*
X83798628Y-48194285D01*
X83370057Y-47241904D02*
X83322438Y-47194285D01*
X83322438Y-47194285D02*
X83274819Y-47099047D01*
X83274819Y-47099047D02*
X83274819Y-46860952D01*
X83274819Y-46860952D02*
X83322438Y-46765714D01*
X83322438Y-46765714D02*
X83370057Y-46718095D01*
X83370057Y-46718095D02*
X83465295Y-46670476D01*
X83465295Y-46670476D02*
X83560533Y-46670476D01*
X83560533Y-46670476D02*
X83703390Y-46718095D01*
X83703390Y-46718095D02*
X84274819Y-47289523D01*
X84274819Y-47289523D02*
X84274819Y-46670476D01*
X83274819Y-46051428D02*
X83274819Y-45956190D01*
X83274819Y-45956190D02*
X83322438Y-45860952D01*
X83322438Y-45860952D02*
X83370057Y-45813333D01*
X83370057Y-45813333D02*
X83465295Y-45765714D01*
X83465295Y-45765714D02*
X83655771Y-45718095D01*
X83655771Y-45718095D02*
X83893866Y-45718095D01*
X83893866Y-45718095D02*
X84084342Y-45765714D01*
X84084342Y-45765714D02*
X84179580Y-45813333D01*
X84179580Y-45813333D02*
X84227200Y-45860952D01*
X84227200Y-45860952D02*
X84274819Y-45956190D01*
X84274819Y-45956190D02*
X84274819Y-46051428D01*
X84274819Y-46051428D02*
X84227200Y-46146666D01*
X84227200Y-46146666D02*
X84179580Y-46194285D01*
X84179580Y-46194285D02*
X84084342Y-46241904D01*
X84084342Y-46241904D02*
X83893866Y-46289523D01*
X83893866Y-46289523D02*
X83655771Y-46289523D01*
X83655771Y-46289523D02*
X83465295Y-46241904D01*
X83465295Y-46241904D02*
X83370057Y-46194285D01*
X83370057Y-46194285D02*
X83322438Y-46146666D01*
X83322438Y-46146666D02*
X83274819Y-46051428D01*
X38459580Y-26296666D02*
X38507200Y-26344285D01*
X38507200Y-26344285D02*
X38554819Y-26487142D01*
X38554819Y-26487142D02*
X38554819Y-26582380D01*
X38554819Y-26582380D02*
X38507200Y-26725237D01*
X38507200Y-26725237D02*
X38411961Y-26820475D01*
X38411961Y-26820475D02*
X38316723Y-26868094D01*
X38316723Y-26868094D02*
X38126247Y-26915713D01*
X38126247Y-26915713D02*
X37983390Y-26915713D01*
X37983390Y-26915713D02*
X37792914Y-26868094D01*
X37792914Y-26868094D02*
X37697676Y-26820475D01*
X37697676Y-26820475D02*
X37602438Y-26725237D01*
X37602438Y-26725237D02*
X37554819Y-26582380D01*
X37554819Y-26582380D02*
X37554819Y-26487142D01*
X37554819Y-26487142D02*
X37602438Y-26344285D01*
X37602438Y-26344285D02*
X37650057Y-26296666D01*
X37650057Y-25915713D02*
X37602438Y-25868094D01*
X37602438Y-25868094D02*
X37554819Y-25772856D01*
X37554819Y-25772856D02*
X37554819Y-25534761D01*
X37554819Y-25534761D02*
X37602438Y-25439523D01*
X37602438Y-25439523D02*
X37650057Y-25391904D01*
X37650057Y-25391904D02*
X37745295Y-25344285D01*
X37745295Y-25344285D02*
X37840533Y-25344285D01*
X37840533Y-25344285D02*
X37983390Y-25391904D01*
X37983390Y-25391904D02*
X38554819Y-25963332D01*
X38554819Y-25963332D02*
X38554819Y-25344285D01*
X28448095Y-36484819D02*
X28448095Y-37294342D01*
X28448095Y-37294342D02*
X28495714Y-37389580D01*
X28495714Y-37389580D02*
X28543333Y-37437200D01*
X28543333Y-37437200D02*
X28638571Y-37484819D01*
X28638571Y-37484819D02*
X28829047Y-37484819D01*
X28829047Y-37484819D02*
X28924285Y-37437200D01*
X28924285Y-37437200D02*
X28971904Y-37389580D01*
X28971904Y-37389580D02*
X29019523Y-37294342D01*
X29019523Y-37294342D02*
X29019523Y-36484819D01*
X30019523Y-37484819D02*
X29448095Y-37484819D01*
X29733809Y-37484819D02*
X29733809Y-36484819D01*
X29733809Y-36484819D02*
X29638571Y-36627676D01*
X29638571Y-36627676D02*
X29543333Y-36722914D01*
X29543333Y-36722914D02*
X29448095Y-36770533D01*
X63954819Y-47632857D02*
X63478628Y-47966190D01*
X63954819Y-48204285D02*
X62954819Y-48204285D01*
X62954819Y-48204285D02*
X62954819Y-47823333D01*
X62954819Y-47823333D02*
X63002438Y-47728095D01*
X63002438Y-47728095D02*
X63050057Y-47680476D01*
X63050057Y-47680476D02*
X63145295Y-47632857D01*
X63145295Y-47632857D02*
X63288152Y-47632857D01*
X63288152Y-47632857D02*
X63383390Y-47680476D01*
X63383390Y-47680476D02*
X63431009Y-47728095D01*
X63431009Y-47728095D02*
X63478628Y-47823333D01*
X63478628Y-47823333D02*
X63478628Y-48204285D01*
X63954819Y-46680476D02*
X63954819Y-47251904D01*
X63954819Y-46966190D02*
X62954819Y-46966190D01*
X62954819Y-46966190D02*
X63097676Y-47061428D01*
X63097676Y-47061428D02*
X63192914Y-47156666D01*
X63192914Y-47156666D02*
X63240533Y-47251904D01*
X62954819Y-45775714D02*
X62954819Y-46251904D01*
X62954819Y-46251904D02*
X63431009Y-46299523D01*
X63431009Y-46299523D02*
X63383390Y-46251904D01*
X63383390Y-46251904D02*
X63335771Y-46156666D01*
X63335771Y-46156666D02*
X63335771Y-45918571D01*
X63335771Y-45918571D02*
X63383390Y-45823333D01*
X63383390Y-45823333D02*
X63431009Y-45775714D01*
X63431009Y-45775714D02*
X63526247Y-45728095D01*
X63526247Y-45728095D02*
X63764342Y-45728095D01*
X63764342Y-45728095D02*
X63859580Y-45775714D01*
X63859580Y-45775714D02*
X63907200Y-45823333D01*
X63907200Y-45823333D02*
X63954819Y-45918571D01*
X63954819Y-45918571D02*
X63954819Y-46156666D01*
X63954819Y-46156666D02*
X63907200Y-46251904D01*
X63907200Y-46251904D02*
X63859580Y-46299523D01*
X48714819Y-47622857D02*
X48238628Y-47956190D01*
X48714819Y-48194285D02*
X47714819Y-48194285D01*
X47714819Y-48194285D02*
X47714819Y-47813333D01*
X47714819Y-47813333D02*
X47762438Y-47718095D01*
X47762438Y-47718095D02*
X47810057Y-47670476D01*
X47810057Y-47670476D02*
X47905295Y-47622857D01*
X47905295Y-47622857D02*
X48048152Y-47622857D01*
X48048152Y-47622857D02*
X48143390Y-47670476D01*
X48143390Y-47670476D02*
X48191009Y-47718095D01*
X48191009Y-47718095D02*
X48238628Y-47813333D01*
X48238628Y-47813333D02*
X48238628Y-48194285D01*
X48714819Y-46670476D02*
X48714819Y-47241904D01*
X48714819Y-46956190D02*
X47714819Y-46956190D01*
X47714819Y-46956190D02*
X47857676Y-47051428D01*
X47857676Y-47051428D02*
X47952914Y-47146666D01*
X47952914Y-47146666D02*
X48000533Y-47241904D01*
X47714819Y-46051428D02*
X47714819Y-45956190D01*
X47714819Y-45956190D02*
X47762438Y-45860952D01*
X47762438Y-45860952D02*
X47810057Y-45813333D01*
X47810057Y-45813333D02*
X47905295Y-45765714D01*
X47905295Y-45765714D02*
X48095771Y-45718095D01*
X48095771Y-45718095D02*
X48333866Y-45718095D01*
X48333866Y-45718095D02*
X48524342Y-45765714D01*
X48524342Y-45765714D02*
X48619580Y-45813333D01*
X48619580Y-45813333D02*
X48667200Y-45860952D01*
X48667200Y-45860952D02*
X48714819Y-45956190D01*
X48714819Y-45956190D02*
X48714819Y-46051428D01*
X48714819Y-46051428D02*
X48667200Y-46146666D01*
X48667200Y-46146666D02*
X48619580Y-46194285D01*
X48619580Y-46194285D02*
X48524342Y-46241904D01*
X48524342Y-46241904D02*
X48333866Y-46289523D01*
X48333866Y-46289523D02*
X48095771Y-46289523D01*
X48095771Y-46289523D02*
X47905295Y-46241904D01*
X47905295Y-46241904D02*
X47810057Y-46194285D01*
X47810057Y-46194285D02*
X47762438Y-46146666D01*
X47762438Y-46146666D02*
X47714819Y-46051428D01*
X37284819Y-47622857D02*
X36808628Y-47956190D01*
X37284819Y-48194285D02*
X36284819Y-48194285D01*
X36284819Y-48194285D02*
X36284819Y-47813333D01*
X36284819Y-47813333D02*
X36332438Y-47718095D01*
X36332438Y-47718095D02*
X36380057Y-47670476D01*
X36380057Y-47670476D02*
X36475295Y-47622857D01*
X36475295Y-47622857D02*
X36618152Y-47622857D01*
X36618152Y-47622857D02*
X36713390Y-47670476D01*
X36713390Y-47670476D02*
X36761009Y-47718095D01*
X36761009Y-47718095D02*
X36808628Y-47813333D01*
X36808628Y-47813333D02*
X36808628Y-48194285D01*
X37284819Y-46670476D02*
X37284819Y-47241904D01*
X37284819Y-46956190D02*
X36284819Y-46956190D01*
X36284819Y-46956190D02*
X36427676Y-47051428D01*
X36427676Y-47051428D02*
X36522914Y-47146666D01*
X36522914Y-47146666D02*
X36570533Y-47241904D01*
X36284819Y-46337142D02*
X36284819Y-45718095D01*
X36284819Y-45718095D02*
X36665771Y-46051428D01*
X36665771Y-46051428D02*
X36665771Y-45908571D01*
X36665771Y-45908571D02*
X36713390Y-45813333D01*
X36713390Y-45813333D02*
X36761009Y-45765714D01*
X36761009Y-45765714D02*
X36856247Y-45718095D01*
X36856247Y-45718095D02*
X37094342Y-45718095D01*
X37094342Y-45718095D02*
X37189580Y-45765714D01*
X37189580Y-45765714D02*
X37237200Y-45813333D01*
X37237200Y-45813333D02*
X37284819Y-45908571D01*
X37284819Y-45908571D02*
X37284819Y-46194285D01*
X37284819Y-46194285D02*
X37237200Y-46289523D01*
X37237200Y-46289523D02*
X37189580Y-46337142D01*
D11*
X78316667Y-82509318D02*
X78316667Y-83416461D01*
X78316667Y-83416461D02*
X78256190Y-83597889D01*
X78256190Y-83597889D02*
X78135238Y-83718842D01*
X78135238Y-83718842D02*
X77953809Y-83779318D01*
X77953809Y-83779318D02*
X77832857Y-83779318D01*
X78860952Y-82630270D02*
X78921428Y-82569794D01*
X78921428Y-82569794D02*
X79042381Y-82509318D01*
X79042381Y-82509318D02*
X79344762Y-82509318D01*
X79344762Y-82509318D02*
X79465714Y-82569794D01*
X79465714Y-82569794D02*
X79526190Y-82630270D01*
X79526190Y-82630270D02*
X79586667Y-82751222D01*
X79586667Y-82751222D02*
X79586667Y-82872175D01*
X79586667Y-82872175D02*
X79526190Y-83053603D01*
X79526190Y-83053603D02*
X78800476Y-83779318D01*
X78800476Y-83779318D02*
X79586667Y-83779318D01*
D10*
X62530057Y-58505238D02*
X62482438Y-58600476D01*
X62482438Y-58600476D02*
X62387200Y-58695714D01*
X62387200Y-58695714D02*
X62244342Y-58838571D01*
X62244342Y-58838571D02*
X62196723Y-58933809D01*
X62196723Y-58933809D02*
X62196723Y-59029047D01*
X62434819Y-58981428D02*
X62387200Y-59076666D01*
X62387200Y-59076666D02*
X62291961Y-59171904D01*
X62291961Y-59171904D02*
X62101485Y-59219523D01*
X62101485Y-59219523D02*
X61768152Y-59219523D01*
X61768152Y-59219523D02*
X61577676Y-59171904D01*
X61577676Y-59171904D02*
X61482438Y-59076666D01*
X61482438Y-59076666D02*
X61434819Y-58981428D01*
X61434819Y-58981428D02*
X61434819Y-58790952D01*
X61434819Y-58790952D02*
X61482438Y-58695714D01*
X61482438Y-58695714D02*
X61577676Y-58600476D01*
X61577676Y-58600476D02*
X61768152Y-58552857D01*
X61768152Y-58552857D02*
X62101485Y-58552857D01*
X62101485Y-58552857D02*
X62291961Y-58600476D01*
X62291961Y-58600476D02*
X62387200Y-58695714D01*
X62387200Y-58695714D02*
X62434819Y-58790952D01*
X62434819Y-58790952D02*
X62434819Y-58981428D01*
X61530057Y-58171904D02*
X61482438Y-58124285D01*
X61482438Y-58124285D02*
X61434819Y-58029047D01*
X61434819Y-58029047D02*
X61434819Y-57790952D01*
X61434819Y-57790952D02*
X61482438Y-57695714D01*
X61482438Y-57695714D02*
X61530057Y-57648095D01*
X61530057Y-57648095D02*
X61625295Y-57600476D01*
X61625295Y-57600476D02*
X61720533Y-57600476D01*
X61720533Y-57600476D02*
X61863390Y-57648095D01*
X61863390Y-57648095D02*
X62434819Y-58219523D01*
X62434819Y-58219523D02*
X62434819Y-57600476D01*
X60266842Y-55210428D02*
X60309700Y-55253285D01*
X60309700Y-55253285D02*
X60352557Y-55381857D01*
X60352557Y-55381857D02*
X60352557Y-55467571D01*
X60352557Y-55467571D02*
X60309700Y-55596142D01*
X60309700Y-55596142D02*
X60223985Y-55681857D01*
X60223985Y-55681857D02*
X60138271Y-55724714D01*
X60138271Y-55724714D02*
X59966842Y-55767571D01*
X59966842Y-55767571D02*
X59838271Y-55767571D01*
X59838271Y-55767571D02*
X59666842Y-55724714D01*
X59666842Y-55724714D02*
X59581128Y-55681857D01*
X59581128Y-55681857D02*
X59495414Y-55596142D01*
X59495414Y-55596142D02*
X59452557Y-55467571D01*
X59452557Y-55467571D02*
X59452557Y-55381857D01*
X59452557Y-55381857D02*
X59495414Y-55253285D01*
X59495414Y-55253285D02*
X59538271Y-55210428D01*
X59881128Y-58345714D02*
X59923985Y-58217142D01*
X59923985Y-58217142D02*
X59966842Y-58174285D01*
X59966842Y-58174285D02*
X60052557Y-58131428D01*
X60052557Y-58131428D02*
X60181128Y-58131428D01*
X60181128Y-58131428D02*
X60266842Y-58174285D01*
X60266842Y-58174285D02*
X60309700Y-58217142D01*
X60309700Y-58217142D02*
X60352557Y-58302857D01*
X60352557Y-58302857D02*
X60352557Y-58645714D01*
X60352557Y-58645714D02*
X59452557Y-58645714D01*
X59452557Y-58645714D02*
X59452557Y-58345714D01*
X59452557Y-58345714D02*
X59495414Y-58260000D01*
X59495414Y-58260000D02*
X59538271Y-58217142D01*
X59538271Y-58217142D02*
X59623985Y-58174285D01*
X59623985Y-58174285D02*
X59709700Y-58174285D01*
X59709700Y-58174285D02*
X59795414Y-58217142D01*
X59795414Y-58217142D02*
X59838271Y-58260000D01*
X59838271Y-58260000D02*
X59881128Y-58345714D01*
X59881128Y-58345714D02*
X59881128Y-58645714D01*
X59881128Y-61523857D02*
X59881128Y-61223857D01*
X60352557Y-61095285D02*
X60352557Y-61523857D01*
X60352557Y-61523857D02*
X59452557Y-61523857D01*
X59452557Y-61523857D02*
X59452557Y-61095285D01*
D12*
%TO.C,R12*%
X41910000Y-44186000D02*
X41910000Y-45583000D01*
X41910000Y-45583000D02*
X42037000Y-45710000D01*
X41910000Y-48377000D02*
X42037000Y-48250000D01*
X41910000Y-49774000D02*
X41910000Y-48377000D01*
X42037000Y-45710000D02*
X42037000Y-46980000D01*
X42037000Y-48250000D02*
X42037000Y-46980000D01*
X42291000Y-43805000D02*
X41910000Y-44186000D01*
X42291000Y-43805000D02*
X44069000Y-43805000D01*
X42291000Y-50155000D02*
X41910000Y-49774000D01*
X42291000Y-50155000D02*
X44069000Y-50155000D01*
X43180000Y-43805000D02*
X43180000Y-42916000D01*
X43180000Y-50155000D02*
X43180000Y-51044000D01*
X44069000Y-43805000D02*
X44450000Y-44186000D01*
X44069000Y-50155000D02*
X44450000Y-49774000D01*
X44323000Y-45710000D02*
X44323000Y-46980000D01*
X44323000Y-48250000D02*
X44323000Y-46980000D01*
X44450000Y-44186000D02*
X44450000Y-45583000D01*
X44450000Y-45583000D02*
X44323000Y-45710000D01*
X44450000Y-48377000D02*
X44323000Y-48250000D01*
X44450000Y-49774000D02*
X44450000Y-48377000D01*
D13*
%TO.C,J5*%
X13880000Y-75740000D02*
X13880000Y-91240000D01*
X13880000Y-91240000D02*
X34380000Y-91240000D01*
X17130000Y-75740000D02*
X13880000Y-75740000D01*
X34380000Y-75740000D02*
X31130000Y-75740000D01*
X34380000Y-91240000D02*
X34380000Y-75740000D01*
D14*
X34930000Y-78740000D02*
X34930000Y-78740000D01*
X35130000Y-78740000D02*
X35130000Y-78740000D01*
X34930000Y-78740000D02*
G75*
G02*
X35130000Y-78740000I100000J0D01*
G01*
X35130000Y-78740000D02*
G75*
G02*
X34930000Y-78740000I-100000J0D01*
G01*
D13*
%TO.C,J3*%
X91350000Y-75730000D02*
X91350000Y-91230000D01*
X91350000Y-91230000D02*
X111850000Y-91230000D01*
X94600000Y-75730000D02*
X91350000Y-75730000D01*
X111850000Y-75730000D02*
X108600000Y-75730000D01*
X111850000Y-91230000D02*
X111850000Y-75730000D01*
D14*
X112400000Y-78730000D02*
X112400000Y-78730000D01*
X112600000Y-78730000D02*
X112600000Y-78730000D01*
X112400000Y-78730000D02*
G75*
G02*
X112600000Y-78730000I100000J0D01*
G01*
X112600000Y-78730000D02*
G75*
G02*
X112400000Y-78730000I-100000J0D01*
G01*
D12*
%TO.C,R3*%
X90170000Y-44186000D02*
X90170000Y-45583000D01*
X90170000Y-45583000D02*
X90297000Y-45710000D01*
X90170000Y-48377000D02*
X90297000Y-48250000D01*
X90170000Y-49774000D02*
X90170000Y-48377000D01*
X90297000Y-45710000D02*
X90297000Y-46980000D01*
X90297000Y-48250000D02*
X90297000Y-46980000D01*
X90551000Y-43805000D02*
X90170000Y-44186000D01*
X90551000Y-43805000D02*
X92329000Y-43805000D01*
X90551000Y-50155000D02*
X90170000Y-49774000D01*
X90551000Y-50155000D02*
X92329000Y-50155000D01*
X91440000Y-43805000D02*
X91440000Y-42916000D01*
X91440000Y-50155000D02*
X91440000Y-51044000D01*
X92329000Y-43805000D02*
X92710000Y-44186000D01*
X92329000Y-50155000D02*
X92710000Y-49774000D01*
X92583000Y-45710000D02*
X92583000Y-46980000D01*
X92583000Y-48250000D02*
X92583000Y-46980000D01*
X92710000Y-44186000D02*
X92710000Y-45583000D01*
X92710000Y-45583000D02*
X92583000Y-45710000D01*
X92710000Y-48377000D02*
X92583000Y-48250000D01*
X92710000Y-49774000D02*
X92710000Y-48377000D01*
%TO.C,U2*%
X48220000Y-14510000D02*
X48220000Y-19151000D01*
X48220000Y-14510000D02*
X58460000Y-14510000D01*
X48220000Y-16020000D02*
X58460000Y-16020000D01*
X48220000Y-19151000D02*
X58460000Y-19151000D01*
X51490000Y-14510000D02*
X51490000Y-16020000D01*
X55191000Y-14510000D02*
X55191000Y-16020000D01*
X58460000Y-14510000D02*
X58460000Y-19151000D01*
%TO.C,Q3*%
X65460000Y-56610000D02*
X65460000Y-60210000D01*
X65460000Y-56610000D02*
G75*
G02*
X66187205Y-56085816I1850000J-1800000D01*
G01*
X66187205Y-60734184D02*
G75*
G02*
X65460000Y-60210000I1122795J2324184D01*
G01*
X68408807Y-56053600D02*
G75*
G02*
X69910000Y-58410000I-1098807J-2356400D01*
G01*
X69910000Y-58410000D02*
G75*
G02*
X68408807Y-60766400I-2600000J0D01*
G01*
%TO.C,R19*%
X78740000Y-44186000D02*
X78740000Y-45583000D01*
X78740000Y-45583000D02*
X78867000Y-45710000D01*
X78740000Y-48377000D02*
X78867000Y-48250000D01*
X78740000Y-49774000D02*
X78740000Y-48377000D01*
X78867000Y-45710000D02*
X78867000Y-46980000D01*
X78867000Y-48250000D02*
X78867000Y-46980000D01*
X79121000Y-43805000D02*
X78740000Y-44186000D01*
X79121000Y-43805000D02*
X80899000Y-43805000D01*
X79121000Y-50155000D02*
X78740000Y-49774000D01*
X79121000Y-50155000D02*
X80899000Y-50155000D01*
X80010000Y-43805000D02*
X80010000Y-42916000D01*
X80010000Y-50155000D02*
X80010000Y-51044000D01*
X80899000Y-43805000D02*
X81280000Y-44186000D01*
X80899000Y-50155000D02*
X81280000Y-49774000D01*
X81153000Y-45710000D02*
X81153000Y-46980000D01*
X81153000Y-48250000D02*
X81153000Y-46980000D01*
X81280000Y-44186000D02*
X81280000Y-45583000D01*
X81280000Y-45583000D02*
X81153000Y-45710000D01*
X81280000Y-48377000D02*
X81153000Y-48250000D01*
X81280000Y-49774000D02*
X81280000Y-48377000D01*
%TO.C,C1*%
X70060000Y-29493000D02*
X70060000Y-28927000D01*
X70100000Y-29727000D02*
X70100000Y-28693000D01*
X70140000Y-29887000D02*
X70140000Y-28533000D01*
X70180000Y-30015000D02*
X70180000Y-28405000D01*
X70220000Y-30124000D02*
X70220000Y-28296000D01*
X70260000Y-30221000D02*
X70260000Y-28199000D01*
X70300000Y-30308000D02*
X70300000Y-28112000D01*
X70340000Y-30387000D02*
X70340000Y-28033000D01*
X70380000Y-30461000D02*
X70380000Y-27959000D01*
X70420000Y-30529000D02*
X70420000Y-27891000D01*
X70460000Y-30593000D02*
X70460000Y-27827000D01*
X70500000Y-30653000D02*
X70500000Y-27767000D01*
X70540000Y-30709000D02*
X70540000Y-27711000D01*
X70580000Y-30763000D02*
X70580000Y-27657000D01*
X70620000Y-30814000D02*
X70620000Y-27606000D01*
X70660000Y-28170000D02*
X70660000Y-27558000D01*
X70660000Y-30862000D02*
X70660000Y-30250000D01*
X70700000Y-28170000D02*
X70700000Y-27511000D01*
X70700000Y-30909000D02*
X70700000Y-30250000D01*
X70740000Y-28170000D02*
X70740000Y-27467000D01*
X70740000Y-30953000D02*
X70740000Y-30250000D01*
X70780000Y-28170000D02*
X70780000Y-27425000D01*
X70780000Y-30995000D02*
X70780000Y-30250000D01*
X70820000Y-28170000D02*
X70820000Y-27385000D01*
X70820000Y-31035000D02*
X70820000Y-30250000D01*
X70860000Y-28170000D02*
X70860000Y-27346000D01*
X70860000Y-31074000D02*
X70860000Y-30250000D01*
X70900000Y-28170000D02*
X70900000Y-27309000D01*
X70900000Y-31111000D02*
X70900000Y-30250000D01*
X70940000Y-28170000D02*
X70940000Y-27274000D01*
X70940000Y-31146000D02*
X70940000Y-30250000D01*
X70980000Y-28170000D02*
X70980000Y-27240000D01*
X70980000Y-31180000D02*
X70980000Y-30250000D01*
X71020000Y-28170000D02*
X71020000Y-27207000D01*
X71020000Y-31213000D02*
X71020000Y-30250000D01*
X71060000Y-28170000D02*
X71060000Y-27175000D01*
X71060000Y-31245000D02*
X71060000Y-30250000D01*
X71100000Y-28170000D02*
X71100000Y-27145000D01*
X71100000Y-31275000D02*
X71100000Y-30250000D01*
X71140000Y-28170000D02*
X71140000Y-27116000D01*
X71140000Y-31304000D02*
X71140000Y-30250000D01*
X71180000Y-28170000D02*
X71180000Y-27088000D01*
X71180000Y-31332000D02*
X71180000Y-30250000D01*
X71220000Y-28170000D02*
X71220000Y-27061000D01*
X71220000Y-31359000D02*
X71220000Y-30250000D01*
X71260000Y-28170000D02*
X71260000Y-27035000D01*
X71260000Y-31385000D02*
X71260000Y-30250000D01*
X71300000Y-28170000D02*
X71300000Y-27011000D01*
X71300000Y-31409000D02*
X71300000Y-30250000D01*
X71340000Y-28170000D02*
X71340000Y-26987000D01*
X71340000Y-31433000D02*
X71340000Y-30250000D01*
X71380000Y-28170000D02*
X71380000Y-26964000D01*
X71380000Y-31456000D02*
X71380000Y-30250000D01*
X71420000Y-28170000D02*
X71420000Y-26942000D01*
X71420000Y-31478000D02*
X71420000Y-30250000D01*
X71460000Y-28170000D02*
X71460000Y-26921000D01*
X71460000Y-31499000D02*
X71460000Y-30250000D01*
X71500000Y-28170000D02*
X71500000Y-26901000D01*
X71500000Y-31519000D02*
X71500000Y-30250000D01*
X71540000Y-28170000D02*
X71540000Y-26881000D01*
X71540000Y-31539000D02*
X71540000Y-30250000D01*
X71580000Y-28170000D02*
X71580000Y-26863000D01*
X71580000Y-31557000D02*
X71580000Y-30250000D01*
X71620000Y-28170000D02*
X71620000Y-26845000D01*
X71620000Y-31575000D02*
X71620000Y-30250000D01*
X71660000Y-28170000D02*
X71660000Y-26828000D01*
X71660000Y-31592000D02*
X71660000Y-30250000D01*
X71700000Y-28170000D02*
X71700000Y-26812000D01*
X71700000Y-31608000D02*
X71700000Y-30250000D01*
X71740000Y-28170000D02*
X71740000Y-26797000D01*
X71740000Y-31623000D02*
X71740000Y-30250000D01*
X71780000Y-28170000D02*
X71780000Y-26782000D01*
X71780000Y-31638000D02*
X71780000Y-30250000D01*
X71820000Y-28170000D02*
X71820000Y-26768000D01*
X71820000Y-31652000D02*
X71820000Y-30250000D01*
X71860000Y-28170000D02*
X71860000Y-26755000D01*
X71860000Y-31665000D02*
X71860000Y-30250000D01*
X71900000Y-28170000D02*
X71900000Y-26743000D01*
X71900000Y-31677000D02*
X71900000Y-30250000D01*
X71940000Y-28170000D02*
X71940000Y-26731000D01*
X71940000Y-31689000D02*
X71940000Y-30250000D01*
X71980000Y-28170000D02*
X71980000Y-26720000D01*
X71980000Y-31700000D02*
X71980000Y-30250000D01*
X72020000Y-28170000D02*
X72020000Y-26709000D01*
X72020000Y-31711000D02*
X72020000Y-30250000D01*
X72060000Y-28170000D02*
X72060000Y-26700000D01*
X72060000Y-31720000D02*
X72060000Y-30250000D01*
X72100000Y-28170000D02*
X72100000Y-26691000D01*
X72100000Y-31729000D02*
X72100000Y-30250000D01*
X72140000Y-28170000D02*
X72140000Y-26682000D01*
X72140000Y-31738000D02*
X72140000Y-30250000D01*
X72180000Y-28170000D02*
X72180000Y-26674000D01*
X72180000Y-31746000D02*
X72180000Y-30250000D01*
X72220000Y-28170000D02*
X72220000Y-26667000D01*
X72220000Y-31753000D02*
X72220000Y-30250000D01*
X72260000Y-28170000D02*
X72260000Y-26661000D01*
X72260000Y-31759000D02*
X72260000Y-30250000D01*
X72300000Y-28170000D02*
X72300000Y-26655000D01*
X72300000Y-31765000D02*
X72300000Y-30250000D01*
X72340000Y-28170000D02*
X72340000Y-26650000D01*
X72340000Y-31770000D02*
X72340000Y-30250000D01*
X72380000Y-28170000D02*
X72380000Y-26645000D01*
X72380000Y-31775000D02*
X72380000Y-30250000D01*
X72420000Y-28170000D02*
X72420000Y-26641000D01*
X72420000Y-31779000D02*
X72420000Y-30250000D01*
X72460000Y-28170000D02*
X72460000Y-26638000D01*
X72460000Y-31782000D02*
X72460000Y-30250000D01*
X72500000Y-28170000D02*
X72500000Y-26635000D01*
X72500000Y-31785000D02*
X72500000Y-30250000D01*
X72540000Y-28170000D02*
X72540000Y-26633000D01*
X72540000Y-31787000D02*
X72540000Y-30250000D01*
X72580000Y-28170000D02*
X72580000Y-26631000D01*
X72580000Y-31789000D02*
X72580000Y-30250000D01*
X72620000Y-28170000D02*
X72620000Y-26630000D01*
X72620000Y-31790000D02*
X72620000Y-30250000D01*
X72660000Y-28170000D02*
X72660000Y-26630000D01*
X72660000Y-31790000D02*
X72660000Y-30250000D01*
X75214775Y-30935000D02*
X75214775Y-30435000D01*
X75464775Y-30685000D02*
X74964775Y-30685000D01*
X75280000Y-29210000D02*
G75*
G02*
X70040000Y-29210000I-2620000J0D01*
G01*
X70040000Y-29210000D02*
G75*
G02*
X75280000Y-29210000I2620000J0D01*
G01*
%TO.C,R1*%
X92710000Y-25136000D02*
X92710000Y-26533000D01*
X92710000Y-26533000D02*
X92837000Y-26660000D01*
X92710000Y-29327000D02*
X92837000Y-29200000D01*
X92710000Y-30724000D02*
X92710000Y-29327000D01*
X92837000Y-26660000D02*
X92837000Y-27930000D01*
X92837000Y-29200000D02*
X92837000Y-27930000D01*
X93091000Y-24755000D02*
X92710000Y-25136000D01*
X93091000Y-24755000D02*
X94869000Y-24755000D01*
X93091000Y-31105000D02*
X92710000Y-30724000D01*
X93091000Y-31105000D02*
X94869000Y-31105000D01*
X93980000Y-24755000D02*
X93980000Y-23866000D01*
X93980000Y-31105000D02*
X93980000Y-31994000D01*
X94869000Y-24755000D02*
X95250000Y-25136000D01*
X94869000Y-31105000D02*
X95250000Y-30724000D01*
X95123000Y-26660000D02*
X95123000Y-27930000D01*
X95123000Y-29200000D02*
X95123000Y-27930000D01*
X95250000Y-25136000D02*
X95250000Y-26533000D01*
X95250000Y-26533000D02*
X95123000Y-26660000D01*
X95250000Y-29327000D02*
X95123000Y-29200000D01*
X95250000Y-30724000D02*
X95250000Y-29327000D01*
%TO.C,R11*%
X50800000Y-44186000D02*
X50800000Y-45583000D01*
X50800000Y-45583000D02*
X50927000Y-45710000D01*
X50800000Y-48377000D02*
X50927000Y-48250000D01*
X50800000Y-49774000D02*
X50800000Y-48377000D01*
X50927000Y-45710000D02*
X50927000Y-46980000D01*
X50927000Y-48250000D02*
X50927000Y-46980000D01*
X51181000Y-43805000D02*
X50800000Y-44186000D01*
X51181000Y-43805000D02*
X52959000Y-43805000D01*
X51181000Y-50155000D02*
X50800000Y-49774000D01*
X51181000Y-50155000D02*
X52959000Y-50155000D01*
X52070000Y-43805000D02*
X52070000Y-42916000D01*
X52070000Y-50155000D02*
X52070000Y-51044000D01*
X52959000Y-43805000D02*
X53340000Y-44186000D01*
X52959000Y-50155000D02*
X53340000Y-49774000D01*
X53213000Y-45710000D02*
X53213000Y-46980000D01*
X53213000Y-48250000D02*
X53213000Y-46980000D01*
X53340000Y-44186000D02*
X53340000Y-45583000D01*
X53340000Y-45583000D02*
X53213000Y-45710000D01*
X53340000Y-48377000D02*
X53213000Y-48250000D01*
X53340000Y-49774000D02*
X53340000Y-48377000D01*
%TO.C,R4*%
X93980000Y-44186000D02*
X93980000Y-45583000D01*
X93980000Y-45583000D02*
X94107000Y-45710000D01*
X93980000Y-48377000D02*
X94107000Y-48250000D01*
X93980000Y-49774000D02*
X93980000Y-48377000D01*
X94107000Y-45710000D02*
X94107000Y-46980000D01*
X94107000Y-48250000D02*
X94107000Y-46980000D01*
X94361000Y-43805000D02*
X93980000Y-44186000D01*
X94361000Y-50155000D02*
X93980000Y-49774000D01*
X95250000Y-43805000D02*
X95250000Y-42916000D01*
X95250000Y-50155000D02*
X95250000Y-51044000D01*
X96139000Y-43805000D02*
X94361000Y-43805000D01*
X96139000Y-43805000D02*
X96520000Y-44186000D01*
X96139000Y-50155000D02*
X94361000Y-50155000D01*
X96139000Y-50155000D02*
X96520000Y-49774000D01*
X96393000Y-45710000D02*
X96393000Y-46980000D01*
X96393000Y-48250000D02*
X96393000Y-46980000D01*
X96520000Y-44186000D02*
X96520000Y-45583000D01*
X96520000Y-45583000D02*
X96393000Y-45710000D01*
X96520000Y-48377000D02*
X96393000Y-48250000D01*
X96520000Y-49774000D02*
X96520000Y-48377000D01*
%TO.C,R7*%
X105410000Y-44186000D02*
X105410000Y-45583000D01*
X105410000Y-45583000D02*
X105537000Y-45710000D01*
X105410000Y-48377000D02*
X105537000Y-48250000D01*
X105410000Y-49774000D02*
X105410000Y-48377000D01*
X105537000Y-45710000D02*
X105537000Y-46980000D01*
X105537000Y-48250000D02*
X105537000Y-46980000D01*
X105791000Y-43805000D02*
X105410000Y-44186000D01*
X105791000Y-43805000D02*
X107569000Y-43805000D01*
X105791000Y-50155000D02*
X105410000Y-49774000D01*
X105791000Y-50155000D02*
X107569000Y-50155000D01*
X106680000Y-43805000D02*
X106680000Y-42916000D01*
X106680000Y-50155000D02*
X106680000Y-51044000D01*
X107569000Y-43805000D02*
X107950000Y-44186000D01*
X107569000Y-50155000D02*
X107950000Y-49774000D01*
X107823000Y-45710000D02*
X107823000Y-46980000D01*
X107823000Y-48250000D02*
X107823000Y-46980000D01*
X107950000Y-44186000D02*
X107950000Y-45583000D01*
X107950000Y-45583000D02*
X107823000Y-45710000D01*
X107950000Y-48377000D02*
X107823000Y-48250000D01*
X107950000Y-49774000D02*
X107950000Y-48377000D01*
%TO.C,C3*%
X44350000Y-16910000D02*
X44350000Y-21150000D01*
X45150000Y-16910000D02*
X44350000Y-16910000D01*
X45150000Y-21150000D02*
X44350000Y-21150000D01*
X47090000Y-16910000D02*
X46290000Y-16910000D01*
X47090000Y-16910000D02*
X47090000Y-21150000D01*
X47090000Y-21150000D02*
X46290000Y-21150000D01*
%TO.C,R8*%
X109220000Y-44186000D02*
X109220000Y-45583000D01*
X109220000Y-45583000D02*
X109347000Y-45710000D01*
X109220000Y-48377000D02*
X109347000Y-48250000D01*
X109220000Y-49774000D02*
X109220000Y-48377000D01*
X109347000Y-45710000D02*
X109347000Y-46980000D01*
X109347000Y-48250000D02*
X109347000Y-46980000D01*
X109601000Y-43805000D02*
X109220000Y-44186000D01*
X109601000Y-50155000D02*
X109220000Y-49774000D01*
X110490000Y-43805000D02*
X110490000Y-42916000D01*
X110490000Y-50155000D02*
X110490000Y-51044000D01*
X111379000Y-43805000D02*
X109601000Y-43805000D01*
X111379000Y-43805000D02*
X111760000Y-44186000D01*
X111379000Y-50155000D02*
X109601000Y-50155000D01*
X111379000Y-50155000D02*
X111760000Y-49774000D01*
X111633000Y-45710000D02*
X111633000Y-46980000D01*
X111633000Y-48250000D02*
X111633000Y-46980000D01*
X111760000Y-44186000D02*
X111760000Y-45583000D01*
X111760000Y-45583000D02*
X111633000Y-45710000D01*
X111760000Y-48377000D02*
X111633000Y-48250000D01*
X111760000Y-49774000D02*
X111760000Y-48377000D01*
%TO.C,C4*%
X59590000Y-16910000D02*
X59590000Y-21150000D01*
X60390000Y-16910000D02*
X59590000Y-16910000D01*
X60390000Y-21150000D02*
X59590000Y-21150000D01*
X62330000Y-16910000D02*
X61530000Y-16910000D01*
X62330000Y-16910000D02*
X62330000Y-21150000D01*
X62330000Y-21150000D02*
X61530000Y-21150000D01*
%TO.C,D1*%
X100480000Y-25810000D02*
X100480000Y-30050000D01*
X100480000Y-30050000D02*
X102720000Y-30050000D01*
X101600000Y-23890000D02*
X101600000Y-25810000D01*
X101600000Y-31970000D02*
X101600000Y-30050000D01*
X102720000Y-25810000D02*
X100480000Y-25810000D01*
X102720000Y-26410000D02*
X100480000Y-26410000D01*
X102720000Y-26530000D02*
X100480000Y-26530000D01*
X102720000Y-26650000D02*
X100480000Y-26650000D01*
X102720000Y-30050000D02*
X102720000Y-25810000D01*
%TO.C,Q1*%
X103560000Y-28670000D02*
X103560000Y-32270000D01*
X103560000Y-28670000D02*
G75*
G02*
X104287205Y-28145816I1850000J-1800000D01*
G01*
X104287205Y-32794184D02*
G75*
G02*
X103560000Y-32270000I1122795J2324184D01*
G01*
X106508807Y-28113600D02*
G75*
G02*
X108010000Y-30470000I-1098807J-2356400D01*
G01*
X108010000Y-30470000D02*
G75*
G02*
X106508807Y-32826400I-2600000J0D01*
G01*
%TO.C,R14*%
X20320000Y-39106000D02*
X20320000Y-40503000D01*
X20320000Y-40503000D02*
X20447000Y-40630000D01*
X20320000Y-43297000D02*
X20447000Y-43170000D01*
X20320000Y-44694000D02*
X20320000Y-43297000D01*
X20447000Y-40630000D02*
X20447000Y-41900000D01*
X20447000Y-43170000D02*
X20447000Y-41900000D01*
X20701000Y-38725000D02*
X20320000Y-39106000D01*
X20701000Y-45075000D02*
X20320000Y-44694000D01*
X21590000Y-38725000D02*
X21590000Y-37836000D01*
X21590000Y-45075000D02*
X21590000Y-45964000D01*
X22479000Y-38725000D02*
X20701000Y-38725000D01*
X22479000Y-38725000D02*
X22860000Y-39106000D01*
X22479000Y-45075000D02*
X20701000Y-45075000D01*
X22479000Y-45075000D02*
X22860000Y-44694000D01*
X22733000Y-40630000D02*
X22733000Y-41900000D01*
X22733000Y-43170000D02*
X22733000Y-41900000D01*
X22860000Y-39106000D02*
X22860000Y-40503000D01*
X22860000Y-40503000D02*
X22733000Y-40630000D01*
X22860000Y-43297000D02*
X22733000Y-43170000D01*
X22860000Y-44694000D02*
X22860000Y-43297000D01*
%TO.C,R17*%
X69850000Y-44186000D02*
X69850000Y-45583000D01*
X69850000Y-45583000D02*
X69977000Y-45710000D01*
X69850000Y-48377000D02*
X69977000Y-48250000D01*
X69850000Y-49774000D02*
X69850000Y-48377000D01*
X69977000Y-45710000D02*
X69977000Y-46980000D01*
X69977000Y-48250000D02*
X69977000Y-46980000D01*
X70231000Y-43805000D02*
X69850000Y-44186000D01*
X70231000Y-50155000D02*
X69850000Y-49774000D01*
X71120000Y-43805000D02*
X71120000Y-42916000D01*
X71120000Y-50155000D02*
X71120000Y-51044000D01*
X72009000Y-43805000D02*
X70231000Y-43805000D01*
X72009000Y-43805000D02*
X72390000Y-44186000D01*
X72009000Y-50155000D02*
X70231000Y-50155000D01*
X72009000Y-50155000D02*
X72390000Y-49774000D01*
X72263000Y-45710000D02*
X72263000Y-46980000D01*
X72263000Y-48250000D02*
X72263000Y-46980000D01*
X72390000Y-44186000D02*
X72390000Y-45583000D01*
X72390000Y-45583000D02*
X72263000Y-45710000D01*
X72390000Y-48377000D02*
X72263000Y-48250000D01*
X72390000Y-49774000D02*
X72390000Y-48377000D01*
%TO.C,R18*%
X73660000Y-44186000D02*
X73660000Y-45583000D01*
X73660000Y-45583000D02*
X73787000Y-45710000D01*
X73660000Y-48377000D02*
X73787000Y-48250000D01*
X73660000Y-49774000D02*
X73660000Y-48377000D01*
X73787000Y-45710000D02*
X73787000Y-46980000D01*
X73787000Y-48250000D02*
X73787000Y-46980000D01*
X74041000Y-43805000D02*
X73660000Y-44186000D01*
X74041000Y-50155000D02*
X73660000Y-49774000D01*
X74930000Y-43805000D02*
X74930000Y-42916000D01*
X74930000Y-50155000D02*
X74930000Y-51044000D01*
X75819000Y-43805000D02*
X74041000Y-43805000D01*
X75819000Y-43805000D02*
X76200000Y-44186000D01*
X75819000Y-50155000D02*
X74041000Y-50155000D01*
X75819000Y-50155000D02*
X76200000Y-49774000D01*
X76073000Y-45710000D02*
X76073000Y-46980000D01*
X76073000Y-48250000D02*
X76073000Y-46980000D01*
X76200000Y-44186000D02*
X76200000Y-45583000D01*
X76200000Y-45583000D02*
X76073000Y-45710000D01*
X76200000Y-48377000D02*
X76073000Y-48250000D01*
X76200000Y-49774000D02*
X76200000Y-48377000D01*
%TO.C,R2*%
X96520000Y-25136000D02*
X96520000Y-26533000D01*
X96520000Y-26533000D02*
X96647000Y-26660000D01*
X96520000Y-29327000D02*
X96647000Y-29200000D01*
X96520000Y-30724000D02*
X96520000Y-29327000D01*
X96647000Y-26660000D02*
X96647000Y-27930000D01*
X96647000Y-29200000D02*
X96647000Y-27930000D01*
X96901000Y-24755000D02*
X96520000Y-25136000D01*
X96901000Y-31105000D02*
X96520000Y-30724000D01*
X97790000Y-24755000D02*
X97790000Y-23866000D01*
X97790000Y-31105000D02*
X97790000Y-31994000D01*
X98679000Y-24755000D02*
X96901000Y-24755000D01*
X98679000Y-24755000D02*
X99060000Y-25136000D01*
X98679000Y-31105000D02*
X96901000Y-31105000D01*
X98679000Y-31105000D02*
X99060000Y-30724000D01*
X98933000Y-26660000D02*
X98933000Y-27930000D01*
X98933000Y-29200000D02*
X98933000Y-27930000D01*
X99060000Y-25136000D02*
X99060000Y-26533000D01*
X99060000Y-26533000D02*
X98933000Y-26660000D01*
X99060000Y-29327000D02*
X98933000Y-29200000D01*
X99060000Y-30724000D02*
X99060000Y-29327000D01*
%TO.C,R5*%
X97790000Y-44186000D02*
X97790000Y-45583000D01*
X97790000Y-45583000D02*
X97917000Y-45710000D01*
X97790000Y-48377000D02*
X97917000Y-48250000D01*
X97790000Y-49774000D02*
X97790000Y-48377000D01*
X97917000Y-45710000D02*
X97917000Y-46980000D01*
X97917000Y-48250000D02*
X97917000Y-46980000D01*
X98171000Y-43805000D02*
X97790000Y-44186000D01*
X98171000Y-43805000D02*
X99949000Y-43805000D01*
X98171000Y-50155000D02*
X97790000Y-49774000D01*
X98171000Y-50155000D02*
X99949000Y-50155000D01*
X99060000Y-43805000D02*
X99060000Y-42916000D01*
X99060000Y-50155000D02*
X99060000Y-51044000D01*
X99949000Y-43805000D02*
X100330000Y-44186000D01*
X99949000Y-50155000D02*
X100330000Y-49774000D01*
X100203000Y-45710000D02*
X100203000Y-46980000D01*
X100203000Y-48250000D02*
X100203000Y-46980000D01*
X100330000Y-44186000D02*
X100330000Y-45583000D01*
X100330000Y-45583000D02*
X100203000Y-45710000D01*
X100330000Y-48377000D02*
X100203000Y-48250000D01*
X100330000Y-49774000D02*
X100330000Y-48377000D01*
%TO.C,R9*%
X57150000Y-44186000D02*
X57150000Y-45583000D01*
X57150000Y-45583000D02*
X57277000Y-45710000D01*
X57150000Y-48377000D02*
X57277000Y-48250000D01*
X57150000Y-49774000D02*
X57150000Y-48377000D01*
X57277000Y-45710000D02*
X57277000Y-46980000D01*
X57277000Y-48250000D02*
X57277000Y-46980000D01*
X57531000Y-43805000D02*
X57150000Y-44186000D01*
X57531000Y-50155000D02*
X57150000Y-49774000D01*
X58420000Y-43805000D02*
X58420000Y-42916000D01*
X58420000Y-50155000D02*
X58420000Y-51044000D01*
X59309000Y-43805000D02*
X57531000Y-43805000D01*
X59309000Y-43805000D02*
X59690000Y-44186000D01*
X59309000Y-50155000D02*
X57531000Y-50155000D01*
X59309000Y-50155000D02*
X59690000Y-49774000D01*
X59563000Y-45710000D02*
X59563000Y-46980000D01*
X59563000Y-48250000D02*
X59563000Y-46980000D01*
X59690000Y-44186000D02*
X59690000Y-45583000D01*
X59690000Y-45583000D02*
X59563000Y-45710000D01*
X59690000Y-48377000D02*
X59563000Y-48250000D01*
X59690000Y-49774000D02*
X59690000Y-48377000D01*
%TO.C,R6*%
X101600000Y-44186000D02*
X101600000Y-45583000D01*
X101600000Y-45583000D02*
X101727000Y-45710000D01*
X101600000Y-48377000D02*
X101727000Y-48250000D01*
X101600000Y-49774000D02*
X101600000Y-48377000D01*
X101727000Y-45710000D02*
X101727000Y-46980000D01*
X101727000Y-48250000D02*
X101727000Y-46980000D01*
X101981000Y-43805000D02*
X101600000Y-44186000D01*
X101981000Y-50155000D02*
X101600000Y-49774000D01*
X102870000Y-43805000D02*
X102870000Y-42916000D01*
X102870000Y-50155000D02*
X102870000Y-51044000D01*
X103759000Y-43805000D02*
X101981000Y-43805000D01*
X103759000Y-43805000D02*
X104140000Y-44186000D01*
X103759000Y-50155000D02*
X101981000Y-50155000D01*
X103759000Y-50155000D02*
X104140000Y-49774000D01*
X104013000Y-45710000D02*
X104013000Y-46980000D01*
X104013000Y-48250000D02*
X104013000Y-46980000D01*
X104140000Y-44186000D02*
X104140000Y-45583000D01*
X104140000Y-45583000D02*
X104013000Y-45710000D01*
X104140000Y-48377000D02*
X104013000Y-48250000D01*
X104140000Y-49774000D02*
X104140000Y-48377000D01*
D13*
%TO.C,J4*%
X14170000Y-51970000D02*
X14170000Y-72470000D01*
X14170000Y-72470000D02*
X29670000Y-72470000D01*
D14*
X26670000Y-73020000D02*
X26670000Y-73020000D01*
X26670000Y-73220000D02*
X26670000Y-73220000D01*
D13*
X29670000Y-51970000D02*
X14170000Y-51970000D01*
X29670000Y-55220000D02*
X29670000Y-51970000D01*
X29670000Y-72470000D02*
X29670000Y-69220000D01*
D14*
X26670000Y-73020000D02*
G75*
G02*
X26670000Y-73220000I0J-100000D01*
G01*
X26670000Y-73220000D02*
G75*
G02*
X26670000Y-73020000I0J100000D01*
G01*
D12*
%TO.C,R16*%
X66040000Y-44186000D02*
X66040000Y-45583000D01*
X66040000Y-45583000D02*
X66167000Y-45710000D01*
X66040000Y-48377000D02*
X66167000Y-48250000D01*
X66040000Y-49774000D02*
X66040000Y-48377000D01*
X66167000Y-45710000D02*
X66167000Y-46980000D01*
X66167000Y-48250000D02*
X66167000Y-46980000D01*
X66421000Y-43805000D02*
X66040000Y-44186000D01*
X66421000Y-43805000D02*
X68199000Y-43805000D01*
X66421000Y-50155000D02*
X66040000Y-49774000D01*
X66421000Y-50155000D02*
X68199000Y-50155000D01*
X67310000Y-43805000D02*
X67310000Y-42916000D01*
X67310000Y-50155000D02*
X67310000Y-51044000D01*
X68199000Y-43805000D02*
X68580000Y-44186000D01*
X68199000Y-50155000D02*
X68580000Y-49774000D01*
X68453000Y-45710000D02*
X68453000Y-46980000D01*
X68453000Y-48250000D02*
X68453000Y-46980000D01*
X68580000Y-44186000D02*
X68580000Y-45583000D01*
X68580000Y-45583000D02*
X68453000Y-45710000D01*
X68580000Y-48377000D02*
X68453000Y-48250000D01*
X68580000Y-49774000D02*
X68580000Y-48377000D01*
%TO.C,Q4*%
X75620000Y-56610000D02*
X75620000Y-60210000D01*
X75620000Y-56610000D02*
G75*
G02*
X76347205Y-56085816I1850000J-1800000D01*
G01*
X76347205Y-60734184D02*
G75*
G02*
X75620000Y-60210000I1122795J2324184D01*
G01*
X78568807Y-56053600D02*
G75*
G02*
X80070000Y-58410000I-1098807J-2356400D01*
G01*
X80070000Y-58410000D02*
G75*
G02*
X78568807Y-60766400I-2600000J0D01*
G01*
D13*
%TO.C,J1*%
X45630000Y-75730000D02*
X45630000Y-91230000D01*
X45630000Y-91230000D02*
X66130000Y-91230000D01*
X48880000Y-75730000D02*
X45630000Y-75730000D01*
X66130000Y-75730000D02*
X62880000Y-75730000D01*
X66130000Y-91230000D02*
X66130000Y-75730000D01*
D14*
X66680000Y-78730000D02*
X66680000Y-78730000D01*
X66880000Y-78730000D02*
X66880000Y-78730000D01*
X66680000Y-78730000D02*
G75*
G02*
X66880000Y-78730000I100000J0D01*
G01*
X66880000Y-78730000D02*
G75*
G02*
X66680000Y-78730000I-100000J0D01*
G01*
D12*
%TO.C,R20*%
X82550000Y-44186000D02*
X82550000Y-45583000D01*
X82550000Y-45583000D02*
X82677000Y-45710000D01*
X82550000Y-48377000D02*
X82677000Y-48250000D01*
X82550000Y-49774000D02*
X82550000Y-48377000D01*
X82677000Y-45710000D02*
X82677000Y-46980000D01*
X82677000Y-48250000D02*
X82677000Y-46980000D01*
X82931000Y-43805000D02*
X82550000Y-44186000D01*
X82931000Y-50155000D02*
X82550000Y-49774000D01*
X83820000Y-43805000D02*
X83820000Y-42916000D01*
X83820000Y-50155000D02*
X83820000Y-51044000D01*
X84709000Y-43805000D02*
X82931000Y-43805000D01*
X84709000Y-43805000D02*
X85090000Y-44186000D01*
X84709000Y-50155000D02*
X82931000Y-50155000D01*
X84709000Y-50155000D02*
X85090000Y-49774000D01*
X84963000Y-45710000D02*
X84963000Y-46980000D01*
X84963000Y-48250000D02*
X84963000Y-46980000D01*
X85090000Y-44186000D02*
X85090000Y-45583000D01*
X85090000Y-45583000D02*
X84963000Y-45710000D01*
X85090000Y-48377000D02*
X84963000Y-48250000D01*
X85090000Y-49774000D02*
X85090000Y-48377000D01*
%TO.C,C2*%
X39600000Y-18780000D02*
X38060000Y-18780000D01*
X39600000Y-18820000D02*
X38060000Y-18820000D01*
X39600000Y-18860000D02*
X38061000Y-18860000D01*
X39600000Y-18900000D02*
X38063000Y-18900000D01*
X39600000Y-18940000D02*
X38065000Y-18940000D01*
X39600000Y-18980000D02*
X38068000Y-18980000D01*
X39600000Y-19020000D02*
X38071000Y-19020000D01*
X39600000Y-19060000D02*
X38075000Y-19060000D01*
X39600000Y-19100000D02*
X38080000Y-19100000D01*
X39600000Y-19140000D02*
X38085000Y-19140000D01*
X39600000Y-19180000D02*
X38091000Y-19180000D01*
X39600000Y-19220000D02*
X38097000Y-19220000D01*
X39600000Y-19260000D02*
X38104000Y-19260000D01*
X39600000Y-19300000D02*
X38112000Y-19300000D01*
X39600000Y-19340000D02*
X38121000Y-19340000D01*
X39600000Y-19380000D02*
X38130000Y-19380000D01*
X39600000Y-19420000D02*
X38139000Y-19420000D01*
X39600000Y-19460000D02*
X38150000Y-19460000D01*
X39600000Y-19500000D02*
X38161000Y-19500000D01*
X39600000Y-19540000D02*
X38173000Y-19540000D01*
X39600000Y-19580000D02*
X38185000Y-19580000D01*
X39600000Y-19620000D02*
X38198000Y-19620000D01*
X39600000Y-19660000D02*
X38212000Y-19660000D01*
X39600000Y-19700000D02*
X38227000Y-19700000D01*
X39600000Y-19740000D02*
X38242000Y-19740000D01*
X39600000Y-19780000D02*
X38258000Y-19780000D01*
X39600000Y-19820000D02*
X38275000Y-19820000D01*
X39600000Y-19860000D02*
X38293000Y-19860000D01*
X39600000Y-19900000D02*
X38311000Y-19900000D01*
X39600000Y-19940000D02*
X38331000Y-19940000D01*
X39600000Y-19980000D02*
X38351000Y-19980000D01*
X39600000Y-20020000D02*
X38372000Y-20020000D01*
X39600000Y-20060000D02*
X38394000Y-20060000D01*
X39600000Y-20100000D02*
X38417000Y-20100000D01*
X39600000Y-20140000D02*
X38441000Y-20140000D01*
X39600000Y-20180000D02*
X38465000Y-20180000D01*
X39600000Y-20220000D02*
X38491000Y-20220000D01*
X39600000Y-20260000D02*
X38518000Y-20260000D01*
X39600000Y-20300000D02*
X38546000Y-20300000D01*
X39600000Y-20340000D02*
X38575000Y-20340000D01*
X39600000Y-20380000D02*
X38605000Y-20380000D01*
X39600000Y-20420000D02*
X38637000Y-20420000D01*
X39600000Y-20460000D02*
X38670000Y-20460000D01*
X39600000Y-20500000D02*
X38704000Y-20500000D01*
X39600000Y-20540000D02*
X38739000Y-20540000D01*
X39600000Y-20580000D02*
X38776000Y-20580000D01*
X39600000Y-20620000D02*
X38815000Y-20620000D01*
X39600000Y-20660000D02*
X38855000Y-20660000D01*
X39600000Y-20700000D02*
X38897000Y-20700000D01*
X39600000Y-20740000D02*
X38941000Y-20740000D01*
X39600000Y-20780000D02*
X38988000Y-20780000D01*
X40923000Y-21380000D02*
X40357000Y-21380000D01*
X41157000Y-21340000D02*
X40123000Y-21340000D01*
X41317000Y-21300000D02*
X39963000Y-21300000D01*
X41445000Y-21260000D02*
X39835000Y-21260000D01*
X41554000Y-21220000D02*
X39726000Y-21220000D01*
X41651000Y-21180000D02*
X39629000Y-21180000D01*
X41738000Y-21140000D02*
X39542000Y-21140000D01*
X41817000Y-21100000D02*
X39463000Y-21100000D01*
X41891000Y-21060000D02*
X39389000Y-21060000D01*
X41959000Y-21020000D02*
X39321000Y-21020000D01*
X42023000Y-20980000D02*
X39257000Y-20980000D01*
X42083000Y-20940000D02*
X39197000Y-20940000D01*
X42115000Y-15975225D02*
X42115000Y-16475225D01*
X42139000Y-20900000D02*
X39141000Y-20900000D01*
X42193000Y-20860000D02*
X39087000Y-20860000D01*
X42244000Y-20820000D02*
X39036000Y-20820000D01*
X42292000Y-20780000D02*
X41680000Y-20780000D01*
X42339000Y-20740000D02*
X41680000Y-20740000D01*
X42365000Y-16225225D02*
X41865000Y-16225225D01*
X42383000Y-20700000D02*
X41680000Y-20700000D01*
X42425000Y-20660000D02*
X41680000Y-20660000D01*
X42465000Y-20620000D02*
X41680000Y-20620000D01*
X42504000Y-20580000D02*
X41680000Y-20580000D01*
X42541000Y-20540000D02*
X41680000Y-20540000D01*
X42576000Y-20500000D02*
X41680000Y-20500000D01*
X42610000Y-20460000D02*
X41680000Y-20460000D01*
X42643000Y-20420000D02*
X41680000Y-20420000D01*
X42675000Y-20380000D02*
X41680000Y-20380000D01*
X42705000Y-20340000D02*
X41680000Y-20340000D01*
X42734000Y-20300000D02*
X41680000Y-20300000D01*
X42762000Y-20260000D02*
X41680000Y-20260000D01*
X42789000Y-20220000D02*
X41680000Y-20220000D01*
X42815000Y-20180000D02*
X41680000Y-20180000D01*
X42839000Y-20140000D02*
X41680000Y-20140000D01*
X42863000Y-20100000D02*
X41680000Y-20100000D01*
X42886000Y-20060000D02*
X41680000Y-20060000D01*
X42908000Y-20020000D02*
X41680000Y-20020000D01*
X42929000Y-19980000D02*
X41680000Y-19980000D01*
X42949000Y-19940000D02*
X41680000Y-19940000D01*
X42969000Y-19900000D02*
X41680000Y-19900000D01*
X42987000Y-19860000D02*
X41680000Y-19860000D01*
X43005000Y-19820000D02*
X41680000Y-19820000D01*
X43022000Y-19780000D02*
X41680000Y-19780000D01*
X43038000Y-19740000D02*
X41680000Y-19740000D01*
X43053000Y-19700000D02*
X41680000Y-19700000D01*
X43068000Y-19660000D02*
X41680000Y-19660000D01*
X43082000Y-19620000D02*
X41680000Y-19620000D01*
X43095000Y-19580000D02*
X41680000Y-19580000D01*
X43107000Y-19540000D02*
X41680000Y-19540000D01*
X43119000Y-19500000D02*
X41680000Y-19500000D01*
X43130000Y-19460000D02*
X41680000Y-19460000D01*
X43141000Y-19420000D02*
X41680000Y-19420000D01*
X43150000Y-19380000D02*
X41680000Y-19380000D01*
X43159000Y-19340000D02*
X41680000Y-19340000D01*
X43168000Y-19300000D02*
X41680000Y-19300000D01*
X43176000Y-19260000D02*
X41680000Y-19260000D01*
X43183000Y-19220000D02*
X41680000Y-19220000D01*
X43189000Y-19180000D02*
X41680000Y-19180000D01*
X43195000Y-19140000D02*
X41680000Y-19140000D01*
X43200000Y-19100000D02*
X41680000Y-19100000D01*
X43205000Y-19060000D02*
X41680000Y-19060000D01*
X43209000Y-19020000D02*
X41680000Y-19020000D01*
X43212000Y-18980000D02*
X41680000Y-18980000D01*
X43215000Y-18940000D02*
X41680000Y-18940000D01*
X43217000Y-18900000D02*
X41680000Y-18900000D01*
X43219000Y-18860000D02*
X41680000Y-18860000D01*
X43220000Y-18780000D02*
X41680000Y-18780000D01*
X43220000Y-18820000D02*
X41680000Y-18820000D01*
X43260000Y-18780000D02*
G75*
G02*
X38020000Y-18780000I-2620000J0D01*
G01*
X38020000Y-18780000D02*
G75*
G02*
X43260000Y-18780000I2620000J0D01*
G01*
%TO.C,U1*%
X24070000Y-37970000D02*
X24070000Y-48370000D01*
X24070000Y-48370000D02*
X34350000Y-48370000D01*
X26560000Y-38030000D02*
X26560000Y-48310000D01*
X26560000Y-48310000D02*
X31860000Y-48310000D01*
X28210000Y-38030000D02*
X26560000Y-38030000D01*
X31860000Y-38030000D02*
X30210000Y-38030000D01*
X31860000Y-48310000D02*
X31860000Y-38030000D01*
X34350000Y-37970000D02*
X24070000Y-37970000D01*
X34350000Y-48370000D02*
X34350000Y-37970000D01*
X30210000Y-38030000D02*
G75*
G02*
X28210000Y-38030000I-1000000J0D01*
G01*
X27355000Y-38725000D02*
G75*
G02*
X27255000Y-38725000I-50000J0D01*
G01*
X27255000Y-38725000D02*
G75*
G02*
X27355000Y-38725000I50000J0D01*
G01*
X27430000Y-38725000D02*
G75*
G02*
X27180000Y-38725000I-125000J0D01*
G01*
X27180000Y-38725000D02*
G75*
G02*
X27430000Y-38725000I125000J0D01*
G01*
X27505000Y-38725000D02*
G75*
G02*
X27105000Y-38725000I-200000J0D01*
G01*
X27105000Y-38725000D02*
G75*
G02*
X27505000Y-38725000I200000J0D01*
G01*
%TO.C,R15*%
X62230000Y-44196000D02*
X62230000Y-45593000D01*
X62230000Y-45593000D02*
X62357000Y-45720000D01*
X62230000Y-48387000D02*
X62357000Y-48260000D01*
X62230000Y-49784000D02*
X62230000Y-48387000D01*
X62357000Y-45720000D02*
X62357000Y-46990000D01*
X62357000Y-48260000D02*
X62357000Y-46990000D01*
X62611000Y-43815000D02*
X62230000Y-44196000D01*
X62611000Y-43815000D02*
X64389000Y-43815000D01*
X62611000Y-50165000D02*
X62230000Y-49784000D01*
X62611000Y-50165000D02*
X64389000Y-50165000D01*
X63500000Y-43815000D02*
X63500000Y-42926000D01*
X63500000Y-50165000D02*
X63500000Y-51054000D01*
X64389000Y-43815000D02*
X64770000Y-44196000D01*
X64389000Y-50165000D02*
X64770000Y-49784000D01*
X64643000Y-45720000D02*
X64643000Y-46990000D01*
X64643000Y-48260000D02*
X64643000Y-46990000D01*
X64770000Y-44196000D02*
X64770000Y-45593000D01*
X64770000Y-45593000D02*
X64643000Y-45720000D01*
X64770000Y-48387000D02*
X64643000Y-48260000D01*
X64770000Y-49784000D02*
X64770000Y-48387000D01*
%TO.C,R10*%
X46990000Y-44186000D02*
X46990000Y-45583000D01*
X46990000Y-45583000D02*
X47117000Y-45710000D01*
X46990000Y-48377000D02*
X47117000Y-48250000D01*
X46990000Y-49774000D02*
X46990000Y-48377000D01*
X47117000Y-45710000D02*
X47117000Y-46980000D01*
X47117000Y-48250000D02*
X47117000Y-46980000D01*
X47371000Y-43805000D02*
X46990000Y-44186000D01*
X47371000Y-50155000D02*
X46990000Y-49774000D01*
X48260000Y-43805000D02*
X48260000Y-42916000D01*
X48260000Y-50155000D02*
X48260000Y-51044000D01*
X49149000Y-43805000D02*
X47371000Y-43805000D01*
X49149000Y-43805000D02*
X49530000Y-44186000D01*
X49149000Y-50155000D02*
X47371000Y-50155000D01*
X49149000Y-50155000D02*
X49530000Y-49774000D01*
X49403000Y-45710000D02*
X49403000Y-46980000D01*
X49403000Y-48250000D02*
X49403000Y-46980000D01*
X49530000Y-44186000D02*
X49530000Y-45583000D01*
X49530000Y-45583000D02*
X49403000Y-45710000D01*
X49530000Y-48377000D02*
X49403000Y-48250000D01*
X49530000Y-49774000D02*
X49530000Y-48377000D01*
%TO.C,R13*%
X35560000Y-44186000D02*
X35560000Y-45583000D01*
X35560000Y-45583000D02*
X35687000Y-45710000D01*
X35560000Y-48377000D02*
X35687000Y-48250000D01*
X35560000Y-49774000D02*
X35560000Y-48377000D01*
X35687000Y-45710000D02*
X35687000Y-46980000D01*
X35687000Y-48250000D02*
X35687000Y-46980000D01*
X35941000Y-43805000D02*
X35560000Y-44186000D01*
X35941000Y-50155000D02*
X35560000Y-49774000D01*
X36830000Y-43805000D02*
X36830000Y-42916000D01*
X36830000Y-50155000D02*
X36830000Y-51044000D01*
X37719000Y-43805000D02*
X35941000Y-43805000D01*
X37719000Y-43805000D02*
X38100000Y-44186000D01*
X37719000Y-50155000D02*
X35941000Y-50155000D01*
X37719000Y-50155000D02*
X38100000Y-49774000D01*
X37973000Y-45710000D02*
X37973000Y-46980000D01*
X37973000Y-48250000D02*
X37973000Y-46980000D01*
X38100000Y-44186000D02*
X38100000Y-45583000D01*
X38100000Y-45583000D02*
X37973000Y-45710000D01*
X38100000Y-48377000D02*
X37973000Y-48250000D01*
X38100000Y-49774000D02*
X38100000Y-48377000D01*
D13*
%TO.C,J2*%
X68490000Y-75730000D02*
X68490000Y-91230000D01*
X68490000Y-91230000D02*
X88990000Y-91230000D01*
X71740000Y-75730000D02*
X68490000Y-75730000D01*
X88990000Y-75730000D02*
X85740000Y-75730000D01*
X88990000Y-91230000D02*
X88990000Y-75730000D01*
D14*
X89540000Y-78730000D02*
X89540000Y-78730000D01*
X89740000Y-78730000D02*
X89740000Y-78730000D01*
X89540000Y-78730000D02*
G75*
G02*
X89740000Y-78730000I100000J0D01*
G01*
X89740000Y-78730000D02*
G75*
G02*
X89540000Y-78730000I-100000J0D01*
G01*
D12*
%TO.C,Q2*%
X56570000Y-56610000D02*
X56570000Y-60210000D01*
X56570000Y-56610000D02*
G75*
G02*
X57297205Y-56085816I1850000J-1800000D01*
G01*
X57297205Y-60734184D02*
G75*
G02*
X56570000Y-60210000I1122795J2324184D01*
G01*
X59518807Y-56053600D02*
G75*
G02*
X61020000Y-58410000I-1098807J-2356400D01*
G01*
X61020000Y-58410000D02*
G75*
G02*
X59518807Y-60766400I-2600000J0D01*
G01*
%TD*%
M02*
