%TF.GenerationSoftware,KiCad,Pcbnew,9.0.1-9.0.1-0~ubuntu24.04.1*%
%TF.CreationDate,2025-05-03T17:14:03+02:00*%
%TF.ProjectId,CNC-version,434e432d-7665-4727-9369-6f6e2e6b6963,rev?*%
%TF.SameCoordinates,Original*%
%TF.FileFunction,AssemblyDrawing,Top*%
%FSLAX46Y46*%
G04 Gerber Fmt 4.6, Leading zero omitted, Abs format (unit mm)*
G04 Created by KiCad (PCBNEW 9.0.1-9.0.1-0~ubuntu24.04.1) date 2025-05-03 17:14:03*
%MOMM*%
%LPD*%
G01*
G04 APERTURE LIST*
%ADD10C,0.150000*%
%ADD11C,0.254000*%
%ADD12C,0.120000*%
%ADD13C,0.100000*%
%ADD14C,0.200000*%
%ADD15C,0.431000*%
G04 APERTURE END LIST*
D10*
X43634819Y-47622857D02*
X43158628Y-47956190D01*
X43634819Y-48194285D02*
X42634819Y-48194285D01*
X42634819Y-48194285D02*
X42634819Y-47813333D01*
X42634819Y-47813333D02*
X42682438Y-47718095D01*
X42682438Y-47718095D02*
X42730057Y-47670476D01*
X42730057Y-47670476D02*
X42825295Y-47622857D01*
X42825295Y-47622857D02*
X42968152Y-47622857D01*
X42968152Y-47622857D02*
X43063390Y-47670476D01*
X43063390Y-47670476D02*
X43111009Y-47718095D01*
X43111009Y-47718095D02*
X43158628Y-47813333D01*
X43158628Y-47813333D02*
X43158628Y-48194285D01*
X43634819Y-46670476D02*
X43634819Y-47241904D01*
X43634819Y-46956190D02*
X42634819Y-46956190D01*
X42634819Y-46956190D02*
X42777676Y-47051428D01*
X42777676Y-47051428D02*
X42872914Y-47146666D01*
X42872914Y-47146666D02*
X42920533Y-47241904D01*
X42730057Y-46289523D02*
X42682438Y-46241904D01*
X42682438Y-46241904D02*
X42634819Y-46146666D01*
X42634819Y-46146666D02*
X42634819Y-45908571D01*
X42634819Y-45908571D02*
X42682438Y-45813333D01*
X42682438Y-45813333D02*
X42730057Y-45765714D01*
X42730057Y-45765714D02*
X42825295Y-45718095D01*
X42825295Y-45718095D02*
X42920533Y-45718095D01*
X42920533Y-45718095D02*
X43063390Y-45765714D01*
X43063390Y-45765714D02*
X43634819Y-46337142D01*
X43634819Y-46337142D02*
X43634819Y-45718095D01*
D11*
X23706667Y-82519318D02*
X23706667Y-83426461D01*
X23706667Y-83426461D02*
X23646190Y-83607889D01*
X23646190Y-83607889D02*
X23525238Y-83728842D01*
X23525238Y-83728842D02*
X23343809Y-83789318D01*
X23343809Y-83789318D02*
X23222857Y-83789318D01*
X24916190Y-82519318D02*
X24311428Y-82519318D01*
X24311428Y-82519318D02*
X24250952Y-83124080D01*
X24250952Y-83124080D02*
X24311428Y-83063603D01*
X24311428Y-83063603D02*
X24432381Y-83003127D01*
X24432381Y-83003127D02*
X24734762Y-83003127D01*
X24734762Y-83003127D02*
X24855714Y-83063603D01*
X24855714Y-83063603D02*
X24916190Y-83124080D01*
X24916190Y-83124080D02*
X24976667Y-83245032D01*
X24976667Y-83245032D02*
X24976667Y-83547413D01*
X24976667Y-83547413D02*
X24916190Y-83668365D01*
X24916190Y-83668365D02*
X24855714Y-83728842D01*
X24855714Y-83728842D02*
X24734762Y-83789318D01*
X24734762Y-83789318D02*
X24432381Y-83789318D01*
X24432381Y-83789318D02*
X24311428Y-83728842D01*
X24311428Y-83728842D02*
X24250952Y-83668365D01*
D10*
X69921904Y-26359580D02*
X69874285Y-26407200D01*
X69874285Y-26407200D02*
X69731428Y-26454819D01*
X69731428Y-26454819D02*
X69636190Y-26454819D01*
X69636190Y-26454819D02*
X69493333Y-26407200D01*
X69493333Y-26407200D02*
X69398095Y-26311961D01*
X69398095Y-26311961D02*
X69350476Y-26216723D01*
X69350476Y-26216723D02*
X69302857Y-26026247D01*
X69302857Y-26026247D02*
X69302857Y-25883390D01*
X69302857Y-25883390D02*
X69350476Y-25692914D01*
X69350476Y-25692914D02*
X69398095Y-25597676D01*
X69398095Y-25597676D02*
X69493333Y-25502438D01*
X69493333Y-25502438D02*
X69636190Y-25454819D01*
X69636190Y-25454819D02*
X69731428Y-25454819D01*
X69731428Y-25454819D02*
X69874285Y-25502438D01*
X69874285Y-25502438D02*
X69921904Y-25550057D01*
X70493333Y-26454819D02*
X70398095Y-26407200D01*
X70398095Y-26407200D02*
X70350476Y-26359580D01*
X70350476Y-26359580D02*
X70302857Y-26264342D01*
X70302857Y-26264342D02*
X70302857Y-25978628D01*
X70302857Y-25978628D02*
X70350476Y-25883390D01*
X70350476Y-25883390D02*
X70398095Y-25835771D01*
X70398095Y-25835771D02*
X70493333Y-25788152D01*
X70493333Y-25788152D02*
X70636190Y-25788152D01*
X70636190Y-25788152D02*
X70731428Y-25835771D01*
X70731428Y-25835771D02*
X70779047Y-25883390D01*
X70779047Y-25883390D02*
X70826666Y-25978628D01*
X70826666Y-25978628D02*
X70826666Y-26264342D01*
X70826666Y-26264342D02*
X70779047Y-26359580D01*
X70779047Y-26359580D02*
X70731428Y-26407200D01*
X70731428Y-26407200D02*
X70636190Y-26454819D01*
X70636190Y-26454819D02*
X70493333Y-26454819D01*
X71255238Y-25788152D02*
X71255238Y-26454819D01*
X71255238Y-25883390D02*
X71302857Y-25835771D01*
X71302857Y-25835771D02*
X71398095Y-25788152D01*
X71398095Y-25788152D02*
X71540952Y-25788152D01*
X71540952Y-25788152D02*
X71636190Y-25835771D01*
X71636190Y-25835771D02*
X71683809Y-25931009D01*
X71683809Y-25931009D02*
X71683809Y-26454819D01*
X72160000Y-25788152D02*
X72160000Y-26454819D01*
X72160000Y-25883390D02*
X72207619Y-25835771D01*
X72207619Y-25835771D02*
X72302857Y-25788152D01*
X72302857Y-25788152D02*
X72445714Y-25788152D01*
X72445714Y-25788152D02*
X72540952Y-25835771D01*
X72540952Y-25835771D02*
X72588571Y-25931009D01*
X72588571Y-25931009D02*
X72588571Y-26454819D01*
X72826667Y-26550057D02*
X73588571Y-26550057D01*
X74017143Y-25454819D02*
X74112381Y-25454819D01*
X74112381Y-25454819D02*
X74207619Y-25502438D01*
X74207619Y-25502438D02*
X74255238Y-25550057D01*
X74255238Y-25550057D02*
X74302857Y-25645295D01*
X74302857Y-25645295D02*
X74350476Y-25835771D01*
X74350476Y-25835771D02*
X74350476Y-26073866D01*
X74350476Y-26073866D02*
X74302857Y-26264342D01*
X74302857Y-26264342D02*
X74255238Y-26359580D01*
X74255238Y-26359580D02*
X74207619Y-26407200D01*
X74207619Y-26407200D02*
X74112381Y-26454819D01*
X74112381Y-26454819D02*
X74017143Y-26454819D01*
X74017143Y-26454819D02*
X73921905Y-26407200D01*
X73921905Y-26407200D02*
X73874286Y-26359580D01*
X73874286Y-26359580D02*
X73826667Y-26264342D01*
X73826667Y-26264342D02*
X73779048Y-26073866D01*
X73779048Y-26073866D02*
X73779048Y-25835771D01*
X73779048Y-25835771D02*
X73826667Y-25645295D01*
X73826667Y-25645295D02*
X73874286Y-25550057D01*
X73874286Y-25550057D02*
X73921905Y-25502438D01*
X73921905Y-25502438D02*
X74017143Y-25454819D01*
X75302857Y-26454819D02*
X74731429Y-26454819D01*
X75017143Y-26454819D02*
X75017143Y-25454819D01*
X75017143Y-25454819D02*
X74921905Y-25597676D01*
X74921905Y-25597676D02*
X74826667Y-25692914D01*
X74826667Y-25692914D02*
X74731429Y-25740533D01*
X75636191Y-26454819D02*
X76160000Y-25788152D01*
X75636191Y-25788152D02*
X76160000Y-26454819D01*
X76731429Y-25454819D02*
X76826667Y-25454819D01*
X76826667Y-25454819D02*
X76921905Y-25502438D01*
X76921905Y-25502438D02*
X76969524Y-25550057D01*
X76969524Y-25550057D02*
X77017143Y-25645295D01*
X77017143Y-25645295D02*
X77064762Y-25835771D01*
X77064762Y-25835771D02*
X77064762Y-26073866D01*
X77064762Y-26073866D02*
X77017143Y-26264342D01*
X77017143Y-26264342D02*
X76969524Y-26359580D01*
X76969524Y-26359580D02*
X76921905Y-26407200D01*
X76921905Y-26407200D02*
X76826667Y-26454819D01*
X76826667Y-26454819D02*
X76731429Y-26454819D01*
X76731429Y-26454819D02*
X76636191Y-26407200D01*
X76636191Y-26407200D02*
X76588572Y-26359580D01*
X76588572Y-26359580D02*
X76540953Y-26264342D01*
X76540953Y-26264342D02*
X76493334Y-26073866D01*
X76493334Y-26073866D02*
X76493334Y-25835771D01*
X76493334Y-25835771D02*
X76540953Y-25645295D01*
X76540953Y-25645295D02*
X76588572Y-25550057D01*
X76588572Y-25550057D02*
X76636191Y-25502438D01*
X76636191Y-25502438D02*
X76731429Y-25454819D01*
X78017143Y-26454819D02*
X77445715Y-26454819D01*
X77731429Y-26454819D02*
X77731429Y-25454819D01*
X77731429Y-25454819D02*
X77636191Y-25597676D01*
X77636191Y-25597676D02*
X77540953Y-25692914D01*
X77540953Y-25692914D02*
X77445715Y-25740533D01*
X72446667Y-22922233D02*
X73193334Y-22922233D01*
X72820000Y-23295566D02*
X72820000Y-22548900D01*
X74126667Y-22315566D02*
X73660000Y-22315566D01*
X73660000Y-22315566D02*
X73613333Y-22782233D01*
X73613333Y-22782233D02*
X73660000Y-22735566D01*
X73660000Y-22735566D02*
X73753333Y-22688900D01*
X73753333Y-22688900D02*
X73986667Y-22688900D01*
X73986667Y-22688900D02*
X74080000Y-22735566D01*
X74080000Y-22735566D02*
X74126667Y-22782233D01*
X74126667Y-22782233D02*
X74173333Y-22875566D01*
X74173333Y-22875566D02*
X74173333Y-23108900D01*
X74173333Y-23108900D02*
X74126667Y-23202233D01*
X74126667Y-23202233D02*
X74080000Y-23248900D01*
X74080000Y-23248900D02*
X73986667Y-23295566D01*
X73986667Y-23295566D02*
X73753333Y-23295566D01*
X73753333Y-23295566D02*
X73660000Y-23248900D01*
X73660000Y-23248900D02*
X73613333Y-23202233D01*
X74500000Y-22642233D02*
X74733333Y-23295566D01*
X74733333Y-23295566D02*
X74966666Y-22642233D01*
X105918095Y-18234819D02*
X105918095Y-17234819D01*
X105918095Y-17711009D02*
X106489523Y-17711009D01*
X106489523Y-18234819D02*
X106489523Y-17234819D01*
X107394285Y-17568152D02*
X107394285Y-18234819D01*
X107156190Y-17187200D02*
X106918095Y-17901485D01*
X106918095Y-17901485D02*
X107537142Y-17901485D01*
D11*
X101176667Y-82509318D02*
X101176667Y-83416461D01*
X101176667Y-83416461D02*
X101116190Y-83597889D01*
X101116190Y-83597889D02*
X100995238Y-83718842D01*
X100995238Y-83718842D02*
X100813809Y-83779318D01*
X100813809Y-83779318D02*
X100692857Y-83779318D01*
X101660476Y-82509318D02*
X102446667Y-82509318D01*
X102446667Y-82509318D02*
X102023333Y-82993127D01*
X102023333Y-82993127D02*
X102204762Y-82993127D01*
X102204762Y-82993127D02*
X102325714Y-83053603D01*
X102325714Y-83053603D02*
X102386190Y-83114080D01*
X102386190Y-83114080D02*
X102446667Y-83235032D01*
X102446667Y-83235032D02*
X102446667Y-83537413D01*
X102446667Y-83537413D02*
X102386190Y-83658365D01*
X102386190Y-83658365D02*
X102325714Y-83718842D01*
X102325714Y-83718842D02*
X102204762Y-83779318D01*
X102204762Y-83779318D02*
X101841905Y-83779318D01*
X101841905Y-83779318D02*
X101720952Y-83718842D01*
X101720952Y-83718842D02*
X101660476Y-83658365D01*
D10*
X91894819Y-47146666D02*
X91418628Y-47479999D01*
X91894819Y-47718094D02*
X90894819Y-47718094D01*
X90894819Y-47718094D02*
X90894819Y-47337142D01*
X90894819Y-47337142D02*
X90942438Y-47241904D01*
X90942438Y-47241904D02*
X90990057Y-47194285D01*
X90990057Y-47194285D02*
X91085295Y-47146666D01*
X91085295Y-47146666D02*
X91228152Y-47146666D01*
X91228152Y-47146666D02*
X91323390Y-47194285D01*
X91323390Y-47194285D02*
X91371009Y-47241904D01*
X91371009Y-47241904D02*
X91418628Y-47337142D01*
X91418628Y-47337142D02*
X91418628Y-47718094D01*
X90894819Y-46813332D02*
X90894819Y-46194285D01*
X90894819Y-46194285D02*
X91275771Y-46527618D01*
X91275771Y-46527618D02*
X91275771Y-46384761D01*
X91275771Y-46384761D02*
X91323390Y-46289523D01*
X91323390Y-46289523D02*
X91371009Y-46241904D01*
X91371009Y-46241904D02*
X91466247Y-46194285D01*
X91466247Y-46194285D02*
X91704342Y-46194285D01*
X91704342Y-46194285D02*
X91799580Y-46241904D01*
X91799580Y-46241904D02*
X91847200Y-46289523D01*
X91847200Y-46289523D02*
X91894819Y-46384761D01*
X91894819Y-46384761D02*
X91894819Y-46670475D01*
X91894819Y-46670475D02*
X91847200Y-46765713D01*
X91847200Y-46765713D02*
X91799580Y-46813332D01*
X29281904Y-26369580D02*
X29234285Y-26417200D01*
X29234285Y-26417200D02*
X29091428Y-26464819D01*
X29091428Y-26464819D02*
X28996190Y-26464819D01*
X28996190Y-26464819D02*
X28853333Y-26417200D01*
X28853333Y-26417200D02*
X28758095Y-26321961D01*
X28758095Y-26321961D02*
X28710476Y-26226723D01*
X28710476Y-26226723D02*
X28662857Y-26036247D01*
X28662857Y-26036247D02*
X28662857Y-25893390D01*
X28662857Y-25893390D02*
X28710476Y-25702914D01*
X28710476Y-25702914D02*
X28758095Y-25607676D01*
X28758095Y-25607676D02*
X28853333Y-25512438D01*
X28853333Y-25512438D02*
X28996190Y-25464819D01*
X28996190Y-25464819D02*
X29091428Y-25464819D01*
X29091428Y-25464819D02*
X29234285Y-25512438D01*
X29234285Y-25512438D02*
X29281904Y-25560057D01*
X29853333Y-26464819D02*
X29758095Y-26417200D01*
X29758095Y-26417200D02*
X29710476Y-26369580D01*
X29710476Y-26369580D02*
X29662857Y-26274342D01*
X29662857Y-26274342D02*
X29662857Y-25988628D01*
X29662857Y-25988628D02*
X29710476Y-25893390D01*
X29710476Y-25893390D02*
X29758095Y-25845771D01*
X29758095Y-25845771D02*
X29853333Y-25798152D01*
X29853333Y-25798152D02*
X29996190Y-25798152D01*
X29996190Y-25798152D02*
X30091428Y-25845771D01*
X30091428Y-25845771D02*
X30139047Y-25893390D01*
X30139047Y-25893390D02*
X30186666Y-25988628D01*
X30186666Y-25988628D02*
X30186666Y-26274342D01*
X30186666Y-26274342D02*
X30139047Y-26369580D01*
X30139047Y-26369580D02*
X30091428Y-26417200D01*
X30091428Y-26417200D02*
X29996190Y-26464819D01*
X29996190Y-26464819D02*
X29853333Y-26464819D01*
X30615238Y-25798152D02*
X30615238Y-26464819D01*
X30615238Y-25893390D02*
X30662857Y-25845771D01*
X30662857Y-25845771D02*
X30758095Y-25798152D01*
X30758095Y-25798152D02*
X30900952Y-25798152D01*
X30900952Y-25798152D02*
X30996190Y-25845771D01*
X30996190Y-25845771D02*
X31043809Y-25941009D01*
X31043809Y-25941009D02*
X31043809Y-26464819D01*
X31520000Y-25798152D02*
X31520000Y-26464819D01*
X31520000Y-25893390D02*
X31567619Y-25845771D01*
X31567619Y-25845771D02*
X31662857Y-25798152D01*
X31662857Y-25798152D02*
X31805714Y-25798152D01*
X31805714Y-25798152D02*
X31900952Y-25845771D01*
X31900952Y-25845771D02*
X31948571Y-25941009D01*
X31948571Y-25941009D02*
X31948571Y-26464819D01*
X32186667Y-26560057D02*
X32948571Y-26560057D01*
X33377143Y-25464819D02*
X33472381Y-25464819D01*
X33472381Y-25464819D02*
X33567619Y-25512438D01*
X33567619Y-25512438D02*
X33615238Y-25560057D01*
X33615238Y-25560057D02*
X33662857Y-25655295D01*
X33662857Y-25655295D02*
X33710476Y-25845771D01*
X33710476Y-25845771D02*
X33710476Y-26083866D01*
X33710476Y-26083866D02*
X33662857Y-26274342D01*
X33662857Y-26274342D02*
X33615238Y-26369580D01*
X33615238Y-26369580D02*
X33567619Y-26417200D01*
X33567619Y-26417200D02*
X33472381Y-26464819D01*
X33472381Y-26464819D02*
X33377143Y-26464819D01*
X33377143Y-26464819D02*
X33281905Y-26417200D01*
X33281905Y-26417200D02*
X33234286Y-26369580D01*
X33234286Y-26369580D02*
X33186667Y-26274342D01*
X33186667Y-26274342D02*
X33139048Y-26083866D01*
X33139048Y-26083866D02*
X33139048Y-25845771D01*
X33139048Y-25845771D02*
X33186667Y-25655295D01*
X33186667Y-25655295D02*
X33234286Y-25560057D01*
X33234286Y-25560057D02*
X33281905Y-25512438D01*
X33281905Y-25512438D02*
X33377143Y-25464819D01*
X34662857Y-26464819D02*
X34091429Y-26464819D01*
X34377143Y-26464819D02*
X34377143Y-25464819D01*
X34377143Y-25464819D02*
X34281905Y-25607676D01*
X34281905Y-25607676D02*
X34186667Y-25702914D01*
X34186667Y-25702914D02*
X34091429Y-25750533D01*
X34996191Y-26464819D02*
X35520000Y-25798152D01*
X34996191Y-25798152D02*
X35520000Y-26464819D01*
X36091429Y-25464819D02*
X36186667Y-25464819D01*
X36186667Y-25464819D02*
X36281905Y-25512438D01*
X36281905Y-25512438D02*
X36329524Y-25560057D01*
X36329524Y-25560057D02*
X36377143Y-25655295D01*
X36377143Y-25655295D02*
X36424762Y-25845771D01*
X36424762Y-25845771D02*
X36424762Y-26083866D01*
X36424762Y-26083866D02*
X36377143Y-26274342D01*
X36377143Y-26274342D02*
X36329524Y-26369580D01*
X36329524Y-26369580D02*
X36281905Y-26417200D01*
X36281905Y-26417200D02*
X36186667Y-26464819D01*
X36186667Y-26464819D02*
X36091429Y-26464819D01*
X36091429Y-26464819D02*
X35996191Y-26417200D01*
X35996191Y-26417200D02*
X35948572Y-26369580D01*
X35948572Y-26369580D02*
X35900953Y-26274342D01*
X35900953Y-26274342D02*
X35853334Y-26083866D01*
X35853334Y-26083866D02*
X35853334Y-25845771D01*
X35853334Y-25845771D02*
X35900953Y-25655295D01*
X35900953Y-25655295D02*
X35948572Y-25560057D01*
X35948572Y-25560057D02*
X35996191Y-25512438D01*
X35996191Y-25512438D02*
X36091429Y-25464819D01*
X37377143Y-26464819D02*
X36805715Y-26464819D01*
X37091429Y-26464819D02*
X37091429Y-25464819D01*
X37091429Y-25464819D02*
X36996191Y-25607676D01*
X36996191Y-25607676D02*
X36900953Y-25702914D01*
X36900953Y-25702914D02*
X36805715Y-25750533D01*
X31340000Y-22932233D02*
X32086667Y-22932233D01*
X31713333Y-23305566D02*
X31713333Y-22558900D01*
X33066666Y-23305566D02*
X32506666Y-23305566D01*
X32786666Y-23305566D02*
X32786666Y-22325566D01*
X32786666Y-22325566D02*
X32693333Y-22465566D01*
X32693333Y-22465566D02*
X32600000Y-22558900D01*
X32600000Y-22558900D02*
X32506666Y-22605566D01*
X33439999Y-22418900D02*
X33486666Y-22372233D01*
X33486666Y-22372233D02*
X33579999Y-22325566D01*
X33579999Y-22325566D02*
X33813333Y-22325566D01*
X33813333Y-22325566D02*
X33906666Y-22372233D01*
X33906666Y-22372233D02*
X33953333Y-22418900D01*
X33953333Y-22418900D02*
X33999999Y-22512233D01*
X33999999Y-22512233D02*
X33999999Y-22605566D01*
X33999999Y-22605566D02*
X33953333Y-22745566D01*
X33953333Y-22745566D02*
X33393333Y-23305566D01*
X33393333Y-23305566D02*
X33999999Y-23305566D01*
X34326666Y-22652233D02*
X34559999Y-23305566D01*
X34559999Y-23305566D02*
X34793332Y-22652233D01*
X51744761Y-20734819D02*
X51268571Y-20734819D01*
X51268571Y-20734819D02*
X51268571Y-19734819D01*
X51982857Y-19734819D02*
X52649523Y-19734819D01*
X52649523Y-19734819D02*
X52220952Y-20734819D01*
X53173333Y-20163390D02*
X53078095Y-20115771D01*
X53078095Y-20115771D02*
X53030476Y-20068152D01*
X53030476Y-20068152D02*
X52982857Y-19972914D01*
X52982857Y-19972914D02*
X52982857Y-19925295D01*
X52982857Y-19925295D02*
X53030476Y-19830057D01*
X53030476Y-19830057D02*
X53078095Y-19782438D01*
X53078095Y-19782438D02*
X53173333Y-19734819D01*
X53173333Y-19734819D02*
X53363809Y-19734819D01*
X53363809Y-19734819D02*
X53459047Y-19782438D01*
X53459047Y-19782438D02*
X53506666Y-19830057D01*
X53506666Y-19830057D02*
X53554285Y-19925295D01*
X53554285Y-19925295D02*
X53554285Y-19972914D01*
X53554285Y-19972914D02*
X53506666Y-20068152D01*
X53506666Y-20068152D02*
X53459047Y-20115771D01*
X53459047Y-20115771D02*
X53363809Y-20163390D01*
X53363809Y-20163390D02*
X53173333Y-20163390D01*
X53173333Y-20163390D02*
X53078095Y-20211009D01*
X53078095Y-20211009D02*
X53030476Y-20258628D01*
X53030476Y-20258628D02*
X52982857Y-20353866D01*
X52982857Y-20353866D02*
X52982857Y-20544342D01*
X52982857Y-20544342D02*
X53030476Y-20639580D01*
X53030476Y-20639580D02*
X53078095Y-20687200D01*
X53078095Y-20687200D02*
X53173333Y-20734819D01*
X53173333Y-20734819D02*
X53363809Y-20734819D01*
X53363809Y-20734819D02*
X53459047Y-20687200D01*
X53459047Y-20687200D02*
X53506666Y-20639580D01*
X53506666Y-20639580D02*
X53554285Y-20544342D01*
X53554285Y-20544342D02*
X53554285Y-20353866D01*
X53554285Y-20353866D02*
X53506666Y-20258628D01*
X53506666Y-20258628D02*
X53459047Y-20211009D01*
X53459047Y-20211009D02*
X53363809Y-20163390D01*
X54173333Y-19734819D02*
X54268571Y-19734819D01*
X54268571Y-19734819D02*
X54363809Y-19782438D01*
X54363809Y-19782438D02*
X54411428Y-19830057D01*
X54411428Y-19830057D02*
X54459047Y-19925295D01*
X54459047Y-19925295D02*
X54506666Y-20115771D01*
X54506666Y-20115771D02*
X54506666Y-20353866D01*
X54506666Y-20353866D02*
X54459047Y-20544342D01*
X54459047Y-20544342D02*
X54411428Y-20639580D01*
X54411428Y-20639580D02*
X54363809Y-20687200D01*
X54363809Y-20687200D02*
X54268571Y-20734819D01*
X54268571Y-20734819D02*
X54173333Y-20734819D01*
X54173333Y-20734819D02*
X54078095Y-20687200D01*
X54078095Y-20687200D02*
X54030476Y-20639580D01*
X54030476Y-20639580D02*
X53982857Y-20544342D01*
X53982857Y-20544342D02*
X53935238Y-20353866D01*
X53935238Y-20353866D02*
X53935238Y-20115771D01*
X53935238Y-20115771D02*
X53982857Y-19925295D01*
X53982857Y-19925295D02*
X54030476Y-19830057D01*
X54030476Y-19830057D02*
X54078095Y-19782438D01*
X54078095Y-19782438D02*
X54173333Y-19734819D01*
X55411428Y-19734819D02*
X54935238Y-19734819D01*
X54935238Y-19734819D02*
X54887619Y-20211009D01*
X54887619Y-20211009D02*
X54935238Y-20163390D01*
X54935238Y-20163390D02*
X55030476Y-20115771D01*
X55030476Y-20115771D02*
X55268571Y-20115771D01*
X55268571Y-20115771D02*
X55363809Y-20163390D01*
X55363809Y-20163390D02*
X55411428Y-20211009D01*
X55411428Y-20211009D02*
X55459047Y-20306247D01*
X55459047Y-20306247D02*
X55459047Y-20544342D01*
X55459047Y-20544342D02*
X55411428Y-20639580D01*
X55411428Y-20639580D02*
X55363809Y-20687200D01*
X55363809Y-20687200D02*
X55268571Y-20734819D01*
X55268571Y-20734819D02*
X55030476Y-20734819D01*
X55030476Y-20734819D02*
X54935238Y-20687200D01*
X54935238Y-20687200D02*
X54887619Y-20639580D01*
X52578095Y-12964819D02*
X52578095Y-13774342D01*
X52578095Y-13774342D02*
X52625714Y-13869580D01*
X52625714Y-13869580D02*
X52673333Y-13917200D01*
X52673333Y-13917200D02*
X52768571Y-13964819D01*
X52768571Y-13964819D02*
X52959047Y-13964819D01*
X52959047Y-13964819D02*
X53054285Y-13917200D01*
X53054285Y-13917200D02*
X53101904Y-13869580D01*
X53101904Y-13869580D02*
X53149523Y-13774342D01*
X53149523Y-13774342D02*
X53149523Y-12964819D01*
X53578095Y-13060057D02*
X53625714Y-13012438D01*
X53625714Y-13012438D02*
X53720952Y-12964819D01*
X53720952Y-12964819D02*
X53959047Y-12964819D01*
X53959047Y-12964819D02*
X54054285Y-13012438D01*
X54054285Y-13012438D02*
X54101904Y-13060057D01*
X54101904Y-13060057D02*
X54149523Y-13155295D01*
X54149523Y-13155295D02*
X54149523Y-13250533D01*
X54149523Y-13250533D02*
X54101904Y-13393390D01*
X54101904Y-13393390D02*
X53530476Y-13964819D01*
X53530476Y-13964819D02*
X54149523Y-13964819D01*
X67860057Y-58505238D02*
X67812438Y-58600476D01*
X67812438Y-58600476D02*
X67717200Y-58695714D01*
X67717200Y-58695714D02*
X67574342Y-58838571D01*
X67574342Y-58838571D02*
X67526723Y-58933809D01*
X67526723Y-58933809D02*
X67526723Y-59029047D01*
X67764819Y-58981428D02*
X67717200Y-59076666D01*
X67717200Y-59076666D02*
X67621961Y-59171904D01*
X67621961Y-59171904D02*
X67431485Y-59219523D01*
X67431485Y-59219523D02*
X67098152Y-59219523D01*
X67098152Y-59219523D02*
X66907676Y-59171904D01*
X66907676Y-59171904D02*
X66812438Y-59076666D01*
X66812438Y-59076666D02*
X66764819Y-58981428D01*
X66764819Y-58981428D02*
X66764819Y-58790952D01*
X66764819Y-58790952D02*
X66812438Y-58695714D01*
X66812438Y-58695714D02*
X66907676Y-58600476D01*
X66907676Y-58600476D02*
X67098152Y-58552857D01*
X67098152Y-58552857D02*
X67431485Y-58552857D01*
X67431485Y-58552857D02*
X67621961Y-58600476D01*
X67621961Y-58600476D02*
X67717200Y-58695714D01*
X67717200Y-58695714D02*
X67764819Y-58790952D01*
X67764819Y-58790952D02*
X67764819Y-58981428D01*
X66764819Y-58219523D02*
X66764819Y-57600476D01*
X66764819Y-57600476D02*
X67145771Y-57933809D01*
X67145771Y-57933809D02*
X67145771Y-57790952D01*
X67145771Y-57790952D02*
X67193390Y-57695714D01*
X67193390Y-57695714D02*
X67241009Y-57648095D01*
X67241009Y-57648095D02*
X67336247Y-57600476D01*
X67336247Y-57600476D02*
X67574342Y-57600476D01*
X67574342Y-57600476D02*
X67669580Y-57648095D01*
X67669580Y-57648095D02*
X67717200Y-57695714D01*
X67717200Y-57695714D02*
X67764819Y-57790952D01*
X67764819Y-57790952D02*
X67764819Y-58076666D01*
X67764819Y-58076666D02*
X67717200Y-58171904D01*
X67717200Y-58171904D02*
X67669580Y-58219523D01*
X80464819Y-47622857D02*
X79988628Y-47956190D01*
X80464819Y-48194285D02*
X79464819Y-48194285D01*
X79464819Y-48194285D02*
X79464819Y-47813333D01*
X79464819Y-47813333D02*
X79512438Y-47718095D01*
X79512438Y-47718095D02*
X79560057Y-47670476D01*
X79560057Y-47670476D02*
X79655295Y-47622857D01*
X79655295Y-47622857D02*
X79798152Y-47622857D01*
X79798152Y-47622857D02*
X79893390Y-47670476D01*
X79893390Y-47670476D02*
X79941009Y-47718095D01*
X79941009Y-47718095D02*
X79988628Y-47813333D01*
X79988628Y-47813333D02*
X79988628Y-48194285D01*
X80464819Y-46670476D02*
X80464819Y-47241904D01*
X80464819Y-46956190D02*
X79464819Y-46956190D01*
X79464819Y-46956190D02*
X79607676Y-47051428D01*
X79607676Y-47051428D02*
X79702914Y-47146666D01*
X79702914Y-47146666D02*
X79750533Y-47241904D01*
X80464819Y-46194285D02*
X80464819Y-46003809D01*
X80464819Y-46003809D02*
X80417200Y-45908571D01*
X80417200Y-45908571D02*
X80369580Y-45860952D01*
X80369580Y-45860952D02*
X80226723Y-45765714D01*
X80226723Y-45765714D02*
X80036247Y-45718095D01*
X80036247Y-45718095D02*
X79655295Y-45718095D01*
X79655295Y-45718095D02*
X79560057Y-45765714D01*
X79560057Y-45765714D02*
X79512438Y-45813333D01*
X79512438Y-45813333D02*
X79464819Y-45908571D01*
X79464819Y-45908571D02*
X79464819Y-46099047D01*
X79464819Y-46099047D02*
X79512438Y-46194285D01*
X79512438Y-46194285D02*
X79560057Y-46241904D01*
X79560057Y-46241904D02*
X79655295Y-46289523D01*
X79655295Y-46289523D02*
X79893390Y-46289523D01*
X79893390Y-46289523D02*
X79988628Y-46241904D01*
X79988628Y-46241904D02*
X80036247Y-46194285D01*
X80036247Y-46194285D02*
X80083866Y-46099047D01*
X80083866Y-46099047D02*
X80083866Y-45908571D01*
X80083866Y-45908571D02*
X80036247Y-45813333D01*
X80036247Y-45813333D02*
X79988628Y-45765714D01*
X79988628Y-45765714D02*
X79893390Y-45718095D01*
X70231428Y-25914819D02*
X69660000Y-25914819D01*
X69945714Y-25914819D02*
X69945714Y-24914819D01*
X69945714Y-24914819D02*
X69850476Y-25057676D01*
X69850476Y-25057676D02*
X69755238Y-25152914D01*
X69755238Y-25152914D02*
X69660000Y-25200533D01*
X70850476Y-24914819D02*
X70945714Y-24914819D01*
X70945714Y-24914819D02*
X71040952Y-24962438D01*
X71040952Y-24962438D02*
X71088571Y-25010057D01*
X71088571Y-25010057D02*
X71136190Y-25105295D01*
X71136190Y-25105295D02*
X71183809Y-25295771D01*
X71183809Y-25295771D02*
X71183809Y-25533866D01*
X71183809Y-25533866D02*
X71136190Y-25724342D01*
X71136190Y-25724342D02*
X71088571Y-25819580D01*
X71088571Y-25819580D02*
X71040952Y-25867200D01*
X71040952Y-25867200D02*
X70945714Y-25914819D01*
X70945714Y-25914819D02*
X70850476Y-25914819D01*
X70850476Y-25914819D02*
X70755238Y-25867200D01*
X70755238Y-25867200D02*
X70707619Y-25819580D01*
X70707619Y-25819580D02*
X70660000Y-25724342D01*
X70660000Y-25724342D02*
X70612381Y-25533866D01*
X70612381Y-25533866D02*
X70612381Y-25295771D01*
X70612381Y-25295771D02*
X70660000Y-25105295D01*
X70660000Y-25105295D02*
X70707619Y-25010057D01*
X70707619Y-25010057D02*
X70755238Y-24962438D01*
X70755238Y-24962438D02*
X70850476Y-24914819D01*
X71612381Y-25248152D02*
X71612381Y-26248152D01*
X72088571Y-25771961D02*
X72136190Y-25867200D01*
X72136190Y-25867200D02*
X72231428Y-25914819D01*
X71612381Y-25771961D02*
X71660000Y-25867200D01*
X71660000Y-25867200D02*
X71755238Y-25914819D01*
X71755238Y-25914819D02*
X71945714Y-25914819D01*
X71945714Y-25914819D02*
X72040952Y-25867200D01*
X72040952Y-25867200D02*
X72088571Y-25771961D01*
X72088571Y-25771961D02*
X72088571Y-25248152D01*
X73374286Y-25010057D02*
X73421905Y-24962438D01*
X73421905Y-24962438D02*
X73517143Y-24914819D01*
X73517143Y-24914819D02*
X73755238Y-24914819D01*
X73755238Y-24914819D02*
X73850476Y-24962438D01*
X73850476Y-24962438D02*
X73898095Y-25010057D01*
X73898095Y-25010057D02*
X73945714Y-25105295D01*
X73945714Y-25105295D02*
X73945714Y-25200533D01*
X73945714Y-25200533D02*
X73898095Y-25343390D01*
X73898095Y-25343390D02*
X73326667Y-25914819D01*
X73326667Y-25914819D02*
X73945714Y-25914819D01*
X74850476Y-24914819D02*
X74374286Y-24914819D01*
X74374286Y-24914819D02*
X74326667Y-25391009D01*
X74326667Y-25391009D02*
X74374286Y-25343390D01*
X74374286Y-25343390D02*
X74469524Y-25295771D01*
X74469524Y-25295771D02*
X74707619Y-25295771D01*
X74707619Y-25295771D02*
X74802857Y-25343390D01*
X74802857Y-25343390D02*
X74850476Y-25391009D01*
X74850476Y-25391009D02*
X74898095Y-25486247D01*
X74898095Y-25486247D02*
X74898095Y-25724342D01*
X74898095Y-25724342D02*
X74850476Y-25819580D01*
X74850476Y-25819580D02*
X74802857Y-25867200D01*
X74802857Y-25867200D02*
X74707619Y-25914819D01*
X74707619Y-25914819D02*
X74469524Y-25914819D01*
X74469524Y-25914819D02*
X74374286Y-25867200D01*
X74374286Y-25867200D02*
X74326667Y-25819580D01*
X75231429Y-25248152D02*
X75469524Y-25914819D01*
X75469524Y-25914819D02*
X75707619Y-25248152D01*
X72493333Y-29569580D02*
X72445714Y-29617200D01*
X72445714Y-29617200D02*
X72302857Y-29664819D01*
X72302857Y-29664819D02*
X72207619Y-29664819D01*
X72207619Y-29664819D02*
X72064762Y-29617200D01*
X72064762Y-29617200D02*
X71969524Y-29521961D01*
X71969524Y-29521961D02*
X71921905Y-29426723D01*
X71921905Y-29426723D02*
X71874286Y-29236247D01*
X71874286Y-29236247D02*
X71874286Y-29093390D01*
X71874286Y-29093390D02*
X71921905Y-28902914D01*
X71921905Y-28902914D02*
X71969524Y-28807676D01*
X71969524Y-28807676D02*
X72064762Y-28712438D01*
X72064762Y-28712438D02*
X72207619Y-28664819D01*
X72207619Y-28664819D02*
X72302857Y-28664819D01*
X72302857Y-28664819D02*
X72445714Y-28712438D01*
X72445714Y-28712438D02*
X72493333Y-28760057D01*
X73445714Y-29664819D02*
X72874286Y-29664819D01*
X73160000Y-29664819D02*
X73160000Y-28664819D01*
X73160000Y-28664819D02*
X73064762Y-28807676D01*
X73064762Y-28807676D02*
X72969524Y-28902914D01*
X72969524Y-28902914D02*
X72874286Y-28950533D01*
X94434819Y-28096666D02*
X93958628Y-28429999D01*
X94434819Y-28668094D02*
X93434819Y-28668094D01*
X93434819Y-28668094D02*
X93434819Y-28287142D01*
X93434819Y-28287142D02*
X93482438Y-28191904D01*
X93482438Y-28191904D02*
X93530057Y-28144285D01*
X93530057Y-28144285D02*
X93625295Y-28096666D01*
X93625295Y-28096666D02*
X93768152Y-28096666D01*
X93768152Y-28096666D02*
X93863390Y-28144285D01*
X93863390Y-28144285D02*
X93911009Y-28191904D01*
X93911009Y-28191904D02*
X93958628Y-28287142D01*
X93958628Y-28287142D02*
X93958628Y-28668094D01*
X94434819Y-27144285D02*
X94434819Y-27715713D01*
X94434819Y-27429999D02*
X93434819Y-27429999D01*
X93434819Y-27429999D02*
X93577676Y-27525237D01*
X93577676Y-27525237D02*
X93672914Y-27620475D01*
X93672914Y-27620475D02*
X93720533Y-27715713D01*
X52524819Y-47622857D02*
X52048628Y-47956190D01*
X52524819Y-48194285D02*
X51524819Y-48194285D01*
X51524819Y-48194285D02*
X51524819Y-47813333D01*
X51524819Y-47813333D02*
X51572438Y-47718095D01*
X51572438Y-47718095D02*
X51620057Y-47670476D01*
X51620057Y-47670476D02*
X51715295Y-47622857D01*
X51715295Y-47622857D02*
X51858152Y-47622857D01*
X51858152Y-47622857D02*
X51953390Y-47670476D01*
X51953390Y-47670476D02*
X52001009Y-47718095D01*
X52001009Y-47718095D02*
X52048628Y-47813333D01*
X52048628Y-47813333D02*
X52048628Y-48194285D01*
X52524819Y-46670476D02*
X52524819Y-47241904D01*
X52524819Y-46956190D02*
X51524819Y-46956190D01*
X51524819Y-46956190D02*
X51667676Y-47051428D01*
X51667676Y-47051428D02*
X51762914Y-47146666D01*
X51762914Y-47146666D02*
X51810533Y-47241904D01*
X52524819Y-45718095D02*
X52524819Y-46289523D01*
X52524819Y-46003809D02*
X51524819Y-46003809D01*
X51524819Y-46003809D02*
X51667676Y-46099047D01*
X51667676Y-46099047D02*
X51762914Y-46194285D01*
X51762914Y-46194285D02*
X51810533Y-46289523D01*
X95704819Y-47146666D02*
X95228628Y-47479999D01*
X95704819Y-47718094D02*
X94704819Y-47718094D01*
X94704819Y-47718094D02*
X94704819Y-47337142D01*
X94704819Y-47337142D02*
X94752438Y-47241904D01*
X94752438Y-47241904D02*
X94800057Y-47194285D01*
X94800057Y-47194285D02*
X94895295Y-47146666D01*
X94895295Y-47146666D02*
X95038152Y-47146666D01*
X95038152Y-47146666D02*
X95133390Y-47194285D01*
X95133390Y-47194285D02*
X95181009Y-47241904D01*
X95181009Y-47241904D02*
X95228628Y-47337142D01*
X95228628Y-47337142D02*
X95228628Y-47718094D01*
X95038152Y-46289523D02*
X95704819Y-46289523D01*
X94657200Y-46527618D02*
X95371485Y-46765713D01*
X95371485Y-46765713D02*
X95371485Y-46146666D01*
X107134819Y-47146666D02*
X106658628Y-47479999D01*
X107134819Y-47718094D02*
X106134819Y-47718094D01*
X106134819Y-47718094D02*
X106134819Y-47337142D01*
X106134819Y-47337142D02*
X106182438Y-47241904D01*
X106182438Y-47241904D02*
X106230057Y-47194285D01*
X106230057Y-47194285D02*
X106325295Y-47146666D01*
X106325295Y-47146666D02*
X106468152Y-47146666D01*
X106468152Y-47146666D02*
X106563390Y-47194285D01*
X106563390Y-47194285D02*
X106611009Y-47241904D01*
X106611009Y-47241904D02*
X106658628Y-47337142D01*
X106658628Y-47337142D02*
X106658628Y-47718094D01*
X106134819Y-46813332D02*
X106134819Y-46146666D01*
X106134819Y-46146666D02*
X107134819Y-46575237D01*
X46174819Y-26947619D02*
X46174819Y-27519047D01*
X46174819Y-27233333D02*
X45174819Y-27233333D01*
X45174819Y-27233333D02*
X45317676Y-27328571D01*
X45317676Y-27328571D02*
X45412914Y-27423809D01*
X45412914Y-27423809D02*
X45460533Y-27519047D01*
X45174819Y-26328571D02*
X45174819Y-26233333D01*
X45174819Y-26233333D02*
X45222438Y-26138095D01*
X45222438Y-26138095D02*
X45270057Y-26090476D01*
X45270057Y-26090476D02*
X45365295Y-26042857D01*
X45365295Y-26042857D02*
X45555771Y-25995238D01*
X45555771Y-25995238D02*
X45793866Y-25995238D01*
X45793866Y-25995238D02*
X45984342Y-26042857D01*
X45984342Y-26042857D02*
X46079580Y-26090476D01*
X46079580Y-26090476D02*
X46127200Y-26138095D01*
X46127200Y-26138095D02*
X46174819Y-26233333D01*
X46174819Y-26233333D02*
X46174819Y-26328571D01*
X46174819Y-26328571D02*
X46127200Y-26423809D01*
X46127200Y-26423809D02*
X46079580Y-26471428D01*
X46079580Y-26471428D02*
X45984342Y-26519047D01*
X45984342Y-26519047D02*
X45793866Y-26566666D01*
X45793866Y-26566666D02*
X45555771Y-26566666D01*
X45555771Y-26566666D02*
X45365295Y-26519047D01*
X45365295Y-26519047D02*
X45270057Y-26471428D01*
X45270057Y-26471428D02*
X45222438Y-26423809D01*
X45222438Y-26423809D02*
X45174819Y-26328571D01*
X45174819Y-25376190D02*
X45174819Y-25280952D01*
X45174819Y-25280952D02*
X45222438Y-25185714D01*
X45222438Y-25185714D02*
X45270057Y-25138095D01*
X45270057Y-25138095D02*
X45365295Y-25090476D01*
X45365295Y-25090476D02*
X45555771Y-25042857D01*
X45555771Y-25042857D02*
X45793866Y-25042857D01*
X45793866Y-25042857D02*
X45984342Y-25090476D01*
X45984342Y-25090476D02*
X46079580Y-25138095D01*
X46079580Y-25138095D02*
X46127200Y-25185714D01*
X46127200Y-25185714D02*
X46174819Y-25280952D01*
X46174819Y-25280952D02*
X46174819Y-25376190D01*
X46174819Y-25376190D02*
X46127200Y-25471428D01*
X46127200Y-25471428D02*
X46079580Y-25519047D01*
X46079580Y-25519047D02*
X45984342Y-25566666D01*
X45984342Y-25566666D02*
X45793866Y-25614285D01*
X45793866Y-25614285D02*
X45555771Y-25614285D01*
X45555771Y-25614285D02*
X45365295Y-25566666D01*
X45365295Y-25566666D02*
X45270057Y-25519047D01*
X45270057Y-25519047D02*
X45222438Y-25471428D01*
X45222438Y-25471428D02*
X45174819Y-25376190D01*
X45508152Y-24614285D02*
X46174819Y-24614285D01*
X45603390Y-24614285D02*
X45555771Y-24566666D01*
X45555771Y-24566666D02*
X45508152Y-24471428D01*
X45508152Y-24471428D02*
X45508152Y-24328571D01*
X45508152Y-24328571D02*
X45555771Y-24233333D01*
X45555771Y-24233333D02*
X45651009Y-24185714D01*
X45651009Y-24185714D02*
X46174819Y-24185714D01*
X45651009Y-23376190D02*
X45651009Y-23709523D01*
X46174819Y-23709523D02*
X45174819Y-23709523D01*
X45174819Y-23709523D02*
X45174819Y-23233333D01*
D12*
X46007664Y-19163332D02*
X46045760Y-19201428D01*
X46045760Y-19201428D02*
X46083855Y-19315713D01*
X46083855Y-19315713D02*
X46083855Y-19391904D01*
X46083855Y-19391904D02*
X46045760Y-19506190D01*
X46045760Y-19506190D02*
X45969569Y-19582380D01*
X45969569Y-19582380D02*
X45893379Y-19620475D01*
X45893379Y-19620475D02*
X45740998Y-19658571D01*
X45740998Y-19658571D02*
X45626712Y-19658571D01*
X45626712Y-19658571D02*
X45474331Y-19620475D01*
X45474331Y-19620475D02*
X45398140Y-19582380D01*
X45398140Y-19582380D02*
X45321950Y-19506190D01*
X45321950Y-19506190D02*
X45283855Y-19391904D01*
X45283855Y-19391904D02*
X45283855Y-19315713D01*
X45283855Y-19315713D02*
X45321950Y-19201428D01*
X45321950Y-19201428D02*
X45360045Y-19163332D01*
X45283855Y-18896666D02*
X45283855Y-18401428D01*
X45283855Y-18401428D02*
X45588617Y-18668094D01*
X45588617Y-18668094D02*
X45588617Y-18553809D01*
X45588617Y-18553809D02*
X45626712Y-18477618D01*
X45626712Y-18477618D02*
X45664807Y-18439523D01*
X45664807Y-18439523D02*
X45740998Y-18401428D01*
X45740998Y-18401428D02*
X45931474Y-18401428D01*
X45931474Y-18401428D02*
X46007664Y-18439523D01*
X46007664Y-18439523D02*
X46045760Y-18477618D01*
X46045760Y-18477618D02*
X46083855Y-18553809D01*
X46083855Y-18553809D02*
X46083855Y-18782380D01*
X46083855Y-18782380D02*
X46045760Y-18858571D01*
X46045760Y-18858571D02*
X46007664Y-18896666D01*
D10*
X110944819Y-47146666D02*
X110468628Y-47479999D01*
X110944819Y-47718094D02*
X109944819Y-47718094D01*
X109944819Y-47718094D02*
X109944819Y-47337142D01*
X109944819Y-47337142D02*
X109992438Y-47241904D01*
X109992438Y-47241904D02*
X110040057Y-47194285D01*
X110040057Y-47194285D02*
X110135295Y-47146666D01*
X110135295Y-47146666D02*
X110278152Y-47146666D01*
X110278152Y-47146666D02*
X110373390Y-47194285D01*
X110373390Y-47194285D02*
X110421009Y-47241904D01*
X110421009Y-47241904D02*
X110468628Y-47337142D01*
X110468628Y-47337142D02*
X110468628Y-47718094D01*
X110373390Y-46575237D02*
X110325771Y-46670475D01*
X110325771Y-46670475D02*
X110278152Y-46718094D01*
X110278152Y-46718094D02*
X110182914Y-46765713D01*
X110182914Y-46765713D02*
X110135295Y-46765713D01*
X110135295Y-46765713D02*
X110040057Y-46718094D01*
X110040057Y-46718094D02*
X109992438Y-46670475D01*
X109992438Y-46670475D02*
X109944819Y-46575237D01*
X109944819Y-46575237D02*
X109944819Y-46384761D01*
X109944819Y-46384761D02*
X109992438Y-46289523D01*
X109992438Y-46289523D02*
X110040057Y-46241904D01*
X110040057Y-46241904D02*
X110135295Y-46194285D01*
X110135295Y-46194285D02*
X110182914Y-46194285D01*
X110182914Y-46194285D02*
X110278152Y-46241904D01*
X110278152Y-46241904D02*
X110325771Y-46289523D01*
X110325771Y-46289523D02*
X110373390Y-46384761D01*
X110373390Y-46384761D02*
X110373390Y-46575237D01*
X110373390Y-46575237D02*
X110421009Y-46670475D01*
X110421009Y-46670475D02*
X110468628Y-46718094D01*
X110468628Y-46718094D02*
X110563866Y-46765713D01*
X110563866Y-46765713D02*
X110754342Y-46765713D01*
X110754342Y-46765713D02*
X110849580Y-46718094D01*
X110849580Y-46718094D02*
X110897200Y-46670475D01*
X110897200Y-46670475D02*
X110944819Y-46575237D01*
X110944819Y-46575237D02*
X110944819Y-46384761D01*
X110944819Y-46384761D02*
X110897200Y-46289523D01*
X110897200Y-46289523D02*
X110849580Y-46241904D01*
X110849580Y-46241904D02*
X110754342Y-46194285D01*
X110754342Y-46194285D02*
X110563866Y-46194285D01*
X110563866Y-46194285D02*
X110468628Y-46241904D01*
X110468628Y-46241904D02*
X110421009Y-46289523D01*
X110421009Y-46289523D02*
X110373390Y-46384761D01*
X61414819Y-26947619D02*
X61414819Y-27519047D01*
X61414819Y-27233333D02*
X60414819Y-27233333D01*
X60414819Y-27233333D02*
X60557676Y-27328571D01*
X60557676Y-27328571D02*
X60652914Y-27423809D01*
X60652914Y-27423809D02*
X60700533Y-27519047D01*
X60414819Y-26328571D02*
X60414819Y-26233333D01*
X60414819Y-26233333D02*
X60462438Y-26138095D01*
X60462438Y-26138095D02*
X60510057Y-26090476D01*
X60510057Y-26090476D02*
X60605295Y-26042857D01*
X60605295Y-26042857D02*
X60795771Y-25995238D01*
X60795771Y-25995238D02*
X61033866Y-25995238D01*
X61033866Y-25995238D02*
X61224342Y-26042857D01*
X61224342Y-26042857D02*
X61319580Y-26090476D01*
X61319580Y-26090476D02*
X61367200Y-26138095D01*
X61367200Y-26138095D02*
X61414819Y-26233333D01*
X61414819Y-26233333D02*
X61414819Y-26328571D01*
X61414819Y-26328571D02*
X61367200Y-26423809D01*
X61367200Y-26423809D02*
X61319580Y-26471428D01*
X61319580Y-26471428D02*
X61224342Y-26519047D01*
X61224342Y-26519047D02*
X61033866Y-26566666D01*
X61033866Y-26566666D02*
X60795771Y-26566666D01*
X60795771Y-26566666D02*
X60605295Y-26519047D01*
X60605295Y-26519047D02*
X60510057Y-26471428D01*
X60510057Y-26471428D02*
X60462438Y-26423809D01*
X60462438Y-26423809D02*
X60414819Y-26328571D01*
X60414819Y-25376190D02*
X60414819Y-25280952D01*
X60414819Y-25280952D02*
X60462438Y-25185714D01*
X60462438Y-25185714D02*
X60510057Y-25138095D01*
X60510057Y-25138095D02*
X60605295Y-25090476D01*
X60605295Y-25090476D02*
X60795771Y-25042857D01*
X60795771Y-25042857D02*
X61033866Y-25042857D01*
X61033866Y-25042857D02*
X61224342Y-25090476D01*
X61224342Y-25090476D02*
X61319580Y-25138095D01*
X61319580Y-25138095D02*
X61367200Y-25185714D01*
X61367200Y-25185714D02*
X61414819Y-25280952D01*
X61414819Y-25280952D02*
X61414819Y-25376190D01*
X61414819Y-25376190D02*
X61367200Y-25471428D01*
X61367200Y-25471428D02*
X61319580Y-25519047D01*
X61319580Y-25519047D02*
X61224342Y-25566666D01*
X61224342Y-25566666D02*
X61033866Y-25614285D01*
X61033866Y-25614285D02*
X60795771Y-25614285D01*
X60795771Y-25614285D02*
X60605295Y-25566666D01*
X60605295Y-25566666D02*
X60510057Y-25519047D01*
X60510057Y-25519047D02*
X60462438Y-25471428D01*
X60462438Y-25471428D02*
X60414819Y-25376190D01*
X60748152Y-24614285D02*
X61414819Y-24614285D01*
X60843390Y-24614285D02*
X60795771Y-24566666D01*
X60795771Y-24566666D02*
X60748152Y-24471428D01*
X60748152Y-24471428D02*
X60748152Y-24328571D01*
X60748152Y-24328571D02*
X60795771Y-24233333D01*
X60795771Y-24233333D02*
X60891009Y-24185714D01*
X60891009Y-24185714D02*
X61414819Y-24185714D01*
X60891009Y-23376190D02*
X60891009Y-23709523D01*
X61414819Y-23709523D02*
X60414819Y-23709523D01*
X60414819Y-23709523D02*
X60414819Y-23233333D01*
D12*
X61247664Y-19163332D02*
X61285760Y-19201428D01*
X61285760Y-19201428D02*
X61323855Y-19315713D01*
X61323855Y-19315713D02*
X61323855Y-19391904D01*
X61323855Y-19391904D02*
X61285760Y-19506190D01*
X61285760Y-19506190D02*
X61209569Y-19582380D01*
X61209569Y-19582380D02*
X61133379Y-19620475D01*
X61133379Y-19620475D02*
X60980998Y-19658571D01*
X60980998Y-19658571D02*
X60866712Y-19658571D01*
X60866712Y-19658571D02*
X60714331Y-19620475D01*
X60714331Y-19620475D02*
X60638140Y-19582380D01*
X60638140Y-19582380D02*
X60561950Y-19506190D01*
X60561950Y-19506190D02*
X60523855Y-19391904D01*
X60523855Y-19391904D02*
X60523855Y-19315713D01*
X60523855Y-19315713D02*
X60561950Y-19201428D01*
X60561950Y-19201428D02*
X60600045Y-19163332D01*
X60790521Y-18477618D02*
X61323855Y-18477618D01*
X60485760Y-18668094D02*
X61057188Y-18858571D01*
X61057188Y-18858571D02*
X61057188Y-18363332D01*
D10*
X99934819Y-30072857D02*
X99934819Y-30644285D01*
X99934819Y-30358571D02*
X98934819Y-30358571D01*
X98934819Y-30358571D02*
X99077676Y-30453809D01*
X99077676Y-30453809D02*
X99172914Y-30549047D01*
X99172914Y-30549047D02*
X99220533Y-30644285D01*
X99934819Y-29644285D02*
X98934819Y-29644285D01*
X98934819Y-29644285D02*
X99934819Y-29072857D01*
X99934819Y-29072857D02*
X98934819Y-29072857D01*
X99268152Y-28168095D02*
X99934819Y-28168095D01*
X98887200Y-28406190D02*
X99601485Y-28644285D01*
X99601485Y-28644285D02*
X99601485Y-28025238D01*
X99934819Y-27120476D02*
X99934819Y-27691904D01*
X99934819Y-27406190D02*
X98934819Y-27406190D01*
X98934819Y-27406190D02*
X99077676Y-27501428D01*
X99077676Y-27501428D02*
X99172914Y-27596666D01*
X99172914Y-27596666D02*
X99220533Y-27691904D01*
X99268152Y-26263333D02*
X99934819Y-26263333D01*
X98887200Y-26501428D02*
X99601485Y-26739523D01*
X99601485Y-26739523D02*
X99601485Y-26120476D01*
X99363390Y-25596666D02*
X99315771Y-25691904D01*
X99315771Y-25691904D02*
X99268152Y-25739523D01*
X99268152Y-25739523D02*
X99172914Y-25787142D01*
X99172914Y-25787142D02*
X99125295Y-25787142D01*
X99125295Y-25787142D02*
X99030057Y-25739523D01*
X99030057Y-25739523D02*
X98982438Y-25691904D01*
X98982438Y-25691904D02*
X98934819Y-25596666D01*
X98934819Y-25596666D02*
X98934819Y-25406190D01*
X98934819Y-25406190D02*
X98982438Y-25310952D01*
X98982438Y-25310952D02*
X99030057Y-25263333D01*
X99030057Y-25263333D02*
X99125295Y-25215714D01*
X99125295Y-25215714D02*
X99172914Y-25215714D01*
X99172914Y-25215714D02*
X99268152Y-25263333D01*
X99268152Y-25263333D02*
X99315771Y-25310952D01*
X99315771Y-25310952D02*
X99363390Y-25406190D01*
X99363390Y-25406190D02*
X99363390Y-25596666D01*
X99363390Y-25596666D02*
X99411009Y-25691904D01*
X99411009Y-25691904D02*
X99458628Y-25739523D01*
X99458628Y-25739523D02*
X99553866Y-25787142D01*
X99553866Y-25787142D02*
X99744342Y-25787142D01*
X99744342Y-25787142D02*
X99839580Y-25739523D01*
X99839580Y-25739523D02*
X99887200Y-25691904D01*
X99887200Y-25691904D02*
X99934819Y-25596666D01*
X99934819Y-25596666D02*
X99934819Y-25406190D01*
X99934819Y-25406190D02*
X99887200Y-25310952D01*
X99887200Y-25310952D02*
X99839580Y-25263333D01*
X99839580Y-25263333D02*
X99744342Y-25215714D01*
X99744342Y-25215714D02*
X99553866Y-25215714D01*
X99553866Y-25215714D02*
X99458628Y-25263333D01*
X99458628Y-25263333D02*
X99411009Y-25310952D01*
X99411009Y-25310952D02*
X99363390Y-25406190D01*
D12*
X101963855Y-28820475D02*
X101163855Y-28820475D01*
X101163855Y-28820475D02*
X101163855Y-28629999D01*
X101163855Y-28629999D02*
X101201950Y-28515713D01*
X101201950Y-28515713D02*
X101278140Y-28439523D01*
X101278140Y-28439523D02*
X101354331Y-28401428D01*
X101354331Y-28401428D02*
X101506712Y-28363332D01*
X101506712Y-28363332D02*
X101620998Y-28363332D01*
X101620998Y-28363332D02*
X101773379Y-28401428D01*
X101773379Y-28401428D02*
X101849569Y-28439523D01*
X101849569Y-28439523D02*
X101925760Y-28515713D01*
X101925760Y-28515713D02*
X101963855Y-28629999D01*
X101963855Y-28629999D02*
X101963855Y-28820475D01*
X101963855Y-27601428D02*
X101963855Y-28058571D01*
X101963855Y-27829999D02*
X101163855Y-27829999D01*
X101163855Y-27829999D02*
X101278140Y-27906190D01*
X101278140Y-27906190D02*
X101354331Y-27982380D01*
X101354331Y-27982380D02*
X101392426Y-28058571D01*
D10*
X103854819Y-23111904D02*
X102854819Y-23111904D01*
X103854819Y-22540476D02*
X103283390Y-22969047D01*
X102854819Y-22540476D02*
X103426247Y-23111904D01*
X105960057Y-30565238D02*
X105912438Y-30660476D01*
X105912438Y-30660476D02*
X105817200Y-30755714D01*
X105817200Y-30755714D02*
X105674342Y-30898571D01*
X105674342Y-30898571D02*
X105626723Y-30993809D01*
X105626723Y-30993809D02*
X105626723Y-31089047D01*
X105864819Y-31041428D02*
X105817200Y-31136666D01*
X105817200Y-31136666D02*
X105721961Y-31231904D01*
X105721961Y-31231904D02*
X105531485Y-31279523D01*
X105531485Y-31279523D02*
X105198152Y-31279523D01*
X105198152Y-31279523D02*
X105007676Y-31231904D01*
X105007676Y-31231904D02*
X104912438Y-31136666D01*
X104912438Y-31136666D02*
X104864819Y-31041428D01*
X104864819Y-31041428D02*
X104864819Y-30850952D01*
X104864819Y-30850952D02*
X104912438Y-30755714D01*
X104912438Y-30755714D02*
X105007676Y-30660476D01*
X105007676Y-30660476D02*
X105198152Y-30612857D01*
X105198152Y-30612857D02*
X105531485Y-30612857D01*
X105531485Y-30612857D02*
X105721961Y-30660476D01*
X105721961Y-30660476D02*
X105817200Y-30755714D01*
X105817200Y-30755714D02*
X105864819Y-30850952D01*
X105864819Y-30850952D02*
X105864819Y-31041428D01*
X105864819Y-29660476D02*
X105864819Y-30231904D01*
X105864819Y-29946190D02*
X104864819Y-29946190D01*
X104864819Y-29946190D02*
X105007676Y-30041428D01*
X105007676Y-30041428D02*
X105102914Y-30136666D01*
X105102914Y-30136666D02*
X105150533Y-30231904D01*
X85161904Y-26359580D02*
X85114285Y-26407200D01*
X85114285Y-26407200D02*
X84971428Y-26454819D01*
X84971428Y-26454819D02*
X84876190Y-26454819D01*
X84876190Y-26454819D02*
X84733333Y-26407200D01*
X84733333Y-26407200D02*
X84638095Y-26311961D01*
X84638095Y-26311961D02*
X84590476Y-26216723D01*
X84590476Y-26216723D02*
X84542857Y-26026247D01*
X84542857Y-26026247D02*
X84542857Y-25883390D01*
X84542857Y-25883390D02*
X84590476Y-25692914D01*
X84590476Y-25692914D02*
X84638095Y-25597676D01*
X84638095Y-25597676D02*
X84733333Y-25502438D01*
X84733333Y-25502438D02*
X84876190Y-25454819D01*
X84876190Y-25454819D02*
X84971428Y-25454819D01*
X84971428Y-25454819D02*
X85114285Y-25502438D01*
X85114285Y-25502438D02*
X85161904Y-25550057D01*
X85733333Y-26454819D02*
X85638095Y-26407200D01*
X85638095Y-26407200D02*
X85590476Y-26359580D01*
X85590476Y-26359580D02*
X85542857Y-26264342D01*
X85542857Y-26264342D02*
X85542857Y-25978628D01*
X85542857Y-25978628D02*
X85590476Y-25883390D01*
X85590476Y-25883390D02*
X85638095Y-25835771D01*
X85638095Y-25835771D02*
X85733333Y-25788152D01*
X85733333Y-25788152D02*
X85876190Y-25788152D01*
X85876190Y-25788152D02*
X85971428Y-25835771D01*
X85971428Y-25835771D02*
X86019047Y-25883390D01*
X86019047Y-25883390D02*
X86066666Y-25978628D01*
X86066666Y-25978628D02*
X86066666Y-26264342D01*
X86066666Y-26264342D02*
X86019047Y-26359580D01*
X86019047Y-26359580D02*
X85971428Y-26407200D01*
X85971428Y-26407200D02*
X85876190Y-26454819D01*
X85876190Y-26454819D02*
X85733333Y-26454819D01*
X86495238Y-25788152D02*
X86495238Y-26454819D01*
X86495238Y-25883390D02*
X86542857Y-25835771D01*
X86542857Y-25835771D02*
X86638095Y-25788152D01*
X86638095Y-25788152D02*
X86780952Y-25788152D01*
X86780952Y-25788152D02*
X86876190Y-25835771D01*
X86876190Y-25835771D02*
X86923809Y-25931009D01*
X86923809Y-25931009D02*
X86923809Y-26454819D01*
X87400000Y-25788152D02*
X87400000Y-26454819D01*
X87400000Y-25883390D02*
X87447619Y-25835771D01*
X87447619Y-25835771D02*
X87542857Y-25788152D01*
X87542857Y-25788152D02*
X87685714Y-25788152D01*
X87685714Y-25788152D02*
X87780952Y-25835771D01*
X87780952Y-25835771D02*
X87828571Y-25931009D01*
X87828571Y-25931009D02*
X87828571Y-26454819D01*
X88066667Y-26550057D02*
X88828571Y-26550057D01*
X89257143Y-25454819D02*
X89352381Y-25454819D01*
X89352381Y-25454819D02*
X89447619Y-25502438D01*
X89447619Y-25502438D02*
X89495238Y-25550057D01*
X89495238Y-25550057D02*
X89542857Y-25645295D01*
X89542857Y-25645295D02*
X89590476Y-25835771D01*
X89590476Y-25835771D02*
X89590476Y-26073866D01*
X89590476Y-26073866D02*
X89542857Y-26264342D01*
X89542857Y-26264342D02*
X89495238Y-26359580D01*
X89495238Y-26359580D02*
X89447619Y-26407200D01*
X89447619Y-26407200D02*
X89352381Y-26454819D01*
X89352381Y-26454819D02*
X89257143Y-26454819D01*
X89257143Y-26454819D02*
X89161905Y-26407200D01*
X89161905Y-26407200D02*
X89114286Y-26359580D01*
X89114286Y-26359580D02*
X89066667Y-26264342D01*
X89066667Y-26264342D02*
X89019048Y-26073866D01*
X89019048Y-26073866D02*
X89019048Y-25835771D01*
X89019048Y-25835771D02*
X89066667Y-25645295D01*
X89066667Y-25645295D02*
X89114286Y-25550057D01*
X89114286Y-25550057D02*
X89161905Y-25502438D01*
X89161905Y-25502438D02*
X89257143Y-25454819D01*
X90542857Y-26454819D02*
X89971429Y-26454819D01*
X90257143Y-26454819D02*
X90257143Y-25454819D01*
X90257143Y-25454819D02*
X90161905Y-25597676D01*
X90161905Y-25597676D02*
X90066667Y-25692914D01*
X90066667Y-25692914D02*
X89971429Y-25740533D01*
X90876191Y-26454819D02*
X91400000Y-25788152D01*
X90876191Y-25788152D02*
X91400000Y-26454819D01*
X91971429Y-25454819D02*
X92066667Y-25454819D01*
X92066667Y-25454819D02*
X92161905Y-25502438D01*
X92161905Y-25502438D02*
X92209524Y-25550057D01*
X92209524Y-25550057D02*
X92257143Y-25645295D01*
X92257143Y-25645295D02*
X92304762Y-25835771D01*
X92304762Y-25835771D02*
X92304762Y-26073866D01*
X92304762Y-26073866D02*
X92257143Y-26264342D01*
X92257143Y-26264342D02*
X92209524Y-26359580D01*
X92209524Y-26359580D02*
X92161905Y-26407200D01*
X92161905Y-26407200D02*
X92066667Y-26454819D01*
X92066667Y-26454819D02*
X91971429Y-26454819D01*
X91971429Y-26454819D02*
X91876191Y-26407200D01*
X91876191Y-26407200D02*
X91828572Y-26359580D01*
X91828572Y-26359580D02*
X91780953Y-26264342D01*
X91780953Y-26264342D02*
X91733334Y-26073866D01*
X91733334Y-26073866D02*
X91733334Y-25835771D01*
X91733334Y-25835771D02*
X91780953Y-25645295D01*
X91780953Y-25645295D02*
X91828572Y-25550057D01*
X91828572Y-25550057D02*
X91876191Y-25502438D01*
X91876191Y-25502438D02*
X91971429Y-25454819D01*
X93257143Y-26454819D02*
X92685715Y-26454819D01*
X92971429Y-26454819D02*
X92971429Y-25454819D01*
X92971429Y-25454819D02*
X92876191Y-25597676D01*
X92876191Y-25597676D02*
X92780953Y-25692914D01*
X92780953Y-25692914D02*
X92685715Y-25740533D01*
X85123333Y-22315566D02*
X85683333Y-22315566D01*
X85403333Y-23295566D02*
X85403333Y-22315566D01*
X85916667Y-22315566D02*
X86570000Y-23295566D01*
X86570000Y-22315566D02*
X85916667Y-23295566D01*
X86943333Y-23295566D02*
X86943333Y-22315566D01*
X86943333Y-22315566D02*
X87176666Y-22315566D01*
X87176666Y-22315566D02*
X87316666Y-22362233D01*
X87316666Y-22362233D02*
X87410000Y-22455566D01*
X87410000Y-22455566D02*
X87456666Y-22548900D01*
X87456666Y-22548900D02*
X87503333Y-22735566D01*
X87503333Y-22735566D02*
X87503333Y-22875566D01*
X87503333Y-22875566D02*
X87456666Y-23062233D01*
X87456666Y-23062233D02*
X87410000Y-23155566D01*
X87410000Y-23155566D02*
X87316666Y-23248900D01*
X87316666Y-23248900D02*
X87176666Y-23295566D01*
X87176666Y-23295566D02*
X86943333Y-23295566D01*
X22044819Y-42542857D02*
X21568628Y-42876190D01*
X22044819Y-43114285D02*
X21044819Y-43114285D01*
X21044819Y-43114285D02*
X21044819Y-42733333D01*
X21044819Y-42733333D02*
X21092438Y-42638095D01*
X21092438Y-42638095D02*
X21140057Y-42590476D01*
X21140057Y-42590476D02*
X21235295Y-42542857D01*
X21235295Y-42542857D02*
X21378152Y-42542857D01*
X21378152Y-42542857D02*
X21473390Y-42590476D01*
X21473390Y-42590476D02*
X21521009Y-42638095D01*
X21521009Y-42638095D02*
X21568628Y-42733333D01*
X21568628Y-42733333D02*
X21568628Y-43114285D01*
X22044819Y-41590476D02*
X22044819Y-42161904D01*
X22044819Y-41876190D02*
X21044819Y-41876190D01*
X21044819Y-41876190D02*
X21187676Y-41971428D01*
X21187676Y-41971428D02*
X21282914Y-42066666D01*
X21282914Y-42066666D02*
X21330533Y-42161904D01*
X21378152Y-40733333D02*
X22044819Y-40733333D01*
X20997200Y-40971428D02*
X21711485Y-41209523D01*
X21711485Y-41209523D02*
X21711485Y-40590476D01*
X76271904Y-26359580D02*
X76224285Y-26407200D01*
X76224285Y-26407200D02*
X76081428Y-26454819D01*
X76081428Y-26454819D02*
X75986190Y-26454819D01*
X75986190Y-26454819D02*
X75843333Y-26407200D01*
X75843333Y-26407200D02*
X75748095Y-26311961D01*
X75748095Y-26311961D02*
X75700476Y-26216723D01*
X75700476Y-26216723D02*
X75652857Y-26026247D01*
X75652857Y-26026247D02*
X75652857Y-25883390D01*
X75652857Y-25883390D02*
X75700476Y-25692914D01*
X75700476Y-25692914D02*
X75748095Y-25597676D01*
X75748095Y-25597676D02*
X75843333Y-25502438D01*
X75843333Y-25502438D02*
X75986190Y-25454819D01*
X75986190Y-25454819D02*
X76081428Y-25454819D01*
X76081428Y-25454819D02*
X76224285Y-25502438D01*
X76224285Y-25502438D02*
X76271904Y-25550057D01*
X76843333Y-26454819D02*
X76748095Y-26407200D01*
X76748095Y-26407200D02*
X76700476Y-26359580D01*
X76700476Y-26359580D02*
X76652857Y-26264342D01*
X76652857Y-26264342D02*
X76652857Y-25978628D01*
X76652857Y-25978628D02*
X76700476Y-25883390D01*
X76700476Y-25883390D02*
X76748095Y-25835771D01*
X76748095Y-25835771D02*
X76843333Y-25788152D01*
X76843333Y-25788152D02*
X76986190Y-25788152D01*
X76986190Y-25788152D02*
X77081428Y-25835771D01*
X77081428Y-25835771D02*
X77129047Y-25883390D01*
X77129047Y-25883390D02*
X77176666Y-25978628D01*
X77176666Y-25978628D02*
X77176666Y-26264342D01*
X77176666Y-26264342D02*
X77129047Y-26359580D01*
X77129047Y-26359580D02*
X77081428Y-26407200D01*
X77081428Y-26407200D02*
X76986190Y-26454819D01*
X76986190Y-26454819D02*
X76843333Y-26454819D01*
X77605238Y-25788152D02*
X77605238Y-26454819D01*
X77605238Y-25883390D02*
X77652857Y-25835771D01*
X77652857Y-25835771D02*
X77748095Y-25788152D01*
X77748095Y-25788152D02*
X77890952Y-25788152D01*
X77890952Y-25788152D02*
X77986190Y-25835771D01*
X77986190Y-25835771D02*
X78033809Y-25931009D01*
X78033809Y-25931009D02*
X78033809Y-26454819D01*
X78510000Y-25788152D02*
X78510000Y-26454819D01*
X78510000Y-25883390D02*
X78557619Y-25835771D01*
X78557619Y-25835771D02*
X78652857Y-25788152D01*
X78652857Y-25788152D02*
X78795714Y-25788152D01*
X78795714Y-25788152D02*
X78890952Y-25835771D01*
X78890952Y-25835771D02*
X78938571Y-25931009D01*
X78938571Y-25931009D02*
X78938571Y-26454819D01*
X79176667Y-26550057D02*
X79938571Y-26550057D01*
X80367143Y-25454819D02*
X80462381Y-25454819D01*
X80462381Y-25454819D02*
X80557619Y-25502438D01*
X80557619Y-25502438D02*
X80605238Y-25550057D01*
X80605238Y-25550057D02*
X80652857Y-25645295D01*
X80652857Y-25645295D02*
X80700476Y-25835771D01*
X80700476Y-25835771D02*
X80700476Y-26073866D01*
X80700476Y-26073866D02*
X80652857Y-26264342D01*
X80652857Y-26264342D02*
X80605238Y-26359580D01*
X80605238Y-26359580D02*
X80557619Y-26407200D01*
X80557619Y-26407200D02*
X80462381Y-26454819D01*
X80462381Y-26454819D02*
X80367143Y-26454819D01*
X80367143Y-26454819D02*
X80271905Y-26407200D01*
X80271905Y-26407200D02*
X80224286Y-26359580D01*
X80224286Y-26359580D02*
X80176667Y-26264342D01*
X80176667Y-26264342D02*
X80129048Y-26073866D01*
X80129048Y-26073866D02*
X80129048Y-25835771D01*
X80129048Y-25835771D02*
X80176667Y-25645295D01*
X80176667Y-25645295D02*
X80224286Y-25550057D01*
X80224286Y-25550057D02*
X80271905Y-25502438D01*
X80271905Y-25502438D02*
X80367143Y-25454819D01*
X81652857Y-26454819D02*
X81081429Y-26454819D01*
X81367143Y-26454819D02*
X81367143Y-25454819D01*
X81367143Y-25454819D02*
X81271905Y-25597676D01*
X81271905Y-25597676D02*
X81176667Y-25692914D01*
X81176667Y-25692914D02*
X81081429Y-25740533D01*
X81986191Y-26454819D02*
X82510000Y-25788152D01*
X81986191Y-25788152D02*
X82510000Y-26454819D01*
X83081429Y-25454819D02*
X83176667Y-25454819D01*
X83176667Y-25454819D02*
X83271905Y-25502438D01*
X83271905Y-25502438D02*
X83319524Y-25550057D01*
X83319524Y-25550057D02*
X83367143Y-25645295D01*
X83367143Y-25645295D02*
X83414762Y-25835771D01*
X83414762Y-25835771D02*
X83414762Y-26073866D01*
X83414762Y-26073866D02*
X83367143Y-26264342D01*
X83367143Y-26264342D02*
X83319524Y-26359580D01*
X83319524Y-26359580D02*
X83271905Y-26407200D01*
X83271905Y-26407200D02*
X83176667Y-26454819D01*
X83176667Y-26454819D02*
X83081429Y-26454819D01*
X83081429Y-26454819D02*
X82986191Y-26407200D01*
X82986191Y-26407200D02*
X82938572Y-26359580D01*
X82938572Y-26359580D02*
X82890953Y-26264342D01*
X82890953Y-26264342D02*
X82843334Y-26073866D01*
X82843334Y-26073866D02*
X82843334Y-25835771D01*
X82843334Y-25835771D02*
X82890953Y-25645295D01*
X82890953Y-25645295D02*
X82938572Y-25550057D01*
X82938572Y-25550057D02*
X82986191Y-25502438D01*
X82986191Y-25502438D02*
X83081429Y-25454819D01*
X84367143Y-26454819D02*
X83795715Y-26454819D01*
X84081429Y-26454819D02*
X84081429Y-25454819D01*
X84081429Y-25454819D02*
X83986191Y-25597676D01*
X83986191Y-25597676D02*
X83890953Y-25692914D01*
X83890953Y-25692914D02*
X83795715Y-25740533D01*
X79263333Y-22362233D02*
X79170000Y-22315566D01*
X79170000Y-22315566D02*
X79030000Y-22315566D01*
X79030000Y-22315566D02*
X78890000Y-22362233D01*
X78890000Y-22362233D02*
X78796667Y-22455566D01*
X78796667Y-22455566D02*
X78750000Y-22548900D01*
X78750000Y-22548900D02*
X78703333Y-22735566D01*
X78703333Y-22735566D02*
X78703333Y-22875566D01*
X78703333Y-22875566D02*
X78750000Y-23062233D01*
X78750000Y-23062233D02*
X78796667Y-23155566D01*
X78796667Y-23155566D02*
X78890000Y-23248900D01*
X78890000Y-23248900D02*
X79030000Y-23295566D01*
X79030000Y-23295566D02*
X79123333Y-23295566D01*
X79123333Y-23295566D02*
X79263333Y-23248900D01*
X79263333Y-23248900D02*
X79310000Y-23202233D01*
X79310000Y-23202233D02*
X79310000Y-22875566D01*
X79310000Y-22875566D02*
X79123333Y-22875566D01*
X79730000Y-23295566D02*
X79730000Y-22315566D01*
X79730000Y-22315566D02*
X80290000Y-23295566D01*
X80290000Y-23295566D02*
X80290000Y-22315566D01*
X80756667Y-23295566D02*
X80756667Y-22315566D01*
X80756667Y-22315566D02*
X80990000Y-22315566D01*
X80990000Y-22315566D02*
X81130000Y-22362233D01*
X81130000Y-22362233D02*
X81223334Y-22455566D01*
X81223334Y-22455566D02*
X81270000Y-22548900D01*
X81270000Y-22548900D02*
X81316667Y-22735566D01*
X81316667Y-22735566D02*
X81316667Y-22875566D01*
X81316667Y-22875566D02*
X81270000Y-23062233D01*
X81270000Y-23062233D02*
X81223334Y-23155566D01*
X81223334Y-23155566D02*
X81130000Y-23248900D01*
X81130000Y-23248900D02*
X80990000Y-23295566D01*
X80990000Y-23295566D02*
X80756667Y-23295566D01*
X71574819Y-47622857D02*
X71098628Y-47956190D01*
X71574819Y-48194285D02*
X70574819Y-48194285D01*
X70574819Y-48194285D02*
X70574819Y-47813333D01*
X70574819Y-47813333D02*
X70622438Y-47718095D01*
X70622438Y-47718095D02*
X70670057Y-47670476D01*
X70670057Y-47670476D02*
X70765295Y-47622857D01*
X70765295Y-47622857D02*
X70908152Y-47622857D01*
X70908152Y-47622857D02*
X71003390Y-47670476D01*
X71003390Y-47670476D02*
X71051009Y-47718095D01*
X71051009Y-47718095D02*
X71098628Y-47813333D01*
X71098628Y-47813333D02*
X71098628Y-48194285D01*
X71574819Y-46670476D02*
X71574819Y-47241904D01*
X71574819Y-46956190D02*
X70574819Y-46956190D01*
X70574819Y-46956190D02*
X70717676Y-47051428D01*
X70717676Y-47051428D02*
X70812914Y-47146666D01*
X70812914Y-47146666D02*
X70860533Y-47241904D01*
X70574819Y-46337142D02*
X70574819Y-45670476D01*
X70574819Y-45670476D02*
X71574819Y-46099047D01*
X105918095Y-66494819D02*
X105918095Y-65494819D01*
X105918095Y-65971009D02*
X106489523Y-65971009D01*
X106489523Y-66494819D02*
X106489523Y-65494819D01*
X106870476Y-65494819D02*
X107489523Y-65494819D01*
X107489523Y-65494819D02*
X107156190Y-65875771D01*
X107156190Y-65875771D02*
X107299047Y-65875771D01*
X107299047Y-65875771D02*
X107394285Y-65923390D01*
X107394285Y-65923390D02*
X107441904Y-65971009D01*
X107441904Y-65971009D02*
X107489523Y-66066247D01*
X107489523Y-66066247D02*
X107489523Y-66304342D01*
X107489523Y-66304342D02*
X107441904Y-66399580D01*
X107441904Y-66399580D02*
X107394285Y-66447200D01*
X107394285Y-66447200D02*
X107299047Y-66494819D01*
X107299047Y-66494819D02*
X107013333Y-66494819D01*
X107013333Y-66494819D02*
X106918095Y-66447200D01*
X106918095Y-66447200D02*
X106870476Y-66399580D01*
X75384819Y-47622857D02*
X74908628Y-47956190D01*
X75384819Y-48194285D02*
X74384819Y-48194285D01*
X74384819Y-48194285D02*
X74384819Y-47813333D01*
X74384819Y-47813333D02*
X74432438Y-47718095D01*
X74432438Y-47718095D02*
X74480057Y-47670476D01*
X74480057Y-47670476D02*
X74575295Y-47622857D01*
X74575295Y-47622857D02*
X74718152Y-47622857D01*
X74718152Y-47622857D02*
X74813390Y-47670476D01*
X74813390Y-47670476D02*
X74861009Y-47718095D01*
X74861009Y-47718095D02*
X74908628Y-47813333D01*
X74908628Y-47813333D02*
X74908628Y-48194285D01*
X75384819Y-46670476D02*
X75384819Y-47241904D01*
X75384819Y-46956190D02*
X74384819Y-46956190D01*
X74384819Y-46956190D02*
X74527676Y-47051428D01*
X74527676Y-47051428D02*
X74622914Y-47146666D01*
X74622914Y-47146666D02*
X74670533Y-47241904D01*
X74813390Y-46099047D02*
X74765771Y-46194285D01*
X74765771Y-46194285D02*
X74718152Y-46241904D01*
X74718152Y-46241904D02*
X74622914Y-46289523D01*
X74622914Y-46289523D02*
X74575295Y-46289523D01*
X74575295Y-46289523D02*
X74480057Y-46241904D01*
X74480057Y-46241904D02*
X74432438Y-46194285D01*
X74432438Y-46194285D02*
X74384819Y-46099047D01*
X74384819Y-46099047D02*
X74384819Y-45908571D01*
X74384819Y-45908571D02*
X74432438Y-45813333D01*
X74432438Y-45813333D02*
X74480057Y-45765714D01*
X74480057Y-45765714D02*
X74575295Y-45718095D01*
X74575295Y-45718095D02*
X74622914Y-45718095D01*
X74622914Y-45718095D02*
X74718152Y-45765714D01*
X74718152Y-45765714D02*
X74765771Y-45813333D01*
X74765771Y-45813333D02*
X74813390Y-45908571D01*
X74813390Y-45908571D02*
X74813390Y-46099047D01*
X74813390Y-46099047D02*
X74861009Y-46194285D01*
X74861009Y-46194285D02*
X74908628Y-46241904D01*
X74908628Y-46241904D02*
X75003866Y-46289523D01*
X75003866Y-46289523D02*
X75194342Y-46289523D01*
X75194342Y-46289523D02*
X75289580Y-46241904D01*
X75289580Y-46241904D02*
X75337200Y-46194285D01*
X75337200Y-46194285D02*
X75384819Y-46099047D01*
X75384819Y-46099047D02*
X75384819Y-45908571D01*
X75384819Y-45908571D02*
X75337200Y-45813333D01*
X75337200Y-45813333D02*
X75289580Y-45765714D01*
X75289580Y-45765714D02*
X75194342Y-45718095D01*
X75194342Y-45718095D02*
X75003866Y-45718095D01*
X75003866Y-45718095D02*
X74908628Y-45765714D01*
X74908628Y-45765714D02*
X74861009Y-45813333D01*
X74861009Y-45813333D02*
X74813390Y-45908571D01*
X98244819Y-28096666D02*
X97768628Y-28429999D01*
X98244819Y-28668094D02*
X97244819Y-28668094D01*
X97244819Y-28668094D02*
X97244819Y-28287142D01*
X97244819Y-28287142D02*
X97292438Y-28191904D01*
X97292438Y-28191904D02*
X97340057Y-28144285D01*
X97340057Y-28144285D02*
X97435295Y-28096666D01*
X97435295Y-28096666D02*
X97578152Y-28096666D01*
X97578152Y-28096666D02*
X97673390Y-28144285D01*
X97673390Y-28144285D02*
X97721009Y-28191904D01*
X97721009Y-28191904D02*
X97768628Y-28287142D01*
X97768628Y-28287142D02*
X97768628Y-28668094D01*
X97340057Y-27715713D02*
X97292438Y-27668094D01*
X97292438Y-27668094D02*
X97244819Y-27572856D01*
X97244819Y-27572856D02*
X97244819Y-27334761D01*
X97244819Y-27334761D02*
X97292438Y-27239523D01*
X97292438Y-27239523D02*
X97340057Y-27191904D01*
X97340057Y-27191904D02*
X97435295Y-27144285D01*
X97435295Y-27144285D02*
X97530533Y-27144285D01*
X97530533Y-27144285D02*
X97673390Y-27191904D01*
X97673390Y-27191904D02*
X98244819Y-27763332D01*
X98244819Y-27763332D02*
X98244819Y-27144285D01*
X99514819Y-47146666D02*
X99038628Y-47479999D01*
X99514819Y-47718094D02*
X98514819Y-47718094D01*
X98514819Y-47718094D02*
X98514819Y-47337142D01*
X98514819Y-47337142D02*
X98562438Y-47241904D01*
X98562438Y-47241904D02*
X98610057Y-47194285D01*
X98610057Y-47194285D02*
X98705295Y-47146666D01*
X98705295Y-47146666D02*
X98848152Y-47146666D01*
X98848152Y-47146666D02*
X98943390Y-47194285D01*
X98943390Y-47194285D02*
X98991009Y-47241904D01*
X98991009Y-47241904D02*
X99038628Y-47337142D01*
X99038628Y-47337142D02*
X99038628Y-47718094D01*
X98514819Y-46241904D02*
X98514819Y-46718094D01*
X98514819Y-46718094D02*
X98991009Y-46765713D01*
X98991009Y-46765713D02*
X98943390Y-46718094D01*
X98943390Y-46718094D02*
X98895771Y-46622856D01*
X98895771Y-46622856D02*
X98895771Y-46384761D01*
X98895771Y-46384761D02*
X98943390Y-46289523D01*
X98943390Y-46289523D02*
X98991009Y-46241904D01*
X98991009Y-46241904D02*
X99086247Y-46194285D01*
X99086247Y-46194285D02*
X99324342Y-46194285D01*
X99324342Y-46194285D02*
X99419580Y-46241904D01*
X99419580Y-46241904D02*
X99467200Y-46289523D01*
X99467200Y-46289523D02*
X99514819Y-46384761D01*
X99514819Y-46384761D02*
X99514819Y-46622856D01*
X99514819Y-46622856D02*
X99467200Y-46718094D01*
X99467200Y-46718094D02*
X99419580Y-46765713D01*
X58874819Y-47146666D02*
X58398628Y-47479999D01*
X58874819Y-47718094D02*
X57874819Y-47718094D01*
X57874819Y-47718094D02*
X57874819Y-47337142D01*
X57874819Y-47337142D02*
X57922438Y-47241904D01*
X57922438Y-47241904D02*
X57970057Y-47194285D01*
X57970057Y-47194285D02*
X58065295Y-47146666D01*
X58065295Y-47146666D02*
X58208152Y-47146666D01*
X58208152Y-47146666D02*
X58303390Y-47194285D01*
X58303390Y-47194285D02*
X58351009Y-47241904D01*
X58351009Y-47241904D02*
X58398628Y-47337142D01*
X58398628Y-47337142D02*
X58398628Y-47718094D01*
X58874819Y-46670475D02*
X58874819Y-46479999D01*
X58874819Y-46479999D02*
X58827200Y-46384761D01*
X58827200Y-46384761D02*
X58779580Y-46337142D01*
X58779580Y-46337142D02*
X58636723Y-46241904D01*
X58636723Y-46241904D02*
X58446247Y-46194285D01*
X58446247Y-46194285D02*
X58065295Y-46194285D01*
X58065295Y-46194285D02*
X57970057Y-46241904D01*
X57970057Y-46241904D02*
X57922438Y-46289523D01*
X57922438Y-46289523D02*
X57874819Y-46384761D01*
X57874819Y-46384761D02*
X57874819Y-46575237D01*
X57874819Y-46575237D02*
X57922438Y-46670475D01*
X57922438Y-46670475D02*
X57970057Y-46718094D01*
X57970057Y-46718094D02*
X58065295Y-46765713D01*
X58065295Y-46765713D02*
X58303390Y-46765713D01*
X58303390Y-46765713D02*
X58398628Y-46718094D01*
X58398628Y-46718094D02*
X58446247Y-46670475D01*
X58446247Y-46670475D02*
X58493866Y-46575237D01*
X58493866Y-46575237D02*
X58493866Y-46384761D01*
X58493866Y-46384761D02*
X58446247Y-46289523D01*
X58446247Y-46289523D02*
X58398628Y-46241904D01*
X58398628Y-46241904D02*
X58303390Y-46194285D01*
X103324819Y-47146666D02*
X102848628Y-47479999D01*
X103324819Y-47718094D02*
X102324819Y-47718094D01*
X102324819Y-47718094D02*
X102324819Y-47337142D01*
X102324819Y-47337142D02*
X102372438Y-47241904D01*
X102372438Y-47241904D02*
X102420057Y-47194285D01*
X102420057Y-47194285D02*
X102515295Y-47146666D01*
X102515295Y-47146666D02*
X102658152Y-47146666D01*
X102658152Y-47146666D02*
X102753390Y-47194285D01*
X102753390Y-47194285D02*
X102801009Y-47241904D01*
X102801009Y-47241904D02*
X102848628Y-47337142D01*
X102848628Y-47337142D02*
X102848628Y-47718094D01*
X102324819Y-46289523D02*
X102324819Y-46479999D01*
X102324819Y-46479999D02*
X102372438Y-46575237D01*
X102372438Y-46575237D02*
X102420057Y-46622856D01*
X102420057Y-46622856D02*
X102562914Y-46718094D01*
X102562914Y-46718094D02*
X102753390Y-46765713D01*
X102753390Y-46765713D02*
X103134342Y-46765713D01*
X103134342Y-46765713D02*
X103229580Y-46718094D01*
X103229580Y-46718094D02*
X103277200Y-46670475D01*
X103277200Y-46670475D02*
X103324819Y-46575237D01*
X103324819Y-46575237D02*
X103324819Y-46384761D01*
X103324819Y-46384761D02*
X103277200Y-46289523D01*
X103277200Y-46289523D02*
X103229580Y-46241904D01*
X103229580Y-46241904D02*
X103134342Y-46194285D01*
X103134342Y-46194285D02*
X102896247Y-46194285D01*
X102896247Y-46194285D02*
X102801009Y-46241904D01*
X102801009Y-46241904D02*
X102753390Y-46289523D01*
X102753390Y-46289523D02*
X102705771Y-46384761D01*
X102705771Y-46384761D02*
X102705771Y-46575237D01*
X102705771Y-46575237D02*
X102753390Y-46670475D01*
X102753390Y-46670475D02*
X102801009Y-46718094D01*
X102801009Y-46718094D02*
X102896247Y-46765713D01*
X63571904Y-26359580D02*
X63524285Y-26407200D01*
X63524285Y-26407200D02*
X63381428Y-26454819D01*
X63381428Y-26454819D02*
X63286190Y-26454819D01*
X63286190Y-26454819D02*
X63143333Y-26407200D01*
X63143333Y-26407200D02*
X63048095Y-26311961D01*
X63048095Y-26311961D02*
X63000476Y-26216723D01*
X63000476Y-26216723D02*
X62952857Y-26026247D01*
X62952857Y-26026247D02*
X62952857Y-25883390D01*
X62952857Y-25883390D02*
X63000476Y-25692914D01*
X63000476Y-25692914D02*
X63048095Y-25597676D01*
X63048095Y-25597676D02*
X63143333Y-25502438D01*
X63143333Y-25502438D02*
X63286190Y-25454819D01*
X63286190Y-25454819D02*
X63381428Y-25454819D01*
X63381428Y-25454819D02*
X63524285Y-25502438D01*
X63524285Y-25502438D02*
X63571904Y-25550057D01*
X64143333Y-26454819D02*
X64048095Y-26407200D01*
X64048095Y-26407200D02*
X64000476Y-26359580D01*
X64000476Y-26359580D02*
X63952857Y-26264342D01*
X63952857Y-26264342D02*
X63952857Y-25978628D01*
X63952857Y-25978628D02*
X64000476Y-25883390D01*
X64000476Y-25883390D02*
X64048095Y-25835771D01*
X64048095Y-25835771D02*
X64143333Y-25788152D01*
X64143333Y-25788152D02*
X64286190Y-25788152D01*
X64286190Y-25788152D02*
X64381428Y-25835771D01*
X64381428Y-25835771D02*
X64429047Y-25883390D01*
X64429047Y-25883390D02*
X64476666Y-25978628D01*
X64476666Y-25978628D02*
X64476666Y-26264342D01*
X64476666Y-26264342D02*
X64429047Y-26359580D01*
X64429047Y-26359580D02*
X64381428Y-26407200D01*
X64381428Y-26407200D02*
X64286190Y-26454819D01*
X64286190Y-26454819D02*
X64143333Y-26454819D01*
X64905238Y-25788152D02*
X64905238Y-26454819D01*
X64905238Y-25883390D02*
X64952857Y-25835771D01*
X64952857Y-25835771D02*
X65048095Y-25788152D01*
X65048095Y-25788152D02*
X65190952Y-25788152D01*
X65190952Y-25788152D02*
X65286190Y-25835771D01*
X65286190Y-25835771D02*
X65333809Y-25931009D01*
X65333809Y-25931009D02*
X65333809Y-26454819D01*
X65810000Y-25788152D02*
X65810000Y-26454819D01*
X65810000Y-25883390D02*
X65857619Y-25835771D01*
X65857619Y-25835771D02*
X65952857Y-25788152D01*
X65952857Y-25788152D02*
X66095714Y-25788152D01*
X66095714Y-25788152D02*
X66190952Y-25835771D01*
X66190952Y-25835771D02*
X66238571Y-25931009D01*
X66238571Y-25931009D02*
X66238571Y-26454819D01*
X66476667Y-26550057D02*
X67238571Y-26550057D01*
X67667143Y-25454819D02*
X67762381Y-25454819D01*
X67762381Y-25454819D02*
X67857619Y-25502438D01*
X67857619Y-25502438D02*
X67905238Y-25550057D01*
X67905238Y-25550057D02*
X67952857Y-25645295D01*
X67952857Y-25645295D02*
X68000476Y-25835771D01*
X68000476Y-25835771D02*
X68000476Y-26073866D01*
X68000476Y-26073866D02*
X67952857Y-26264342D01*
X67952857Y-26264342D02*
X67905238Y-26359580D01*
X67905238Y-26359580D02*
X67857619Y-26407200D01*
X67857619Y-26407200D02*
X67762381Y-26454819D01*
X67762381Y-26454819D02*
X67667143Y-26454819D01*
X67667143Y-26454819D02*
X67571905Y-26407200D01*
X67571905Y-26407200D02*
X67524286Y-26359580D01*
X67524286Y-26359580D02*
X67476667Y-26264342D01*
X67476667Y-26264342D02*
X67429048Y-26073866D01*
X67429048Y-26073866D02*
X67429048Y-25835771D01*
X67429048Y-25835771D02*
X67476667Y-25645295D01*
X67476667Y-25645295D02*
X67524286Y-25550057D01*
X67524286Y-25550057D02*
X67571905Y-25502438D01*
X67571905Y-25502438D02*
X67667143Y-25454819D01*
X68952857Y-26454819D02*
X68381429Y-26454819D01*
X68667143Y-26454819D02*
X68667143Y-25454819D01*
X68667143Y-25454819D02*
X68571905Y-25597676D01*
X68571905Y-25597676D02*
X68476667Y-25692914D01*
X68476667Y-25692914D02*
X68381429Y-25740533D01*
X69286191Y-26454819D02*
X69810000Y-25788152D01*
X69286191Y-25788152D02*
X69810000Y-26454819D01*
X70381429Y-25454819D02*
X70476667Y-25454819D01*
X70476667Y-25454819D02*
X70571905Y-25502438D01*
X70571905Y-25502438D02*
X70619524Y-25550057D01*
X70619524Y-25550057D02*
X70667143Y-25645295D01*
X70667143Y-25645295D02*
X70714762Y-25835771D01*
X70714762Y-25835771D02*
X70714762Y-26073866D01*
X70714762Y-26073866D02*
X70667143Y-26264342D01*
X70667143Y-26264342D02*
X70619524Y-26359580D01*
X70619524Y-26359580D02*
X70571905Y-26407200D01*
X70571905Y-26407200D02*
X70476667Y-26454819D01*
X70476667Y-26454819D02*
X70381429Y-26454819D01*
X70381429Y-26454819D02*
X70286191Y-26407200D01*
X70286191Y-26407200D02*
X70238572Y-26359580D01*
X70238572Y-26359580D02*
X70190953Y-26264342D01*
X70190953Y-26264342D02*
X70143334Y-26073866D01*
X70143334Y-26073866D02*
X70143334Y-25835771D01*
X70143334Y-25835771D02*
X70190953Y-25645295D01*
X70190953Y-25645295D02*
X70238572Y-25550057D01*
X70238572Y-25550057D02*
X70286191Y-25502438D01*
X70286191Y-25502438D02*
X70381429Y-25454819D01*
X71667143Y-26454819D02*
X71095715Y-26454819D01*
X71381429Y-26454819D02*
X71381429Y-25454819D01*
X71381429Y-25454819D02*
X71286191Y-25597676D01*
X71286191Y-25597676D02*
X71190953Y-25692914D01*
X71190953Y-25692914D02*
X71095715Y-25740533D01*
X66656667Y-23295566D02*
X66330000Y-22828900D01*
X66096667Y-23295566D02*
X66096667Y-22315566D01*
X66096667Y-22315566D02*
X66470000Y-22315566D01*
X66470000Y-22315566D02*
X66563334Y-22362233D01*
X66563334Y-22362233D02*
X66610000Y-22408900D01*
X66610000Y-22408900D02*
X66656667Y-22502233D01*
X66656667Y-22502233D02*
X66656667Y-22642233D01*
X66656667Y-22642233D02*
X66610000Y-22735566D01*
X66610000Y-22735566D02*
X66563334Y-22782233D01*
X66563334Y-22782233D02*
X66470000Y-22828900D01*
X66470000Y-22828900D02*
X66096667Y-22828900D01*
X66983334Y-22315566D02*
X67636667Y-23295566D01*
X67636667Y-22315566D02*
X66983334Y-23295566D01*
X68010000Y-23295566D02*
X68010000Y-22315566D01*
X68010000Y-22315566D02*
X68243333Y-22315566D01*
X68243333Y-22315566D02*
X68383333Y-22362233D01*
X68383333Y-22362233D02*
X68476667Y-22455566D01*
X68476667Y-22455566D02*
X68523333Y-22548900D01*
X68523333Y-22548900D02*
X68570000Y-22735566D01*
X68570000Y-22735566D02*
X68570000Y-22875566D01*
X68570000Y-22875566D02*
X68523333Y-23062233D01*
X68523333Y-23062233D02*
X68476667Y-23155566D01*
X68476667Y-23155566D02*
X68383333Y-23248900D01*
X68383333Y-23248900D02*
X68243333Y-23295566D01*
X68243333Y-23295566D02*
X68010000Y-23295566D01*
D11*
X21499318Y-62643332D02*
X22406461Y-62643332D01*
X22406461Y-62643332D02*
X22587889Y-62703809D01*
X22587889Y-62703809D02*
X22708842Y-62824761D01*
X22708842Y-62824761D02*
X22769318Y-63006190D01*
X22769318Y-63006190D02*
X22769318Y-63127142D01*
X21922651Y-61494285D02*
X22769318Y-61494285D01*
X21438842Y-61796666D02*
X22345984Y-62099047D01*
X22345984Y-62099047D02*
X22345984Y-61312856D01*
D10*
X67764819Y-47622857D02*
X67288628Y-47956190D01*
X67764819Y-48194285D02*
X66764819Y-48194285D01*
X66764819Y-48194285D02*
X66764819Y-47813333D01*
X66764819Y-47813333D02*
X66812438Y-47718095D01*
X66812438Y-47718095D02*
X66860057Y-47670476D01*
X66860057Y-47670476D02*
X66955295Y-47622857D01*
X66955295Y-47622857D02*
X67098152Y-47622857D01*
X67098152Y-47622857D02*
X67193390Y-47670476D01*
X67193390Y-47670476D02*
X67241009Y-47718095D01*
X67241009Y-47718095D02*
X67288628Y-47813333D01*
X67288628Y-47813333D02*
X67288628Y-48194285D01*
X67764819Y-46670476D02*
X67764819Y-47241904D01*
X67764819Y-46956190D02*
X66764819Y-46956190D01*
X66764819Y-46956190D02*
X66907676Y-47051428D01*
X66907676Y-47051428D02*
X67002914Y-47146666D01*
X67002914Y-47146666D02*
X67050533Y-47241904D01*
X66764819Y-45813333D02*
X66764819Y-46003809D01*
X66764819Y-46003809D02*
X66812438Y-46099047D01*
X66812438Y-46099047D02*
X66860057Y-46146666D01*
X66860057Y-46146666D02*
X67002914Y-46241904D01*
X67002914Y-46241904D02*
X67193390Y-46289523D01*
X67193390Y-46289523D02*
X67574342Y-46289523D01*
X67574342Y-46289523D02*
X67669580Y-46241904D01*
X67669580Y-46241904D02*
X67717200Y-46194285D01*
X67717200Y-46194285D02*
X67764819Y-46099047D01*
X67764819Y-46099047D02*
X67764819Y-45908571D01*
X67764819Y-45908571D02*
X67717200Y-45813333D01*
X67717200Y-45813333D02*
X67669580Y-45765714D01*
X67669580Y-45765714D02*
X67574342Y-45718095D01*
X67574342Y-45718095D02*
X67336247Y-45718095D01*
X67336247Y-45718095D02*
X67241009Y-45765714D01*
X67241009Y-45765714D02*
X67193390Y-45813333D01*
X67193390Y-45813333D02*
X67145771Y-45908571D01*
X67145771Y-45908571D02*
X67145771Y-46099047D01*
X67145771Y-46099047D02*
X67193390Y-46194285D01*
X67193390Y-46194285D02*
X67241009Y-46241904D01*
X67241009Y-46241904D02*
X67336247Y-46289523D01*
X78020057Y-58505238D02*
X77972438Y-58600476D01*
X77972438Y-58600476D02*
X77877200Y-58695714D01*
X77877200Y-58695714D02*
X77734342Y-58838571D01*
X77734342Y-58838571D02*
X77686723Y-58933809D01*
X77686723Y-58933809D02*
X77686723Y-59029047D01*
X77924819Y-58981428D02*
X77877200Y-59076666D01*
X77877200Y-59076666D02*
X77781961Y-59171904D01*
X77781961Y-59171904D02*
X77591485Y-59219523D01*
X77591485Y-59219523D02*
X77258152Y-59219523D01*
X77258152Y-59219523D02*
X77067676Y-59171904D01*
X77067676Y-59171904D02*
X76972438Y-59076666D01*
X76972438Y-59076666D02*
X76924819Y-58981428D01*
X76924819Y-58981428D02*
X76924819Y-58790952D01*
X76924819Y-58790952D02*
X76972438Y-58695714D01*
X76972438Y-58695714D02*
X77067676Y-58600476D01*
X77067676Y-58600476D02*
X77258152Y-58552857D01*
X77258152Y-58552857D02*
X77591485Y-58552857D01*
X77591485Y-58552857D02*
X77781961Y-58600476D01*
X77781961Y-58600476D02*
X77877200Y-58695714D01*
X77877200Y-58695714D02*
X77924819Y-58790952D01*
X77924819Y-58790952D02*
X77924819Y-58981428D01*
X77258152Y-57695714D02*
X77924819Y-57695714D01*
X76877200Y-57933809D02*
X77591485Y-58171904D01*
X77591485Y-58171904D02*
X77591485Y-57552857D01*
D11*
X55456667Y-82509318D02*
X55456667Y-83416461D01*
X55456667Y-83416461D02*
X55396190Y-83597889D01*
X55396190Y-83597889D02*
X55275238Y-83718842D01*
X55275238Y-83718842D02*
X55093809Y-83779318D01*
X55093809Y-83779318D02*
X54972857Y-83779318D01*
X56726667Y-83779318D02*
X56000952Y-83779318D01*
X56363809Y-83779318D02*
X56363809Y-82509318D01*
X56363809Y-82509318D02*
X56242857Y-82690746D01*
X56242857Y-82690746D02*
X56121905Y-82811699D01*
X56121905Y-82811699D02*
X56000952Y-82872175D01*
D10*
X84274819Y-47622857D02*
X83798628Y-47956190D01*
X84274819Y-48194285D02*
X83274819Y-48194285D01*
X83274819Y-48194285D02*
X83274819Y-47813333D01*
X83274819Y-47813333D02*
X83322438Y-47718095D01*
X83322438Y-47718095D02*
X83370057Y-47670476D01*
X83370057Y-47670476D02*
X83465295Y-47622857D01*
X83465295Y-47622857D02*
X83608152Y-47622857D01*
X83608152Y-47622857D02*
X83703390Y-47670476D01*
X83703390Y-47670476D02*
X83751009Y-47718095D01*
X83751009Y-47718095D02*
X83798628Y-47813333D01*
X83798628Y-47813333D02*
X83798628Y-48194285D01*
X83370057Y-47241904D02*
X83322438Y-47194285D01*
X83322438Y-47194285D02*
X83274819Y-47099047D01*
X83274819Y-47099047D02*
X83274819Y-46860952D01*
X83274819Y-46860952D02*
X83322438Y-46765714D01*
X83322438Y-46765714D02*
X83370057Y-46718095D01*
X83370057Y-46718095D02*
X83465295Y-46670476D01*
X83465295Y-46670476D02*
X83560533Y-46670476D01*
X83560533Y-46670476D02*
X83703390Y-46718095D01*
X83703390Y-46718095D02*
X84274819Y-47289523D01*
X84274819Y-47289523D02*
X84274819Y-46670476D01*
X83274819Y-46051428D02*
X83274819Y-45956190D01*
X83274819Y-45956190D02*
X83322438Y-45860952D01*
X83322438Y-45860952D02*
X83370057Y-45813333D01*
X83370057Y-45813333D02*
X83465295Y-45765714D01*
X83465295Y-45765714D02*
X83655771Y-45718095D01*
X83655771Y-45718095D02*
X83893866Y-45718095D01*
X83893866Y-45718095D02*
X84084342Y-45765714D01*
X84084342Y-45765714D02*
X84179580Y-45813333D01*
X84179580Y-45813333D02*
X84227200Y-45860952D01*
X84227200Y-45860952D02*
X84274819Y-45956190D01*
X84274819Y-45956190D02*
X84274819Y-46051428D01*
X84274819Y-46051428D02*
X84227200Y-46146666D01*
X84227200Y-46146666D02*
X84179580Y-46194285D01*
X84179580Y-46194285D02*
X84084342Y-46241904D01*
X84084342Y-46241904D02*
X83893866Y-46289523D01*
X83893866Y-46289523D02*
X83655771Y-46289523D01*
X83655771Y-46289523D02*
X83465295Y-46241904D01*
X83465295Y-46241904D02*
X83370057Y-46194285D01*
X83370057Y-46194285D02*
X83322438Y-46146666D01*
X83322438Y-46146666D02*
X83274819Y-46051428D01*
X41094819Y-27288571D02*
X41094819Y-27859999D01*
X41094819Y-27574285D02*
X40094819Y-27574285D01*
X40094819Y-27574285D02*
X40237676Y-27669523D01*
X40237676Y-27669523D02*
X40332914Y-27764761D01*
X40332914Y-27764761D02*
X40380533Y-27859999D01*
X40094819Y-26669523D02*
X40094819Y-26574285D01*
X40094819Y-26574285D02*
X40142438Y-26479047D01*
X40142438Y-26479047D02*
X40190057Y-26431428D01*
X40190057Y-26431428D02*
X40285295Y-26383809D01*
X40285295Y-26383809D02*
X40475771Y-26336190D01*
X40475771Y-26336190D02*
X40713866Y-26336190D01*
X40713866Y-26336190D02*
X40904342Y-26383809D01*
X40904342Y-26383809D02*
X40999580Y-26431428D01*
X40999580Y-26431428D02*
X41047200Y-26479047D01*
X41047200Y-26479047D02*
X41094819Y-26574285D01*
X41094819Y-26574285D02*
X41094819Y-26669523D01*
X41094819Y-26669523D02*
X41047200Y-26764761D01*
X41047200Y-26764761D02*
X40999580Y-26812380D01*
X40999580Y-26812380D02*
X40904342Y-26859999D01*
X40904342Y-26859999D02*
X40713866Y-26907618D01*
X40713866Y-26907618D02*
X40475771Y-26907618D01*
X40475771Y-26907618D02*
X40285295Y-26859999D01*
X40285295Y-26859999D02*
X40190057Y-26812380D01*
X40190057Y-26812380D02*
X40142438Y-26764761D01*
X40142438Y-26764761D02*
X40094819Y-26669523D01*
X40428152Y-25907618D02*
X41428152Y-25907618D01*
X40951961Y-25431428D02*
X41047200Y-25383809D01*
X41047200Y-25383809D02*
X41094819Y-25288571D01*
X40951961Y-25907618D02*
X41047200Y-25859999D01*
X41047200Y-25859999D02*
X41094819Y-25764761D01*
X41094819Y-25764761D02*
X41094819Y-25574285D01*
X41094819Y-25574285D02*
X41047200Y-25479047D01*
X41047200Y-25479047D02*
X40951961Y-25431428D01*
X40951961Y-25431428D02*
X40428152Y-25431428D01*
X40190057Y-24145713D02*
X40142438Y-24098094D01*
X40142438Y-24098094D02*
X40094819Y-24002856D01*
X40094819Y-24002856D02*
X40094819Y-23764761D01*
X40094819Y-23764761D02*
X40142438Y-23669523D01*
X40142438Y-23669523D02*
X40190057Y-23621904D01*
X40190057Y-23621904D02*
X40285295Y-23574285D01*
X40285295Y-23574285D02*
X40380533Y-23574285D01*
X40380533Y-23574285D02*
X40523390Y-23621904D01*
X40523390Y-23621904D02*
X41094819Y-24193332D01*
X41094819Y-24193332D02*
X41094819Y-23574285D01*
X40094819Y-22669523D02*
X40094819Y-23145713D01*
X40094819Y-23145713D02*
X40571009Y-23193332D01*
X40571009Y-23193332D02*
X40523390Y-23145713D01*
X40523390Y-23145713D02*
X40475771Y-23050475D01*
X40475771Y-23050475D02*
X40475771Y-22812380D01*
X40475771Y-22812380D02*
X40523390Y-22717142D01*
X40523390Y-22717142D02*
X40571009Y-22669523D01*
X40571009Y-22669523D02*
X40666247Y-22621904D01*
X40666247Y-22621904D02*
X40904342Y-22621904D01*
X40904342Y-22621904D02*
X40999580Y-22669523D01*
X40999580Y-22669523D02*
X41047200Y-22717142D01*
X41047200Y-22717142D02*
X41094819Y-22812380D01*
X41094819Y-22812380D02*
X41094819Y-23050475D01*
X41094819Y-23050475D02*
X41047200Y-23145713D01*
X41047200Y-23145713D02*
X40999580Y-23193332D01*
X40428152Y-22288570D02*
X41094819Y-22050475D01*
X41094819Y-22050475D02*
X40428152Y-21812380D01*
X40999580Y-18946666D02*
X41047200Y-18994285D01*
X41047200Y-18994285D02*
X41094819Y-19137142D01*
X41094819Y-19137142D02*
X41094819Y-19232380D01*
X41094819Y-19232380D02*
X41047200Y-19375237D01*
X41047200Y-19375237D02*
X40951961Y-19470475D01*
X40951961Y-19470475D02*
X40856723Y-19518094D01*
X40856723Y-19518094D02*
X40666247Y-19565713D01*
X40666247Y-19565713D02*
X40523390Y-19565713D01*
X40523390Y-19565713D02*
X40332914Y-19518094D01*
X40332914Y-19518094D02*
X40237676Y-19470475D01*
X40237676Y-19470475D02*
X40142438Y-19375237D01*
X40142438Y-19375237D02*
X40094819Y-19232380D01*
X40094819Y-19232380D02*
X40094819Y-19137142D01*
X40094819Y-19137142D02*
X40142438Y-18994285D01*
X40142438Y-18994285D02*
X40190057Y-18946666D01*
X40190057Y-18565713D02*
X40142438Y-18518094D01*
X40142438Y-18518094D02*
X40094819Y-18422856D01*
X40094819Y-18422856D02*
X40094819Y-18184761D01*
X40094819Y-18184761D02*
X40142438Y-18089523D01*
X40142438Y-18089523D02*
X40190057Y-18041904D01*
X40190057Y-18041904D02*
X40285295Y-17994285D01*
X40285295Y-17994285D02*
X40380533Y-17994285D01*
X40380533Y-17994285D02*
X40523390Y-18041904D01*
X40523390Y-18041904D02*
X41094819Y-18613332D01*
X41094819Y-18613332D02*
X41094819Y-17994285D01*
X17018095Y-18234819D02*
X17018095Y-17234819D01*
X17018095Y-17711009D02*
X17589523Y-17711009D01*
X17589523Y-18234819D02*
X17589523Y-17234819D01*
X18589523Y-18234819D02*
X18018095Y-18234819D01*
X18303809Y-18234819D02*
X18303809Y-17234819D01*
X18303809Y-17234819D02*
X18208571Y-17377676D01*
X18208571Y-17377676D02*
X18113333Y-17472914D01*
X18113333Y-17472914D02*
X18018095Y-17520533D01*
X28448095Y-42624819D02*
X28448095Y-43434342D01*
X28448095Y-43434342D02*
X28495714Y-43529580D01*
X28495714Y-43529580D02*
X28543333Y-43577200D01*
X28543333Y-43577200D02*
X28638571Y-43624819D01*
X28638571Y-43624819D02*
X28829047Y-43624819D01*
X28829047Y-43624819D02*
X28924285Y-43577200D01*
X28924285Y-43577200D02*
X28971904Y-43529580D01*
X28971904Y-43529580D02*
X29019523Y-43434342D01*
X29019523Y-43434342D02*
X29019523Y-42624819D01*
X30019523Y-43624819D02*
X29448095Y-43624819D01*
X29733809Y-43624819D02*
X29733809Y-42624819D01*
X29733809Y-42624819D02*
X29638571Y-42767676D01*
X29638571Y-42767676D02*
X29543333Y-42862914D01*
X29543333Y-42862914D02*
X29448095Y-42910533D01*
X63954819Y-47632857D02*
X63478628Y-47966190D01*
X63954819Y-48204285D02*
X62954819Y-48204285D01*
X62954819Y-48204285D02*
X62954819Y-47823333D01*
X62954819Y-47823333D02*
X63002438Y-47728095D01*
X63002438Y-47728095D02*
X63050057Y-47680476D01*
X63050057Y-47680476D02*
X63145295Y-47632857D01*
X63145295Y-47632857D02*
X63288152Y-47632857D01*
X63288152Y-47632857D02*
X63383390Y-47680476D01*
X63383390Y-47680476D02*
X63431009Y-47728095D01*
X63431009Y-47728095D02*
X63478628Y-47823333D01*
X63478628Y-47823333D02*
X63478628Y-48204285D01*
X63954819Y-46680476D02*
X63954819Y-47251904D01*
X63954819Y-46966190D02*
X62954819Y-46966190D01*
X62954819Y-46966190D02*
X63097676Y-47061428D01*
X63097676Y-47061428D02*
X63192914Y-47156666D01*
X63192914Y-47156666D02*
X63240533Y-47251904D01*
X62954819Y-45775714D02*
X62954819Y-46251904D01*
X62954819Y-46251904D02*
X63431009Y-46299523D01*
X63431009Y-46299523D02*
X63383390Y-46251904D01*
X63383390Y-46251904D02*
X63335771Y-46156666D01*
X63335771Y-46156666D02*
X63335771Y-45918571D01*
X63335771Y-45918571D02*
X63383390Y-45823333D01*
X63383390Y-45823333D02*
X63431009Y-45775714D01*
X63431009Y-45775714D02*
X63526247Y-45728095D01*
X63526247Y-45728095D02*
X63764342Y-45728095D01*
X63764342Y-45728095D02*
X63859580Y-45775714D01*
X63859580Y-45775714D02*
X63907200Y-45823333D01*
X63907200Y-45823333D02*
X63954819Y-45918571D01*
X63954819Y-45918571D02*
X63954819Y-46156666D01*
X63954819Y-46156666D02*
X63907200Y-46251904D01*
X63907200Y-46251904D02*
X63859580Y-46299523D01*
X48714819Y-47622857D02*
X48238628Y-47956190D01*
X48714819Y-48194285D02*
X47714819Y-48194285D01*
X47714819Y-48194285D02*
X47714819Y-47813333D01*
X47714819Y-47813333D02*
X47762438Y-47718095D01*
X47762438Y-47718095D02*
X47810057Y-47670476D01*
X47810057Y-47670476D02*
X47905295Y-47622857D01*
X47905295Y-47622857D02*
X48048152Y-47622857D01*
X48048152Y-47622857D02*
X48143390Y-47670476D01*
X48143390Y-47670476D02*
X48191009Y-47718095D01*
X48191009Y-47718095D02*
X48238628Y-47813333D01*
X48238628Y-47813333D02*
X48238628Y-48194285D01*
X48714819Y-46670476D02*
X48714819Y-47241904D01*
X48714819Y-46956190D02*
X47714819Y-46956190D01*
X47714819Y-46956190D02*
X47857676Y-47051428D01*
X47857676Y-47051428D02*
X47952914Y-47146666D01*
X47952914Y-47146666D02*
X48000533Y-47241904D01*
X47714819Y-46051428D02*
X47714819Y-45956190D01*
X47714819Y-45956190D02*
X47762438Y-45860952D01*
X47762438Y-45860952D02*
X47810057Y-45813333D01*
X47810057Y-45813333D02*
X47905295Y-45765714D01*
X47905295Y-45765714D02*
X48095771Y-45718095D01*
X48095771Y-45718095D02*
X48333866Y-45718095D01*
X48333866Y-45718095D02*
X48524342Y-45765714D01*
X48524342Y-45765714D02*
X48619580Y-45813333D01*
X48619580Y-45813333D02*
X48667200Y-45860952D01*
X48667200Y-45860952D02*
X48714819Y-45956190D01*
X48714819Y-45956190D02*
X48714819Y-46051428D01*
X48714819Y-46051428D02*
X48667200Y-46146666D01*
X48667200Y-46146666D02*
X48619580Y-46194285D01*
X48619580Y-46194285D02*
X48524342Y-46241904D01*
X48524342Y-46241904D02*
X48333866Y-46289523D01*
X48333866Y-46289523D02*
X48095771Y-46289523D01*
X48095771Y-46289523D02*
X47905295Y-46241904D01*
X47905295Y-46241904D02*
X47810057Y-46194285D01*
X47810057Y-46194285D02*
X47762438Y-46146666D01*
X47762438Y-46146666D02*
X47714819Y-46051428D01*
X37284819Y-47622857D02*
X36808628Y-47956190D01*
X37284819Y-48194285D02*
X36284819Y-48194285D01*
X36284819Y-48194285D02*
X36284819Y-47813333D01*
X36284819Y-47813333D02*
X36332438Y-47718095D01*
X36332438Y-47718095D02*
X36380057Y-47670476D01*
X36380057Y-47670476D02*
X36475295Y-47622857D01*
X36475295Y-47622857D02*
X36618152Y-47622857D01*
X36618152Y-47622857D02*
X36713390Y-47670476D01*
X36713390Y-47670476D02*
X36761009Y-47718095D01*
X36761009Y-47718095D02*
X36808628Y-47813333D01*
X36808628Y-47813333D02*
X36808628Y-48194285D01*
X37284819Y-46670476D02*
X37284819Y-47241904D01*
X37284819Y-46956190D02*
X36284819Y-46956190D01*
X36284819Y-46956190D02*
X36427676Y-47051428D01*
X36427676Y-47051428D02*
X36522914Y-47146666D01*
X36522914Y-47146666D02*
X36570533Y-47241904D01*
X36284819Y-46337142D02*
X36284819Y-45718095D01*
X36284819Y-45718095D02*
X36665771Y-46051428D01*
X36665771Y-46051428D02*
X36665771Y-45908571D01*
X36665771Y-45908571D02*
X36713390Y-45813333D01*
X36713390Y-45813333D02*
X36761009Y-45765714D01*
X36761009Y-45765714D02*
X36856247Y-45718095D01*
X36856247Y-45718095D02*
X37094342Y-45718095D01*
X37094342Y-45718095D02*
X37189580Y-45765714D01*
X37189580Y-45765714D02*
X37237200Y-45813333D01*
X37237200Y-45813333D02*
X37284819Y-45908571D01*
X37284819Y-45908571D02*
X37284819Y-46194285D01*
X37284819Y-46194285D02*
X37237200Y-46289523D01*
X37237200Y-46289523D02*
X37189580Y-46337142D01*
D11*
X78316667Y-82509318D02*
X78316667Y-83416461D01*
X78316667Y-83416461D02*
X78256190Y-83597889D01*
X78256190Y-83597889D02*
X78135238Y-83718842D01*
X78135238Y-83718842D02*
X77953809Y-83779318D01*
X77953809Y-83779318D02*
X77832857Y-83779318D01*
X78860952Y-82630270D02*
X78921428Y-82569794D01*
X78921428Y-82569794D02*
X79042381Y-82509318D01*
X79042381Y-82509318D02*
X79344762Y-82509318D01*
X79344762Y-82509318D02*
X79465714Y-82569794D01*
X79465714Y-82569794D02*
X79526190Y-82630270D01*
X79526190Y-82630270D02*
X79586667Y-82751222D01*
X79586667Y-82751222D02*
X79586667Y-82872175D01*
X79586667Y-82872175D02*
X79526190Y-83053603D01*
X79526190Y-83053603D02*
X78800476Y-83779318D01*
X78800476Y-83779318D02*
X79586667Y-83779318D01*
D10*
X58970057Y-58505238D02*
X58922438Y-58600476D01*
X58922438Y-58600476D02*
X58827200Y-58695714D01*
X58827200Y-58695714D02*
X58684342Y-58838571D01*
X58684342Y-58838571D02*
X58636723Y-58933809D01*
X58636723Y-58933809D02*
X58636723Y-59029047D01*
X58874819Y-58981428D02*
X58827200Y-59076666D01*
X58827200Y-59076666D02*
X58731961Y-59171904D01*
X58731961Y-59171904D02*
X58541485Y-59219523D01*
X58541485Y-59219523D02*
X58208152Y-59219523D01*
X58208152Y-59219523D02*
X58017676Y-59171904D01*
X58017676Y-59171904D02*
X57922438Y-59076666D01*
X57922438Y-59076666D02*
X57874819Y-58981428D01*
X57874819Y-58981428D02*
X57874819Y-58790952D01*
X57874819Y-58790952D02*
X57922438Y-58695714D01*
X57922438Y-58695714D02*
X58017676Y-58600476D01*
X58017676Y-58600476D02*
X58208152Y-58552857D01*
X58208152Y-58552857D02*
X58541485Y-58552857D01*
X58541485Y-58552857D02*
X58731961Y-58600476D01*
X58731961Y-58600476D02*
X58827200Y-58695714D01*
X58827200Y-58695714D02*
X58874819Y-58790952D01*
X58874819Y-58790952D02*
X58874819Y-58981428D01*
X57970057Y-58171904D02*
X57922438Y-58124285D01*
X57922438Y-58124285D02*
X57874819Y-58029047D01*
X57874819Y-58029047D02*
X57874819Y-57790952D01*
X57874819Y-57790952D02*
X57922438Y-57695714D01*
X57922438Y-57695714D02*
X57970057Y-57648095D01*
X57970057Y-57648095D02*
X58065295Y-57600476D01*
X58065295Y-57600476D02*
X58160533Y-57600476D01*
X58160533Y-57600476D02*
X58303390Y-57648095D01*
X58303390Y-57648095D02*
X58874819Y-58219523D01*
X58874819Y-58219523D02*
X58874819Y-57600476D01*
X38608095Y-88084819D02*
X38608095Y-87084819D01*
X38608095Y-87561009D02*
X39179523Y-87561009D01*
X39179523Y-88084819D02*
X39179523Y-87084819D01*
X39608095Y-87180057D02*
X39655714Y-87132438D01*
X39655714Y-87132438D02*
X39750952Y-87084819D01*
X39750952Y-87084819D02*
X39989047Y-87084819D01*
X39989047Y-87084819D02*
X40084285Y-87132438D01*
X40084285Y-87132438D02*
X40131904Y-87180057D01*
X40131904Y-87180057D02*
X40179523Y-87275295D01*
X40179523Y-87275295D02*
X40179523Y-87370533D01*
X40179523Y-87370533D02*
X40131904Y-87513390D01*
X40131904Y-87513390D02*
X39560476Y-88084819D01*
X39560476Y-88084819D02*
X40179523Y-88084819D01*
D13*
%TO.C,R12*%
X41930000Y-43830000D02*
X41930000Y-50130000D01*
X41930000Y-50130000D02*
X44430000Y-50130000D01*
X43180000Y-41900000D02*
X43180000Y-43830000D01*
X43180000Y-52060000D02*
X43180000Y-50130000D01*
X44430000Y-43830000D02*
X41930000Y-43830000D01*
X44430000Y-50130000D02*
X44430000Y-43830000D01*
D14*
%TO.C,J5*%
X13880000Y-75740000D02*
X13880000Y-91240000D01*
X13880000Y-91240000D02*
X34380000Y-91240000D01*
X34380000Y-75740000D02*
X13880000Y-75740000D01*
X34380000Y-91240000D02*
X34380000Y-75740000D01*
D13*
%TO.C,+5v*%
X75610000Y-22850000D02*
G75*
G02*
X71710000Y-22850000I-1950000J0D01*
G01*
X71710000Y-22850000D02*
G75*
G02*
X75610000Y-22850000I1950000J0D01*
G01*
D14*
%TO.C,J3*%
X91350000Y-75730000D02*
X91350000Y-91230000D01*
X91350000Y-91230000D02*
X111850000Y-91230000D01*
X111850000Y-75730000D02*
X91350000Y-75730000D01*
X111850000Y-91230000D02*
X111850000Y-75730000D01*
D13*
%TO.C,R3*%
X90190000Y-43830000D02*
X90190000Y-50130000D01*
X90190000Y-50130000D02*
X92690000Y-50130000D01*
X91440000Y-41900000D02*
X91440000Y-43830000D01*
X91440000Y-52060000D02*
X91440000Y-50130000D01*
X92690000Y-43830000D02*
X90190000Y-43830000D01*
X92690000Y-50130000D02*
X92690000Y-43830000D01*
%TO.C,+12v*%
X34970000Y-22860000D02*
G75*
G02*
X31070000Y-22860000I-1950000J0D01*
G01*
X31070000Y-22860000D02*
G75*
G02*
X34970000Y-22860000I1950000J0D01*
G01*
%TO.C,U2*%
X48340000Y-14630000D02*
X48340000Y-19030000D01*
X48340000Y-15900000D02*
X58340000Y-15900000D01*
X48340000Y-19030000D02*
X58340000Y-19030000D01*
X51490000Y-14630000D02*
X51490000Y-15900000D01*
X55190000Y-14630000D02*
X55190000Y-15900000D01*
X58340000Y-14630000D02*
X48340000Y-14630000D01*
X58340000Y-19030000D02*
X58340000Y-14630000D01*
%TO.C,Q3*%
X65560000Y-56670000D02*
X65560000Y-60170000D01*
X65556375Y-56656375D02*
G75*
G02*
X69790000Y-58410000I1753625J-1753625D01*
G01*
X69790000Y-58410000D02*
G75*
G02*
X65556375Y-60163625I-2480000J0D01*
G01*
%TO.C,R19*%
X78760000Y-43830000D02*
X78760000Y-50130000D01*
X78760000Y-50130000D02*
X81260000Y-50130000D01*
X80010000Y-41900000D02*
X80010000Y-43830000D01*
X80010000Y-52060000D02*
X80010000Y-50130000D01*
X81260000Y-43830000D02*
X78760000Y-43830000D01*
X81260000Y-50130000D02*
X81260000Y-43830000D01*
%TO.C,C1*%
X74543605Y-30547500D02*
X74543605Y-30047500D01*
X74793605Y-30297500D02*
X74293605Y-30297500D01*
X75160000Y-29210000D02*
G75*
G02*
X70160000Y-29210000I-2500000J0D01*
G01*
X70160000Y-29210000D02*
G75*
G02*
X75160000Y-29210000I2500000J0D01*
G01*
%TO.C,R1*%
X92730000Y-24780000D02*
X92730000Y-31080000D01*
X92730000Y-31080000D02*
X95230000Y-31080000D01*
X93980000Y-22850000D02*
X93980000Y-24780000D01*
X93980000Y-33010000D02*
X93980000Y-31080000D01*
X95230000Y-24780000D02*
X92730000Y-24780000D01*
X95230000Y-31080000D02*
X95230000Y-24780000D01*
%TO.C,R11*%
X50820000Y-43830000D02*
X50820000Y-50130000D01*
X50820000Y-50130000D02*
X53320000Y-50130000D01*
X52070000Y-41900000D02*
X52070000Y-43830000D01*
X52070000Y-52060000D02*
X52070000Y-50130000D01*
X53320000Y-43830000D02*
X50820000Y-43830000D01*
X53320000Y-50130000D02*
X53320000Y-43830000D01*
%TO.C,R4*%
X94000000Y-43830000D02*
X94000000Y-50130000D01*
X94000000Y-50130000D02*
X96500000Y-50130000D01*
X95250000Y-41900000D02*
X95250000Y-43830000D01*
X95250000Y-52060000D02*
X95250000Y-50130000D01*
X96500000Y-43830000D02*
X94000000Y-43830000D01*
X96500000Y-50130000D02*
X96500000Y-43830000D01*
%TO.C,R7*%
X105430000Y-43830000D02*
X105430000Y-50130000D01*
X105430000Y-50130000D02*
X107930000Y-50130000D01*
X106680000Y-41900000D02*
X106680000Y-43830000D01*
X106680000Y-52060000D02*
X106680000Y-50130000D01*
X107930000Y-43830000D02*
X105430000Y-43830000D01*
X107930000Y-50130000D02*
X107930000Y-43830000D01*
%TO.C,C3*%
X44470000Y-17030000D02*
X44470000Y-21030000D01*
X44470000Y-21030000D02*
X46970000Y-21030000D01*
X46970000Y-17030000D02*
X44470000Y-17030000D01*
X46970000Y-21030000D02*
X46970000Y-17030000D01*
%TO.C,R8*%
X109240000Y-43830000D02*
X109240000Y-50130000D01*
X109240000Y-50130000D02*
X111740000Y-50130000D01*
X110490000Y-41900000D02*
X110490000Y-43830000D01*
X110490000Y-52060000D02*
X110490000Y-50130000D01*
X111740000Y-43830000D02*
X109240000Y-43830000D01*
X111740000Y-50130000D02*
X111740000Y-43830000D01*
%TO.C,C4*%
X59710000Y-17030000D02*
X59710000Y-21030000D01*
X59710000Y-21030000D02*
X62210000Y-21030000D01*
X62210000Y-17030000D02*
X59710000Y-17030000D01*
X62210000Y-21030000D02*
X62210000Y-17030000D01*
%TO.C,D1*%
X100600000Y-25930000D02*
X100600000Y-29930000D01*
X100600000Y-29930000D02*
X102600000Y-29930000D01*
X101600000Y-22850000D02*
X101600000Y-25930000D01*
X101600000Y-33010000D02*
X101600000Y-29930000D01*
X102600000Y-25930000D02*
X100600000Y-25930000D01*
X102600000Y-26430000D02*
X100600000Y-26430000D01*
X102600000Y-26530000D02*
X100600000Y-26530000D01*
X102600000Y-26630000D02*
X100600000Y-26630000D01*
X102600000Y-29930000D02*
X102600000Y-25930000D01*
%TO.C,Q1*%
X103660000Y-28730000D02*
X103660000Y-32230000D01*
X103656375Y-28716375D02*
G75*
G02*
X107890000Y-30470000I1753625J-1753625D01*
G01*
X107890000Y-30470000D02*
G75*
G02*
X103656375Y-32223625I-2480000J0D01*
G01*
%TO.C,TXD*%
X88310000Y-22850000D02*
G75*
G02*
X84410000Y-22850000I-1950000J0D01*
G01*
X84410000Y-22850000D02*
G75*
G02*
X88310000Y-22850000I1950000J0D01*
G01*
%TO.C,R14*%
X20340000Y-38750000D02*
X20340000Y-45050000D01*
X20340000Y-45050000D02*
X22840000Y-45050000D01*
X21590000Y-36820000D02*
X21590000Y-38750000D01*
X21590000Y-46980000D02*
X21590000Y-45050000D01*
X22840000Y-38750000D02*
X20340000Y-38750000D01*
X22840000Y-45050000D02*
X22840000Y-38750000D01*
%TO.C,GND*%
X81960000Y-22850000D02*
G75*
G02*
X78060000Y-22850000I-1950000J0D01*
G01*
X78060000Y-22850000D02*
G75*
G02*
X81960000Y-22850000I1950000J0D01*
G01*
%TO.C,R17*%
X69870000Y-43830000D02*
X69870000Y-50130000D01*
X69870000Y-50130000D02*
X72370000Y-50130000D01*
X71120000Y-41900000D02*
X71120000Y-43830000D01*
X71120000Y-52060000D02*
X71120000Y-50130000D01*
X72370000Y-43830000D02*
X69870000Y-43830000D01*
X72370000Y-50130000D02*
X72370000Y-43830000D01*
%TO.C,R18*%
X73680000Y-43830000D02*
X73680000Y-50130000D01*
X73680000Y-50130000D02*
X76180000Y-50130000D01*
X74930000Y-41900000D02*
X74930000Y-43830000D01*
X74930000Y-52060000D02*
X74930000Y-50130000D01*
X76180000Y-43830000D02*
X73680000Y-43830000D01*
X76180000Y-50130000D02*
X76180000Y-43830000D01*
%TO.C,R2*%
X96540000Y-24780000D02*
X96540000Y-31080000D01*
X96540000Y-31080000D02*
X99040000Y-31080000D01*
X97790000Y-22850000D02*
X97790000Y-24780000D01*
X97790000Y-33010000D02*
X97790000Y-31080000D01*
X99040000Y-24780000D02*
X96540000Y-24780000D01*
X99040000Y-31080000D02*
X99040000Y-24780000D01*
%TO.C,R5*%
X97810000Y-43830000D02*
X97810000Y-50130000D01*
X97810000Y-50130000D02*
X100310000Y-50130000D01*
X99060000Y-41900000D02*
X99060000Y-43830000D01*
X99060000Y-52060000D02*
X99060000Y-50130000D01*
X100310000Y-43830000D02*
X97810000Y-43830000D01*
X100310000Y-50130000D02*
X100310000Y-43830000D01*
%TO.C,R9*%
X57170000Y-43830000D02*
X57170000Y-50130000D01*
X57170000Y-50130000D02*
X59670000Y-50130000D01*
X58420000Y-41900000D02*
X58420000Y-43830000D01*
X58420000Y-52060000D02*
X58420000Y-50130000D01*
X59670000Y-43830000D02*
X57170000Y-43830000D01*
X59670000Y-50130000D02*
X59670000Y-43830000D01*
%TO.C,R6*%
X101620000Y-43830000D02*
X101620000Y-50130000D01*
X101620000Y-50130000D02*
X104120000Y-50130000D01*
X102870000Y-41900000D02*
X102870000Y-43830000D01*
X102870000Y-52060000D02*
X102870000Y-50130000D01*
X104120000Y-43830000D02*
X101620000Y-43830000D01*
X104120000Y-50130000D02*
X104120000Y-43830000D01*
%TO.C,RXD*%
X69260000Y-22850000D02*
G75*
G02*
X65360000Y-22850000I-1950000J0D01*
G01*
X65360000Y-22850000D02*
G75*
G02*
X69260000Y-22850000I1950000J0D01*
G01*
D14*
%TO.C,J4*%
X14170000Y-51970000D02*
X14170000Y-72470000D01*
X14170000Y-72470000D02*
X29670000Y-72470000D01*
X29670000Y-51970000D02*
X14170000Y-51970000D01*
X29670000Y-72470000D02*
X29670000Y-51970000D01*
D13*
%TO.C,R16*%
X66060000Y-43830000D02*
X66060000Y-50130000D01*
X66060000Y-50130000D02*
X68560000Y-50130000D01*
X67310000Y-41900000D02*
X67310000Y-43830000D01*
X67310000Y-52060000D02*
X67310000Y-50130000D01*
X68560000Y-43830000D02*
X66060000Y-43830000D01*
X68560000Y-50130000D02*
X68560000Y-43830000D01*
%TO.C,Q4*%
X75720000Y-56670000D02*
X75720000Y-60170000D01*
X75716375Y-56656375D02*
G75*
G02*
X79950000Y-58410000I1753625J-1753625D01*
G01*
X79950000Y-58410000D02*
G75*
G02*
X75716375Y-60163625I-2480000J0D01*
G01*
D14*
%TO.C,J1*%
X45630000Y-75730000D02*
X45630000Y-91230000D01*
X45630000Y-91230000D02*
X66130000Y-91230000D01*
X66130000Y-75730000D02*
X45630000Y-75730000D01*
X66130000Y-91230000D02*
X66130000Y-75730000D01*
D13*
%TO.C,R20*%
X82570000Y-43830000D02*
X82570000Y-50130000D01*
X82570000Y-50130000D02*
X85070000Y-50130000D01*
X83820000Y-41900000D02*
X83820000Y-43830000D01*
X83820000Y-52060000D02*
X83820000Y-50130000D01*
X85070000Y-43830000D02*
X82570000Y-43830000D01*
X85070000Y-50130000D02*
X85070000Y-43830000D01*
%TO.C,C2*%
X41727500Y-16646395D02*
X41727500Y-17146395D01*
X41977500Y-16896395D02*
X41477500Y-16896395D01*
X43140000Y-18780000D02*
G75*
G02*
X38140000Y-18780000I-2500000J0D01*
G01*
X38140000Y-18780000D02*
G75*
G02*
X43140000Y-18780000I2500000J0D01*
G01*
%TO.C,U1*%
X24130000Y-38030000D02*
X24130000Y-48310000D01*
X24130000Y-48310000D02*
X34290000Y-48310000D01*
X25400000Y-38725000D02*
X25400000Y-39995000D01*
X25400000Y-38725000D02*
X26035000Y-38725000D01*
X25400000Y-39995000D02*
X26035000Y-39995000D01*
X25400000Y-41265000D02*
X25400000Y-42535000D01*
X25400000Y-41265000D02*
X26035000Y-41265000D01*
X25400000Y-42535000D02*
X26035000Y-42535000D01*
X25400000Y-43805000D02*
X25400000Y-45075000D01*
X25400000Y-43805000D02*
X26035000Y-43805000D01*
X25400000Y-45075000D02*
X26035000Y-45075000D01*
X25400000Y-46345000D02*
X25400000Y-47615000D01*
X25400000Y-46345000D02*
X26035000Y-46345000D01*
X25400000Y-47615000D02*
X26035000Y-47615000D01*
X26035000Y-38090000D02*
X32385000Y-38090000D01*
X26035000Y-48250000D02*
X26035000Y-38090000D01*
X32385000Y-38090000D02*
X32385000Y-48250000D01*
X32385000Y-48250000D02*
X26035000Y-48250000D01*
X33020000Y-38725000D02*
X32385000Y-38725000D01*
X33020000Y-39995000D02*
X32385000Y-39995000D01*
X33020000Y-39995000D02*
X33020000Y-38725000D01*
X33020000Y-41265000D02*
X32385000Y-41265000D01*
X33020000Y-42535000D02*
X32385000Y-42535000D01*
X33020000Y-42535000D02*
X33020000Y-41265000D01*
X33020000Y-43805000D02*
X32385000Y-43805000D01*
X33020000Y-45075000D02*
X32385000Y-45075000D01*
X33020000Y-45075000D02*
X33020000Y-43805000D01*
X33020000Y-46345000D02*
X32385000Y-46345000D01*
X33020000Y-47615000D02*
X32385000Y-47615000D01*
X33020000Y-47615000D02*
X33020000Y-46345000D01*
X34290000Y-38030000D02*
X24130000Y-38030000D01*
X34290000Y-48310000D02*
X34290000Y-38030000D01*
X30099000Y-38090000D02*
G75*
G02*
X28321000Y-38090000I-889000J0D01*
G01*
D15*
X27266500Y-39106000D02*
G75*
G02*
X26835500Y-39106000I-215500J0D01*
G01*
X26835500Y-39106000D02*
G75*
G02*
X27266500Y-39106000I215500J0D01*
G01*
D13*
%TO.C,R15*%
X62250000Y-43840000D02*
X62250000Y-50140000D01*
X62250000Y-50140000D02*
X64750000Y-50140000D01*
X63500000Y-41910000D02*
X63500000Y-43840000D01*
X63500000Y-52070000D02*
X63500000Y-50140000D01*
X64750000Y-43840000D02*
X62250000Y-43840000D01*
X64750000Y-50140000D02*
X64750000Y-43840000D01*
%TO.C,R10*%
X47010000Y-43830000D02*
X47010000Y-50130000D01*
X47010000Y-50130000D02*
X49510000Y-50130000D01*
X48260000Y-41900000D02*
X48260000Y-43830000D01*
X48260000Y-52060000D02*
X48260000Y-50130000D01*
X49510000Y-43830000D02*
X47010000Y-43830000D01*
X49510000Y-50130000D02*
X49510000Y-43830000D01*
%TO.C,R13*%
X35580000Y-43830000D02*
X35580000Y-50130000D01*
X35580000Y-50130000D02*
X38080000Y-50130000D01*
X36830000Y-41900000D02*
X36830000Y-43830000D01*
X36830000Y-52060000D02*
X36830000Y-50130000D01*
X38080000Y-43830000D02*
X35580000Y-43830000D01*
X38080000Y-50130000D02*
X38080000Y-43830000D01*
D14*
%TO.C,J2*%
X68490000Y-75730000D02*
X68490000Y-91230000D01*
X68490000Y-91230000D02*
X88990000Y-91230000D01*
X88990000Y-75730000D02*
X68490000Y-75730000D01*
X88990000Y-91230000D02*
X88990000Y-75730000D01*
D13*
%TO.C,Q2*%
X56670000Y-56670000D02*
X56670000Y-60170000D01*
X56666375Y-56656375D02*
G75*
G02*
X60900000Y-58410000I1753625J-1753625D01*
G01*
X60900000Y-58410000D02*
G75*
G02*
X56666375Y-60163625I-2480000J0D01*
G01*
%TD*%
M02*
