%TF.GenerationSoftware,KiCad,Pcbnew,9.0.1-9.0.1-0~ubuntu24.04.1*%
%TF.CreationDate,2025-05-03T17:14:02+02:00*%
%TF.ProjectId,CNC-version,434e432d-7665-4727-9369-6f6e2e6b6963,rev?*%
%TF.SameCoordinates,Original*%
%TF.FileFunction,Soldermask,Bot*%
%TF.FilePolarity,Negative*%
%FSLAX46Y46*%
G04 Gerber Fmt 4.6, Leading zero omitted, Abs format (unit mm)*
G04 Created by KiCad (PCBNEW 9.0.1-9.0.1-0~ubuntu24.04.1) date 2025-05-03 17:14:02*
%MOMM*%
%LPD*%
G01*
G04 APERTURE LIST*
G04 Aperture macros list*
%AMRoundRect*
0 Rectangle with rounded corners*
0 $1 Rounding radius*
0 $2 $3 $4 $5 $6 $7 $8 $9 X,Y pos of 4 corners*
0 Add a 4 corners polygon primitive as box body*
4,1,4,$2,$3,$4,$5,$6,$7,$8,$9,$2,$3,0*
0 Add four circle primitives for the rounded corners*
1,1,$1+$1,$2,$3*
1,1,$1+$1,$4,$5*
1,1,$1+$1,$6,$7*
1,1,$1+$1,$8,$9*
0 Add four rect primitives between the rounded corners*
20,1,$1+$1,$2,$3,$4,$5,0*
20,1,$1+$1,$4,$5,$6,$7,0*
20,1,$1+$1,$6,$7,$8,$9,0*
20,1,$1+$1,$8,$9,$2,$3,0*%
G04 Aperture macros list end*
%ADD10C,1.600000*%
%ADD11O,1.600000X1.600000*%
%ADD12C,2.100000*%
%ADD13C,1.860000*%
%ADD14RoundRect,0.250002X-1.699998X-1.699998X1.699998X-1.699998X1.699998X1.699998X-1.699998X1.699998X0*%
%ADD15C,3.200000*%
%ADD16R,1.905000X2.000000*%
%ADD17O,1.905000X2.000000*%
%ADD18R,1.500000X1.500000*%
%ADD19C,1.500000*%
%ADD20R,1.600000X1.600000*%
G04 APERTURE END LIST*
D10*
%TO.C,R12*%
X43180000Y-52060000D03*
D11*
X43180000Y-41900000D03*
%TD*%
D12*
%TO.C,J5*%
X31630000Y-78740000D03*
X24130000Y-78740000D03*
X16630000Y-78740000D03*
X29130000Y-76240000D03*
X19130000Y-76240000D03*
D13*
X29130000Y-88240000D03*
X19130000Y-88240000D03*
%TD*%
D14*
%TO.C,+5v*%
X73660000Y-22850000D03*
%TD*%
D15*
%TO.C,H4*%
X106680000Y-17780000D03*
%TD*%
D12*
%TO.C,J3*%
X109100000Y-78730000D03*
X101600000Y-78730000D03*
X94100000Y-78730000D03*
X106600000Y-76230000D03*
X96600000Y-76230000D03*
D13*
X106600000Y-88230000D03*
X96600000Y-88230000D03*
%TD*%
D10*
%TO.C,R3*%
X91440000Y-52060000D03*
D11*
X91440000Y-41900000D03*
%TD*%
D14*
%TO.C,+12v*%
X33020000Y-22860000D03*
%TD*%
D16*
%TO.C,U2*%
X50800000Y-17780000D03*
D17*
X53340000Y-17780000D03*
X55880000Y-17780000D03*
%TD*%
D18*
%TO.C,Q3*%
X67310000Y-55870000D03*
D19*
X67310000Y-58410000D03*
X67310000Y-60950000D03*
%TD*%
D10*
%TO.C,R19*%
X80010000Y-52060000D03*
D11*
X80010000Y-41900000D03*
%TD*%
D20*
%TO.C,C1*%
X73660000Y-29210000D03*
D10*
X71660000Y-29210000D03*
%TD*%
%TO.C,R1*%
X93980000Y-33010000D03*
D11*
X93980000Y-22850000D03*
%TD*%
D10*
%TO.C,R11*%
X52070000Y-52060000D03*
D11*
X52070000Y-41900000D03*
%TD*%
D10*
%TO.C,R4*%
X95250000Y-41900000D03*
D11*
X95250000Y-52060000D03*
%TD*%
D10*
%TO.C,R7*%
X106680000Y-52060000D03*
D11*
X106680000Y-41900000D03*
%TD*%
D10*
%TO.C,C3*%
X45720000Y-17780000D03*
X45720000Y-20280000D03*
%TD*%
%TO.C,R8*%
X110490000Y-41900000D03*
D11*
X110490000Y-52060000D03*
%TD*%
D10*
%TO.C,C4*%
X60960000Y-17780000D03*
X60960000Y-20280000D03*
%TD*%
D20*
%TO.C,D1*%
X101600000Y-22850000D03*
D11*
X101600000Y-33010000D03*
%TD*%
D18*
%TO.C,Q1*%
X105410000Y-27930000D03*
D19*
X105410000Y-30470000D03*
X105410000Y-33010000D03*
%TD*%
D14*
%TO.C,TXD*%
X86360000Y-22850000D03*
%TD*%
D10*
%TO.C,R14*%
X21590000Y-36820000D03*
D11*
X21590000Y-46980000D03*
%TD*%
D14*
%TO.C,GND*%
X80010000Y-22850000D03*
%TD*%
D10*
%TO.C,R17*%
X71120000Y-41900000D03*
D11*
X71120000Y-52060000D03*
%TD*%
D15*
%TO.C,H3*%
X106680000Y-66040000D03*
%TD*%
D10*
%TO.C,R18*%
X74930000Y-41900000D03*
D11*
X74930000Y-52060000D03*
%TD*%
D10*
%TO.C,R2*%
X97790000Y-22850000D03*
D11*
X97790000Y-33010000D03*
%TD*%
D10*
%TO.C,R5*%
X99060000Y-52060000D03*
D11*
X99060000Y-41900000D03*
%TD*%
D10*
%TO.C,R9*%
X58420000Y-41900000D03*
D11*
X58420000Y-52060000D03*
%TD*%
D10*
%TO.C,R6*%
X102870000Y-41900000D03*
D11*
X102870000Y-52060000D03*
%TD*%
D14*
%TO.C,RXD*%
X67310000Y-22850000D03*
%TD*%
D12*
%TO.C,J4*%
X26670000Y-69720000D03*
X26670000Y-62220000D03*
X26670000Y-54720000D03*
X29170000Y-67220000D03*
X29170000Y-57220000D03*
D13*
X17170000Y-67220000D03*
X17170000Y-57220000D03*
%TD*%
D10*
%TO.C,R16*%
X67310000Y-52060000D03*
D11*
X67310000Y-41900000D03*
%TD*%
D18*
%TO.C,Q4*%
X77470000Y-55870000D03*
D19*
X77470000Y-58410000D03*
X77470000Y-60950000D03*
%TD*%
D12*
%TO.C,J1*%
X63380000Y-78730000D03*
X55880000Y-78730000D03*
X48380000Y-78730000D03*
X60880000Y-76230000D03*
X50880000Y-76230000D03*
D13*
X60880000Y-88230000D03*
X50880000Y-88230000D03*
%TD*%
D10*
%TO.C,R20*%
X83820000Y-41900000D03*
D11*
X83820000Y-52060000D03*
%TD*%
D20*
%TO.C,C2*%
X40640000Y-17780000D03*
D10*
X40640000Y-19780000D03*
%TD*%
D15*
%TO.C,H1*%
X17780000Y-17780000D03*
%TD*%
D20*
%TO.C,U1*%
X25400000Y-39360000D03*
D11*
X25400000Y-41900000D03*
X25400000Y-44440000D03*
X25400000Y-46980000D03*
X33020000Y-46980000D03*
X33020000Y-44440000D03*
X33020000Y-41900000D03*
X33020000Y-39360000D03*
%TD*%
D10*
%TO.C,R15*%
X63500000Y-52070000D03*
D11*
X63500000Y-41910000D03*
%TD*%
D10*
%TO.C,R10*%
X48260000Y-41900000D03*
D11*
X48260000Y-52060000D03*
%TD*%
D10*
%TO.C,R13*%
X36830000Y-41900000D03*
D11*
X36830000Y-52060000D03*
%TD*%
D12*
%TO.C,J2*%
X86240000Y-78730000D03*
X78740000Y-78730000D03*
X71240000Y-78730000D03*
X83740000Y-76230000D03*
X73740000Y-76230000D03*
D13*
X83740000Y-88230000D03*
X73740000Y-88230000D03*
%TD*%
D18*
%TO.C,Q2*%
X58420000Y-55870000D03*
D19*
X58420000Y-58410000D03*
X58420000Y-60950000D03*
%TD*%
D15*
%TO.C,H2*%
X39370000Y-87630000D03*
%TD*%
M02*
