M48
; DRILL file {KiCad 9.0.1-9.0.1-0~ubuntu24.04.1} date 2025-05-03T17:14:15+0200
; FORMAT={-:-/ absolute / metric / decimal}
; #@! TF.CreationDate,2025-05-03T17:14:15+02:00
; #@! TF.GenerationSoftware,Kicad,Pcbnew,9.0.1-9.0.1-0~ubuntu24.04.1
; #@! TF.FileFunction,Plated,1,2,PTH
FMAT,2
METRIC
; #@! TA.AperFunction,Plated,PTH,ComponentDrill
T1C0.800
; #@! TA.AperFunction,Plated,PTH,ComponentDrill
T2C1.100
; #@! TA.AperFunction,Plated,PTH,ComponentDrill
T3C1.240
; #@! TA.AperFunction,Plated,PTH,ViaDrill
T4C1.270
; #@! TA.AperFunction,Plated,PTH,ComponentDrill
T5C1.400
; #@! TA.AperFunction,Plated,PTH,ComponentDrill
T6C2.150
%
G90
G05
T1
X21.59Y-36.82
X21.59Y-46.98
X25.4Y-39.36
X25.4Y-41.9
X25.4Y-44.44
X25.4Y-46.98
X33.02Y-39.36
X33.02Y-41.9
X33.02Y-44.44
X33.02Y-46.98
X36.83Y-41.9
X36.83Y-52.06
X40.64Y-17.78
X40.64Y-19.78
X43.18Y-41.9
X43.18Y-52.06
X45.72Y-17.78
X45.72Y-20.28
X48.26Y-41.9
X48.26Y-52.06
X52.07Y-41.9
X52.07Y-52.06
X58.42Y-41.9
X58.42Y-52.06
X58.42Y-55.87
X58.42Y-58.41
X58.42Y-60.95
X60.96Y-17.78
X60.96Y-20.28
X63.5Y-41.91
X63.5Y-52.07
X67.31Y-41.9
X67.31Y-52.06
X67.31Y-55.87
X67.31Y-58.41
X67.31Y-60.95
X71.12Y-41.9
X71.12Y-52.06
X71.66Y-29.21
X73.66Y-29.21
X74.93Y-41.9
X74.93Y-52.06
X77.47Y-55.87
X77.47Y-58.41
X77.47Y-60.95
X80.01Y-41.9
X80.01Y-52.06
X83.82Y-41.9
X83.82Y-52.06
X91.44Y-41.9
X91.44Y-52.06
X93.98Y-22.85
X93.98Y-33.01
X95.25Y-41.9
X95.25Y-52.06
X97.79Y-22.85
X97.79Y-33.01
X99.06Y-41.9
X99.06Y-52.06
X101.6Y-22.85
X101.6Y-33.01
X102.87Y-41.9
X102.87Y-52.06
X105.41Y-27.93
X105.41Y-30.47
X105.41Y-33.01
X106.68Y-41.9
X106.68Y-52.06
X110.49Y-41.9
X110.49Y-52.06
T2
X50.8Y-17.78
X53.34Y-17.78
X55.88Y-17.78
T3
X17.17Y-57.22
X17.17Y-67.22
X19.13Y-88.24
X29.13Y-88.24
X50.88Y-88.23
X60.88Y-88.23
X73.74Y-88.23
X83.74Y-88.23
X96.6Y-88.23
X106.6Y-88.23
T4
X40.005Y-33.02
X40.005Y-57.14
X55.245Y-27.94
X55.245Y-54.61
T5
X16.63Y-78.74
X19.13Y-76.24
X24.13Y-78.74
X26.67Y-54.72
X26.67Y-62.22
X26.67Y-69.72
X29.13Y-76.24
X29.17Y-57.22
X29.17Y-67.22
X31.63Y-78.74
X48.38Y-78.73
X50.88Y-76.23
X55.88Y-78.73
X60.88Y-76.23
X63.38Y-78.73
X71.24Y-78.73
X73.74Y-76.23
X78.74Y-78.73
X83.74Y-76.23
X86.24Y-78.73
X94.1Y-78.73
X96.6Y-76.23
X101.6Y-78.73
X106.6Y-76.23
X109.1Y-78.73
T6
X33.02Y-22.86
X67.31Y-22.85
X73.66Y-22.85
X80.01Y-22.85
X86.36Y-22.85
M30
